<svg width="300" height="300" viewBox="0 0 300 300" fill="none" xmlns="http://www.w3.org/2000/svg">
<path d="M211.8 98.8115H211.352V83.7285C211.348 80.7591 210.167 77.9122 208.068 75.8124C205.968 73.7127 203.121 72.5316 200.152 72.5283H163.116V57.744C163.116 57.5461 163.195 57.3563 163.335 57.2163C163.475 57.0763 163.665 56.9976 163.863 56.9973H174.467C174.967 58.7102 176.063 60.1875 177.557 61.1621C179.052 62.1366 180.846 62.5439 182.615 62.3102C184.383 62.0765 186.01 61.2173 187.2 59.888C188.39 58.5588 189.065 56.8474 189.102 55.0636C189.14 53.2799 188.537 51.5417 187.404 50.1636C186.271 48.7856 184.682 47.8588 182.924 47.5511C181.167 47.2433 179.358 47.5749 177.823 48.4859C176.289 49.3968 175.132 50.8269 174.561 52.5172H163.863C162.477 52.5188 161.149 53.07 160.169 54.0499C159.189 55.0297 158.638 56.3583 158.636 57.744V85.6699H151.916V48.5897C153.618 48.0545 155.072 46.9277 156.015 45.4133C156.957 43.8989 157.327 42.097 157.056 40.3337C156.785 38.5704 155.892 36.9623 154.539 35.8005C153.185 34.6387 151.46 34 149.676 34C147.892 34 146.167 34.6387 144.813 35.8005C143.459 36.9623 142.566 38.5704 142.296 40.3337C142.025 42.097 142.394 43.8989 143.337 45.4133C144.28 46.9277 145.734 48.0545 147.436 48.5897V85.6699H140.716V57.744C140.714 56.3583 140.163 55.0297 139.183 54.0499C138.203 53.07 136.875 52.5188 135.489 52.5172H124.79C124.22 50.8273 123.063 49.3976 121.529 48.487C119.995 47.5763 118.186 47.2448 116.429 47.5526C114.672 47.8603 113.083 48.7869 111.95 50.1646C110.817 51.5424 110.215 53.2802 110.252 55.0636C110.29 56.8469 110.965 58.558 112.154 59.8869C113.344 61.2159 114.97 62.075 116.739 62.3087C118.507 62.5424 120.301 62.1353 121.795 61.161C123.289 60.1867 124.385 58.7097 124.885 56.9973H135.489C135.687 56.9976 135.877 57.0763 136.017 57.2163C136.157 57.3563 136.235 57.5461 136.236 57.744V72.5283H103.382C99.3979 72.5333 95.5712 74.0822 92.7055 76.8494C89.8398 79.6166 88.1581 83.3868 88.0137 87.3679C88.0048 87.4487 88.0002 87.53 88 87.6113V175.72C88.0033 178.689 89.1844 181.536 91.2841 183.636C93.3839 185.736 96.2308 186.917 99.2002 186.92H211.8C214.769 186.917 217.616 185.736 219.716 183.636C221.816 181.536 222.997 178.689 223 175.72V110.012C222.997 107.042 221.816 104.195 219.716 102.096C217.616 99.9959 214.769 98.8148 211.8 98.8115V98.8115ZM181.634 51.9199C182.225 51.9199 182.802 52.0951 183.293 52.4233C183.784 52.7514 184.167 53.2179 184.393 53.7637C184.619 54.3094 184.678 54.9099 184.563 55.4893C184.448 56.0687 184.163 56.6009 183.746 57.0186C183.328 57.4363 182.796 57.7207 182.217 57.836C181.637 57.9512 181.037 57.8921 180.491 57.666C179.945 57.4399 179.479 57.0571 179.15 56.566C178.822 56.0748 178.647 55.4973 178.647 54.9066C178.648 54.1148 178.963 53.3557 179.523 52.7957C180.083 52.2358 180.842 51.9209 181.634 51.9199V51.9199ZM117.718 57.8934C117.127 57.8934 116.55 57.7182 116.059 57.39C115.567 57.0618 115.185 56.5954 114.959 56.0496C114.732 55.5038 114.673 54.9033 114.789 54.3239C114.904 53.7446 115.188 53.2124 115.606 52.7947C116.024 52.377 116.556 52.0925 117.135 51.9773C117.715 51.862 118.315 51.9212 118.861 52.1473C119.407 52.3733 119.873 52.7561 120.201 53.2473C120.529 53.7385 120.705 54.3159 120.705 54.9066C120.704 55.6985 120.389 56.4577 119.829 57.0176C119.269 57.5775 118.51 57.8925 117.718 57.8934V57.8934ZM146.689 41.4664C146.689 40.8757 146.864 40.2983 147.192 39.8072C147.521 39.316 147.987 38.9332 148.533 38.7071C149.078 38.481 149.679 38.4218 150.258 38.5369C150.837 38.652 151.37 38.9363 151.787 39.3539C152.205 39.7715 152.49 40.3035 152.605 40.8828C152.72 41.462 152.662 42.0625 152.436 42.6083C152.21 43.1541 151.827 43.6206 151.336 43.949C150.845 44.2774 150.268 44.4528 149.677 44.4531H149.674C148.883 44.4518 148.124 44.1367 147.564 43.5768C147.005 43.0169 146.69 42.258 146.689 41.4664V41.4664ZM103.382 77.0084H136.236V85.6699H110.645C110.051 85.6699 109.481 85.9059 109.061 86.326C108.641 86.7461 108.405 87.3159 108.405 87.91C108.405 88.504 108.641 89.0738 109.061 89.4939C109.481 89.914 110.051 90.15 110.645 90.15H188.706C189.301 90.15 189.87 89.914 190.29 89.4939C190.71 89.0738 190.946 88.504 190.946 87.91C190.946 87.3159 190.71 86.7461 190.29 86.326C189.87 85.9059 189.301 85.6699 188.706 85.6699H163.116V77.0084H200.152C201.933 77.0104 203.641 77.719 204.901 78.9789C206.161 80.2387 206.87 81.9469 206.872 83.7285V98.8115H103.382C100.49 98.8115 97.7175 97.663 95.6731 95.6185C93.6286 93.5741 92.4801 90.8012 92.4801 87.91C92.4801 85.0187 93.6286 82.2458 95.6731 80.2014C97.7175 78.157 100.49 77.0084 103.382 77.0084V77.0084ZM218.52 148.839H204.034C202.569 148.839 201.163 148.257 200.127 147.221C199.091 146.185 198.509 144.779 198.509 143.314C198.509 141.848 199.091 140.443 200.127 139.407C201.163 138.37 202.569 137.788 204.034 137.788H218.52V148.839ZM218.52 133.308H204.034C201.381 133.308 198.836 134.362 196.959 136.239C195.083 138.115 194.029 140.66 194.029 143.314C194.029 145.967 195.083 148.512 196.959 150.389C198.836 152.265 201.381 153.319 204.034 153.319H218.52V175.72C218.518 177.501 217.809 179.21 216.549 180.469C215.29 181.729 213.581 182.438 211.8 182.44H99.2002C97.4185 182.438 95.7104 181.729 94.4506 180.469C93.1907 179.21 92.4821 177.501 92.4801 175.72V98.7497C93.9068 100.19 95.6048 101.333 97.4761 102.112C99.3473 102.892 101.355 103.293 103.382 103.292H211.8C213.581 103.294 215.29 104.002 216.549 105.262C217.809 106.522 218.518 108.23 218.52 110.012V133.308ZM201.943 143.314C201.943 143.757 202.074 144.19 202.32 144.558C202.567 144.927 202.916 145.214 203.326 145.383C203.735 145.553 204.186 145.597 204.62 145.511C205.055 145.424 205.454 145.211 205.767 144.898C206.08 144.584 206.294 144.185 206.38 143.751C206.466 143.316 206.422 142.866 206.253 142.456C206.083 142.047 205.796 141.697 205.428 141.451C205.059 141.205 204.626 141.074 204.183 141.074C203.589 141.074 203.019 141.31 202.599 141.73C202.179 142.15 201.943 142.72 201.943 143.314ZM182.916 126.018C182.849 125.884 182.768 125.758 182.676 125.641C179.683 120.856 175.523 116.911 170.587 114.175C165.65 111.44 160.099 110.005 154.455 110.005C148.811 110.005 143.26 111.44 138.323 114.175C133.387 116.91 129.226 120.856 126.234 125.641C126.141 125.758 126.061 125.884 125.993 126.018C125.988 126.027 125.985 126.036 125.981 126.045C122.833 131.226 121.16 137.17 121.146 143.233C121.131 149.296 122.775 155.248 125.899 160.444C125.927 160.517 125.958 160.588 125.993 160.657C126.085 160.839 126.202 161.007 126.34 161.156C129.343 165.894 133.495 169.797 138.41 172.501C143.325 175.205 148.843 176.623 154.453 176.623C160.063 176.623 165.581 175.206 170.497 172.502C175.412 169.799 179.564 165.897 182.568 161.159C182.706 161.009 182.823 160.84 182.916 160.658C182.951 160.588 182.983 160.517 183.01 160.444C186.134 155.248 187.778 149.296 187.763 143.233C187.749 137.17 186.077 131.226 182.928 126.045C182.924 126.036 182.921 126.027 182.916 126.018L182.916 126.018ZM142.541 117.064C140.435 119.942 138.699 123.584 137.457 127.771C135.391 127.349 133.358 126.776 131.377 126.056C134.287 122.172 138.126 119.08 142.541 117.064H142.541ZM128.937 129.912C131.351 130.863 133.843 131.604 136.385 132.126C135.806 135.077 135.462 138.069 135.359 141.074H125.713C126.013 137.172 127.11 133.373 128.937 129.913V129.912ZM128.958 156.755C127.119 153.284 126.014 149.471 125.713 145.554H135.359C135.463 148.575 135.809 151.583 136.394 154.548C133.857 155.069 131.369 155.807 128.958 156.755V156.755ZM131.405 160.609C133.382 159.893 135.41 159.322 137.47 158.903C138.712 163.071 140.443 166.697 142.541 169.564C138.14 167.554 134.312 164.476 131.405 160.61V160.609ZM152.215 171.789C147.918 170.429 144.174 165.239 141.95 158.122C145.353 157.65 148.78 157.377 152.215 157.303V171.789ZM152.215 152.821C148.404 152.895 144.602 153.206 140.83 153.751C140.283 151.049 139.953 148.308 139.843 145.554H152.215V152.821ZM152.215 141.074H139.843C139.952 138.336 140.279 135.61 140.821 132.924C144.596 133.47 148.401 133.781 152.215 133.855V141.074ZM152.215 129.373C148.776 129.299 145.344 129.025 141.936 128.552C144.159 121.411 147.909 116.202 152.215 114.839V129.373ZM177.533 126.056C175.551 126.776 173.519 127.349 171.453 127.771C170.21 123.584 168.474 119.942 166.369 117.064C170.784 119.08 174.623 122.172 177.533 126.056H177.533ZM156.695 114.838C161 116.202 164.751 121.411 166.973 128.552C163.566 129.024 160.134 129.298 156.695 129.372V114.838ZM156.695 133.854C160.508 133.78 164.314 133.469 168.089 132.923C168.63 135.61 168.957 138.335 169.066 141.073H156.695V133.854ZM156.695 145.553H169.066C168.956 148.308 168.626 151.048 168.079 153.75C164.307 153.205 160.505 152.895 156.695 152.821V145.553ZM156.695 171.789V157.303C160.129 157.376 163.556 157.65 166.959 158.121C164.735 165.239 160.991 170.428 156.695 171.789V171.789ZM166.369 169.563C168.467 166.696 170.198 163.07 171.439 158.902C173.5 159.322 175.527 159.892 177.505 160.609C174.597 164.475 170.769 167.553 166.369 169.563V169.563ZM179.951 156.755C177.541 155.807 175.053 155.068 172.516 154.547C173.101 151.582 173.447 148.574 173.551 145.553H183.197C182.895 149.47 181.791 153.283 179.951 156.755V156.755ZM173.551 141.073C173.447 138.068 173.104 135.076 172.524 132.126C175.066 131.604 177.558 130.863 179.972 129.912C181.799 133.373 182.896 137.172 183.196 141.074L173.551 141.073Z" fill="url(#paint0_linear_800_142)"/>
<path d="M299.5 150C299.5 232.567 232.567 299.5 150 299.5C67.4334 299.5 0.5 232.567 0.5 150C0.5 67.4334 67.4334 0.5 150 0.5C232.567 0.5 299.5 67.4334 299.5 150Z" stroke="url(#paint1_linear_800_142)"/>
<rect x="71.5" y="199.5" width="165" height="45" rx="4.5" fill="black" stroke="url(#paint2_linear_800_142)"/>
<path d="M121.301 217.842H125.959C126.662 217.842 127.271 217.916 127.787 218.064C128.303 218.209 128.73 218.42 129.07 218.697C129.41 218.975 129.662 219.312 129.826 219.711C129.994 220.109 130.078 220.561 130.078 221.064C130.078 221.404 130.037 221.729 129.955 222.037C129.873 222.342 129.746 222.623 129.574 222.881C129.406 223.139 129.193 223.369 128.936 223.572C128.678 223.771 128.375 223.938 128.027 224.07L130.02 227H127.746L126.023 224.398H125.971L123.158 224.393V227H121.301V217.842ZM126.006 222.787C126.357 222.787 126.664 222.746 126.926 222.664C127.191 222.582 127.412 222.467 127.588 222.318C127.768 222.17 127.9 221.99 127.986 221.779C128.076 221.564 128.121 221.326 128.121 221.064C128.121 220.553 127.945 220.158 127.594 219.881C127.242 219.6 126.713 219.459 126.006 219.459H123.158V222.787H126.006ZM132.481 217.842H140.28V219.471H134.339V221.299H139.6V222.828H134.339V225.377H140.403V227H132.481V217.842ZM142.109 222.365C142.109 221.713 142.232 221.105 142.478 220.543C142.724 219.977 143.08 219.486 143.545 219.072C144.013 218.654 144.584 218.326 145.255 218.088C145.931 217.85 146.695 217.73 147.546 217.73C148.293 217.73 148.976 217.807 149.597 217.959C150.222 218.107 150.802 218.336 151.337 218.645L150.482 220.051C150.322 219.945 150.136 219.852 149.925 219.77C149.718 219.688 149.496 219.619 149.257 219.564C149.023 219.506 148.779 219.461 148.525 219.43C148.275 219.398 148.027 219.383 147.781 219.383C147.187 219.383 146.658 219.457 146.193 219.605C145.728 219.75 145.336 219.955 145.015 220.221C144.699 220.482 144.457 220.797 144.289 221.164C144.125 221.527 144.043 221.928 144.043 222.365C144.043 222.818 144.129 223.234 144.3 223.613C144.472 223.992 144.72 224.32 145.045 224.598C145.373 224.871 145.771 225.086 146.24 225.242C146.712 225.395 147.246 225.471 147.839 225.471C148.109 225.471 148.377 225.451 148.642 225.412C148.908 225.373 149.164 225.32 149.41 225.254C149.66 225.184 149.9 225.102 150.13 225.008C150.361 224.91 150.576 224.805 150.775 224.691L151.63 226.098C151.13 226.418 150.552 226.67 149.896 226.854C149.24 227.033 148.543 227.123 147.804 227.123C146.863 227.123 146.037 227.002 145.326 226.76C144.615 226.514 144.021 226.178 143.545 225.752C143.068 225.322 142.709 224.818 142.466 224.24C142.228 223.658 142.109 223.033 142.109 222.365ZM153.881 217.842H161.68V219.471H155.739V221.299H161V222.828H155.739V225.377H161.803V227H153.881V217.842ZM163.831 217.842H165.7V227H163.831V217.842ZM167.049 217.842H169.105L171.982 224.826L174.859 217.842H176.916L172.902 227H171.062L167.049 217.842ZM178.493 217.842H186.292V219.471H180.35V221.299H185.612V222.828H180.35V225.377H186.415V227H178.493V217.842Z" fill="url(#paint3_linear_800_142)"/>
<path d="M216.243 222C216.562 222 216.868 222.127 217.094 222.353C217.32 222.578 217.447 222.885 217.447 223.204V228.019C217.447 228.339 217.32 228.645 217.094 228.871C216.868 229.096 216.562 229.223 216.243 229.223C215.923 229.223 215.617 229.096 215.391 228.871C215.166 228.645 215.039 228.339 215.039 228.019V223.204C215.039 222.885 215.166 222.578 215.391 222.353C215.617 222.127 215.923 222 216.243 222V222ZM206.876 225.876C206.988 225.764 207.121 225.675 207.267 225.615C207.414 225.554 207.57 225.523 207.729 225.523C207.887 225.523 208.044 225.554 208.19 225.615C208.337 225.675 208.469 225.764 208.581 225.876L211.986 229.283C212.101 229.395 212.192 229.527 212.256 229.674C212.319 229.821 212.352 229.979 212.353 230.139C212.355 230.299 212.324 230.457 212.264 230.605C212.203 230.753 212.114 230.888 212.001 231.001C211.888 231.114 211.753 231.203 211.605 231.264C211.457 231.324 211.299 231.355 211.139 231.353C210.979 231.352 210.821 231.319 210.674 231.256C210.527 231.192 210.395 231.101 210.283 230.986L206.879 227.581C206.653 227.355 206.526 227.049 206.526 226.73C206.526 226.411 206.653 226.105 206.879 225.879L206.876 225.876ZM225.609 225.876C225.721 225.988 225.81 226.121 225.871 226.267C225.931 226.414 225.963 226.57 225.963 226.729C225.963 226.887 225.931 227.044 225.871 227.19C225.81 227.337 225.721 227.469 225.609 227.581L222.199 230.986C222.088 231.101 221.956 231.192 221.809 231.256C221.662 231.319 221.504 231.352 221.344 231.353C221.184 231.355 221.026 231.324 220.878 231.264C220.73 231.203 220.595 231.114 220.482 231.001C220.369 230.888 220.28 230.753 220.219 230.605C220.159 230.457 220.128 230.299 220.13 230.139C220.131 229.979 220.164 229.821 220.227 229.674C220.29 229.527 220.382 229.395 220.497 229.283L223.902 225.879C224.128 225.653 224.434 225.526 224.753 225.526C225.072 225.526 225.378 225.653 225.604 225.879L225.609 225.876ZM203 235.243C203 234.923 203.127 234.617 203.353 234.391C203.578 234.166 203.885 234.039 204.204 234.039H209.019C209.339 234.039 209.645 234.166 209.871 234.391C210.096 234.617 210.223 234.923 210.223 235.243C210.223 235.562 210.096 235.868 209.871 236.094C209.645 236.32 209.339 236.447 209.019 236.447H204.204C203.885 236.447 203.578 236.32 203.353 236.094C203.127 235.868 203 235.562 203 235.243ZM218.988 234.761C218.636 234.468 218.209 234.282 217.755 234.223C217.302 234.165 216.841 234.236 216.427 234.43C216.012 234.624 215.662 234.932 215.416 235.317C215.17 235.703 215.039 236.151 215.039 236.608V258.521C215.039 260.746 217.796 261.781 219.26 260.108L224.138 254.531C224.477 254.144 224.895 253.834 225.364 253.622C225.833 253.41 226.341 253.3 226.856 253.301H234.587C236.839 253.301 237.86 250.484 236.128 249.044L218.988 234.759V234.761ZM217.447 258.526V236.608L234.587 250.893H226.856C225.998 250.893 225.15 251.076 224.368 251.431C223.586 251.786 222.89 252.303 222.325 252.949L217.447 258.523V258.526Z" fill="url(#paint4_linear_800_142)"/>
<defs>
<linearGradient id="paint0_linear_800_142" x1="83.5" y1="41.2" x2="237.4" y2="194.2" gradientUnits="userSpaceOnUse">
<stop stop-color="#FF56F6"/>
<stop offset="0.442708" stop-color="#3BACE2"/>
<stop offset="1" stop-color="#B936EE"/>
</linearGradient>
<linearGradient id="paint1_linear_800_142" x1="56" y1="14" x2="300" y2="310" gradientUnits="userSpaceOnUse">
<stop stop-color="#FF56F6"/>
<stop offset="0.479167" stop-color="#7716BC"/>
<stop offset="0.958333" stop-color="#3BACE2"/>
</linearGradient>
<linearGradient id="paint2_linear_800_142" x1="55" y1="199" x2="265" y2="260" gradientUnits="userSpaceOnUse">
<stop stop-color="#FF56F6"/>
<stop offset="0.536458" stop-color="#3BACE2"/>
<stop offset="0.958333" stop-color="#B936EE"/>
</linearGradient>
<linearGradient id="paint3_linear_800_142" x1="120" y1="215" x2="202.143" y2="225.91" gradientUnits="userSpaceOnUse">
<stop stop-color="#FF56F6"/>
<stop offset="0.494792" stop-color="#3BACE2"/>
<stop offset="1" stop-color="#B936EE"/>
</linearGradient>
<linearGradient id="paint4_linear_800_142" x1="195" y1="227" x2="253" y2="256" gradientUnits="userSpaceOnUse">
<stop stop-color="#FF56F6"/>
<stop offset="0.40625" stop-color="#3BACE2"/>
<stop offset="1" stop-color="#B936EE"/>
</linearGradient>
</defs>
</svg>
