<svg width="300" height="300" viewBox="0 0 300 300" fill="none" xmlns="http://www.w3.org/2000/svg">
<path d="M206.8 138.811H206.352V123.729C206.348 120.759 205.167 117.912 203.068 115.812C200.968 113.713 198.121 112.532 195.152 112.528H158.116V97.744C158.116 97.5461 158.195 97.3563 158.335 97.2163C158.475 97.0763 158.665 96.9976 158.863 96.9973H169.467C169.967 98.7101 171.063 100.188 172.557 101.162C174.052 102.137 175.846 102.544 177.615 102.31C179.383 102.077 181.01 101.217 182.2 99.888C183.39 98.5588 184.065 96.8474 184.102 95.0636C184.14 93.2799 183.537 91.5417 182.404 90.1636C181.271 88.7856 179.682 87.8588 177.924 87.5511C176.167 87.2433 174.358 87.5749 172.823 88.4859C171.289 89.3968 170.132 90.8269 169.561 92.5172H158.863C157.477 92.5188 156.149 93.07 155.169 94.0499C154.189 95.0297 153.638 96.3583 153.636 97.744V125.67H146.916V88.5897C148.618 88.0545 150.072 86.9277 151.015 85.4133C151.957 83.8989 152.327 82.097 152.056 80.3337C151.785 78.5704 150.892 76.9623 149.539 75.8005C148.185 74.6387 146.46 74 144.676 74C142.892 74 141.167 74.6387 139.813 75.8005C138.459 76.9623 137.566 78.5704 137.296 80.3337C137.025 82.097 137.394 83.8989 138.337 85.4133C139.28 86.9277 140.734 88.0545 142.436 88.5897V125.67H135.716V97.744C135.714 96.3583 135.163 95.0297 134.183 94.0499C133.203 93.07 131.875 92.5188 130.489 92.5172H119.79C119.22 90.8273 118.063 89.3976 116.529 88.487C114.995 87.5763 113.186 87.2448 111.429 87.5526C109.672 87.8603 108.083 88.7869 106.95 90.1646C105.817 91.5424 105.215 93.2802 105.252 95.0636C105.29 96.8469 105.965 98.558 107.154 99.8869C108.344 101.216 109.97 102.075 111.739 102.309C113.507 102.542 115.301 102.135 116.795 101.161C118.289 100.187 119.385 98.7097 119.885 96.9973H130.489C130.687 96.9976 130.877 97.0763 131.017 97.2163C131.157 97.3563 131.235 97.5461 131.236 97.744V112.528H98.3816C94.3979 112.533 90.5712 114.082 87.7055 116.849C84.8398 119.617 83.1581 123.387 83.0137 127.368C83.0048 127.449 83.0002 127.53 83 127.611V215.72C83.0033 218.689 84.1844 221.536 86.2841 223.636C88.3839 225.736 91.2308 226.917 94.2002 226.92H206.8C209.769 226.917 212.616 225.736 214.716 223.636C216.816 221.536 217.997 218.689 218 215.72V150.012C217.997 147.042 216.816 144.195 214.716 142.096C212.616 139.996 209.769 138.815 206.8 138.811ZM176.634 91.9199C177.225 91.9199 177.802 92.0951 178.293 92.4233C178.784 92.7514 179.167 93.2179 179.393 93.7637C179.619 94.3094 179.678 94.9099 179.563 95.4893C179.448 96.0687 179.163 96.6009 178.746 97.0186C178.328 97.4363 177.796 97.7207 177.217 97.836C176.637 97.9512 176.037 97.8921 175.491 97.666C174.945 97.4399 174.479 97.0571 174.15 96.566C173.822 96.0748 173.647 95.4973 173.647 94.9066C173.648 94.1148 173.963 93.3557 174.523 92.7957C175.083 92.2358 175.842 91.9209 176.634 91.9199ZM112.718 97.8934C112.127 97.8934 111.55 97.7182 111.059 97.39C110.567 97.0618 110.185 96.5954 109.959 96.0496C109.732 95.5038 109.673 94.9033 109.789 94.3239C109.904 93.7446 110.188 93.2124 110.606 92.7947C111.024 92.377 111.556 92.0925 112.135 91.9773C112.715 91.862 113.315 91.9212 113.861 92.1473C114.407 92.3733 114.873 92.7561 115.201 93.2473C115.529 93.7385 115.705 94.3159 115.705 94.9066C115.704 95.6985 115.389 96.4577 114.829 97.0176C114.269 97.5775 113.51 97.8925 112.718 97.8934ZM141.689 81.4664C141.689 80.8757 141.864 80.2983 142.192 79.8072C142.521 79.316 142.987 78.9332 143.533 78.7071C144.078 78.481 144.679 78.4218 145.258 78.5369C145.837 78.652 146.37 78.9363 146.787 79.3539C147.205 79.7715 147.49 80.3035 147.605 80.8828C147.72 81.462 147.662 82.0625 147.436 82.6083C147.21 83.1541 146.827 83.6206 146.336 83.949C145.845 84.2774 145.268 84.4528 144.677 84.4531H144.674C143.883 84.4518 143.124 84.1367 142.564 83.5768C142.005 83.0169 141.69 82.258 141.689 81.4664ZM98.3816 117.008H131.236V125.67H105.645C105.051 125.67 104.481 125.906 104.061 126.326C103.641 126.746 103.405 127.316 103.405 127.91C103.405 128.504 103.641 129.074 104.061 129.494C104.481 129.914 105.051 130.15 105.645 130.15H183.706C184.301 130.15 184.87 129.914 185.29 129.494C185.71 129.074 185.946 128.504 185.946 127.91C185.946 127.316 185.71 126.746 185.29 126.326C184.87 125.906 184.301 125.67 183.706 125.67H158.116V117.008H195.152C196.933 117.01 198.641 117.719 199.901 118.979C201.161 120.239 201.87 121.947 201.872 123.729V138.811H98.3816C95.4904 138.811 92.7175 137.663 90.6731 135.619C88.6286 133.574 87.4801 130.801 87.4801 127.91C87.4801 125.019 88.6286 122.246 90.6731 120.201C92.7175 118.157 95.4904 117.008 98.3816 117.008ZM213.52 188.839H199.034C197.569 188.839 196.163 188.257 195.127 187.221C194.091 186.185 193.509 184.779 193.509 183.314C193.509 181.848 194.091 180.443 195.127 179.407C196.163 178.37 197.569 177.788 199.034 177.788H213.52V188.839ZM213.52 173.308H199.034C196.381 173.308 193.836 174.362 191.959 176.239C190.083 178.115 189.029 180.66 189.029 183.314C189.029 185.967 190.083 188.512 191.959 190.389C193.836 192.265 196.381 193.319 199.034 193.319H213.52V215.72C213.518 217.501 212.809 219.21 211.549 220.469C210.29 221.729 208.581 222.438 206.8 222.44H94.2002C92.4185 222.438 90.7104 221.729 89.4506 220.469C88.1907 219.21 87.4821 217.501 87.4801 215.72V138.75C88.9068 140.19 90.6048 141.333 92.4761 142.112C94.3473 142.892 96.3545 143.293 98.3816 143.292H206.8C208.581 143.294 210.29 144.002 211.549 145.262C212.809 146.522 213.518 148.23 213.52 150.012V173.308ZM196.943 183.314C196.943 183.757 197.074 184.19 197.32 184.558C197.567 184.927 197.916 185.214 198.326 185.383C198.735 185.553 199.186 185.597 199.62 185.511C200.055 185.424 200.454 185.211 200.767 184.898C201.08 184.584 201.294 184.185 201.38 183.751C201.466 183.316 201.422 182.866 201.253 182.456C201.083 182.047 200.796 181.697 200.428 181.451C200.059 181.205 199.626 181.074 199.183 181.074C198.589 181.074 198.019 181.31 197.599 181.73C197.179 182.15 196.943 182.72 196.943 183.314ZM177.916 166.018C177.849 165.884 177.768 165.758 177.676 165.641C174.683 160.856 170.523 156.911 165.587 154.175C160.65 151.44 155.099 150.005 149.455 150.005C143.811 150.005 138.26 151.44 133.323 154.175C128.387 156.91 124.226 160.856 121.234 165.641C121.141 165.758 121.061 165.884 120.993 166.018C120.988 166.027 120.985 166.036 120.981 166.045C117.833 171.226 116.16 177.17 116.146 183.233C116.131 189.296 117.775 195.248 120.899 200.444C120.927 200.517 120.958 200.588 120.993 200.657C121.085 200.839 121.202 201.007 121.34 201.156C124.343 205.894 128.495 209.797 133.41 212.501C138.325 215.205 143.843 216.623 149.453 216.623C155.063 216.623 160.581 215.206 165.497 212.502C170.412 209.799 174.564 205.897 177.568 201.159C177.706 201.009 177.823 200.84 177.916 200.658C177.951 200.588 177.983 200.517 178.01 200.444C181.134 195.248 182.778 189.296 182.763 183.233C182.749 177.17 181.077 171.226 177.928 166.045C177.924 166.036 177.921 166.027 177.916 166.018ZM137.541 157.064C135.435 159.942 133.699 163.584 132.457 167.77C130.391 167.349 128.358 166.776 126.377 166.056C129.287 162.172 133.125 159.08 137.541 157.064ZM123.937 169.912C126.351 170.863 128.843 171.604 131.385 172.126C130.806 175.077 130.462 178.069 130.359 181.074H120.713C121.013 177.172 122.11 173.373 123.937 169.912ZM123.958 196.755C122.119 193.284 121.014 189.471 120.713 185.554H130.359C130.463 188.575 130.809 191.582 131.394 194.548C128.857 195.069 126.369 195.807 123.958 196.755ZM126.405 200.609C128.382 199.893 130.41 199.322 132.47 198.903C133.712 203.071 135.443 206.697 137.541 209.564C133.14 207.554 129.312 204.476 126.405 200.609ZM147.215 211.789C142.918 210.429 139.174 205.239 136.95 198.122C140.353 197.65 143.78 197.377 147.215 197.303V211.789ZM147.215 192.821C143.404 192.895 139.602 193.206 135.83 193.751C135.283 191.049 134.953 188.308 134.843 185.554H147.215V192.821ZM147.215 181.074H134.843C134.952 178.336 135.279 175.61 135.821 172.924C139.596 173.47 143.401 173.781 147.215 173.855V181.074ZM147.215 169.373C143.776 169.299 140.344 169.025 136.936 168.552C139.159 161.411 142.909 156.202 147.215 154.839V169.373ZM172.533 166.056C170.551 166.776 168.519 167.349 166.453 167.77C165.21 163.584 163.474 159.942 161.369 157.064C165.784 159.08 169.622 162.172 172.533 166.056ZM151.695 154.838C156 156.202 159.751 161.411 161.973 168.552C158.566 169.024 155.134 169.298 151.695 169.372V154.838ZM151.695 173.854C155.508 173.78 159.314 173.469 163.089 172.923C163.63 175.61 163.957 178.335 164.066 181.073H151.695V173.854ZM151.695 185.553H164.066C163.956 188.308 163.626 191.048 163.079 193.75C159.307 193.205 155.505 192.895 151.695 192.821V185.553ZM151.695 211.789V197.303C155.129 197.376 158.556 197.65 161.959 198.121C159.735 205.239 155.991 210.428 151.695 211.789ZM161.369 209.563C163.467 206.696 165.198 203.07 166.439 198.902C168.5 199.322 170.527 199.892 172.505 200.609C169.597 204.475 165.769 207.554 161.369 209.563ZM174.951 196.755C172.541 195.807 170.053 195.068 167.516 194.547C168.101 191.582 168.447 188.574 168.551 185.553H178.197C177.895 189.47 176.791 193.283 174.951 196.755ZM168.551 181.073C168.447 178.068 168.104 175.076 167.524 172.126C170.066 171.604 172.558 170.863 174.972 169.912C176.799 173.373 177.896 177.172 178.196 181.074L168.551 181.073Z" fill="url(#paint0_linear_804_148)"/>
<path d="M299.5 150C299.5 232.567 232.567 299.5 150 299.5C67.4334 299.5 0.5 232.567 0.5 150C0.5 67.4334 67.4334 0.5 150 0.5C232.567 0.5 299.5 67.4334 299.5 150Z" stroke="url(#paint1_linear_804_148)"/>
<defs>
<linearGradient id="paint0_linear_804_148" x1="78.5" y1="81.2" x2="232.4" y2="234.2" gradientUnits="userSpaceOnUse">
<stop stop-color="#FF56F6"/>
<stop offset="0.442708" stop-color="#3BACE2"/>
<stop offset="1" stop-color="#B936EE"/>
</linearGradient>
<linearGradient id="paint1_linear_804_148" x1="56" y1="14" x2="300" y2="310" gradientUnits="userSpaceOnUse">
<stop stop-color="#FF56F6"/>
<stop offset="0.479167" stop-color="#7716BC"/>
<stop offset="0.958333" stop-color="#3BACE2"/>
</linearGradient>
</defs>
</svg>
