<svg width="300" height="300" viewBox="0 0 300 300" fill="none" xmlns="http://www.w3.org/2000/svg">
<path d="M211.8 98.8115H211.352V83.7285C211.348 80.7591 210.167 77.9122 208.068 75.8124C205.968 73.7127 203.121 72.5316 200.152 72.5283H163.116V57.744C163.116 57.5461 163.195 57.3563 163.335 57.2163C163.475 57.0763 163.665 56.9976 163.863 56.9973H174.467C174.967 58.7102 176.063 60.1875 177.557 61.1621C179.052 62.1366 180.846 62.5439 182.615 62.3102C184.383 62.0765 186.01 61.2173 187.2 59.888C188.39 58.5588 189.065 56.8474 189.102 55.0636C189.14 53.2799 188.537 51.5417 187.404 50.1636C186.271 48.7856 184.682 47.8588 182.924 47.5511C181.167 47.2433 179.358 47.5749 177.823 48.4859C176.289 49.3968 175.132 50.8269 174.561 52.5172H163.863C162.477 52.5188 161.149 53.07 160.169 54.0499C159.189 55.0297 158.638 56.3583 158.636 57.744V85.6699H151.916V48.5897C153.618 48.0545 155.072 46.9277 156.015 45.4133C156.957 43.8989 157.327 42.097 157.056 40.3337C156.785 38.5704 155.892 36.9623 154.539 35.8005C153.185 34.6387 151.46 34 149.676 34C147.892 34 146.167 34.6387 144.813 35.8005C143.459 36.9623 142.566 38.5704 142.296 40.3337C142.025 42.097 142.394 43.8989 143.337 45.4133C144.28 46.9277 145.734 48.0545 147.436 48.5897V85.6699H140.716V57.744C140.714 56.3583 140.163 55.0297 139.183 54.0499C138.203 53.07 136.875 52.5188 135.489 52.5172H124.79C124.22 50.8273 123.063 49.3976 121.529 48.487C119.995 47.5763 118.186 47.2448 116.429 47.5526C114.672 47.8603 113.083 48.7869 111.95 50.1646C110.817 51.5424 110.215 53.2802 110.252 55.0636C110.29 56.8469 110.965 58.558 112.154 59.8869C113.344 61.2159 114.97 62.075 116.739 62.3087C118.507 62.5424 120.301 62.1353 121.795 61.161C123.289 60.1867 124.385 58.7097 124.885 56.9973H135.489C135.687 56.9976 135.877 57.0763 136.017 57.2163C136.157 57.3563 136.235 57.5461 136.236 57.744V72.5283H103.382C99.3979 72.5333 95.5712 74.0822 92.7055 76.8494C89.8398 79.6166 88.1581 83.3868 88.0137 87.3679C88.0048 87.4487 88.0002 87.53 88 87.6113V175.72C88.0033 178.689 89.1844 181.536 91.2841 183.636C93.3839 185.736 96.2308 186.917 99.2002 186.92H211.8C214.769 186.917 217.616 185.736 219.716 183.636C221.816 181.536 222.997 178.689 223 175.72V110.012C222.997 107.042 221.816 104.195 219.716 102.096C217.616 99.9959 214.769 98.8148 211.8 98.8115V98.8115ZM181.634 51.9199C182.225 51.9199 182.802 52.0951 183.293 52.4233C183.784 52.7514 184.167 53.2179 184.393 53.7637C184.619 54.3094 184.678 54.9099 184.563 55.4893C184.448 56.0687 184.163 56.6009 183.746 57.0186C183.328 57.4363 182.796 57.7207 182.217 57.836C181.637 57.9512 181.037 57.8921 180.491 57.666C179.945 57.4399 179.479 57.0571 179.15 56.566C178.822 56.0748 178.647 55.4973 178.647 54.9066C178.648 54.1148 178.963 53.3557 179.523 52.7957C180.083 52.2358 180.842 51.9209 181.634 51.9199V51.9199ZM117.718 57.8934C117.127 57.8934 116.55 57.7182 116.059 57.39C115.567 57.0618 115.185 56.5954 114.959 56.0496C114.732 55.5038 114.673 54.9033 114.789 54.3239C114.904 53.7446 115.188 53.2124 115.606 52.7947C116.024 52.377 116.556 52.0925 117.135 51.9773C117.715 51.862 118.315 51.9212 118.861 52.1473C119.407 52.3733 119.873 52.7561 120.201 53.2473C120.529 53.7385 120.705 54.3159 120.705 54.9066C120.704 55.6985 120.389 56.4577 119.829 57.0176C119.269 57.5775 118.51 57.8925 117.718 57.8934V57.8934ZM146.689 41.4664C146.689 40.8757 146.864 40.2983 147.192 39.8072C147.521 39.316 147.987 38.9332 148.533 38.7071C149.078 38.481 149.679 38.4218 150.258 38.5369C150.837 38.652 151.37 38.9363 151.787 39.3539C152.205 39.7715 152.49 40.3035 152.605 40.8828C152.72 41.462 152.662 42.0625 152.436 42.6083C152.21 43.1541 151.827 43.6206 151.336 43.949C150.845 44.2774 150.268 44.4528 149.677 44.4531H149.674C148.883 44.4518 148.124 44.1367 147.564 43.5768C147.005 43.0169 146.69 42.258 146.689 41.4664V41.4664ZM103.382 77.0084H136.236V85.6699H110.645C110.051 85.6699 109.481 85.9059 109.061 86.326C108.641 86.7461 108.405 87.3159 108.405 87.91C108.405 88.504 108.641 89.0738 109.061 89.4939C109.481 89.914 110.051 90.15 110.645 90.15H188.706C189.301 90.15 189.87 89.914 190.29 89.4939C190.71 89.0738 190.946 88.504 190.946 87.91C190.946 87.3159 190.71 86.7461 190.29 86.326C189.87 85.9059 189.301 85.6699 188.706 85.6699H163.116V77.0084H200.152C201.933 77.0104 203.641 77.719 204.901 78.9789C206.161 80.2387 206.87 81.9469 206.872 83.7285V98.8115H103.382C100.49 98.8115 97.7175 97.663 95.6731 95.6185C93.6286 93.5741 92.4801 90.8012 92.4801 87.91C92.4801 85.0187 93.6286 82.2458 95.6731 80.2014C97.7175 78.157 100.49 77.0084 103.382 77.0084V77.0084ZM218.52 148.839H204.034C202.569 148.839 201.163 148.257 200.127 147.221C199.091 146.185 198.509 144.779 198.509 143.314C198.509 141.848 199.091 140.443 200.127 139.407C201.163 138.37 202.569 137.788 204.034 137.788H218.52V148.839ZM218.52 133.308H204.034C201.381 133.308 198.836 134.362 196.959 136.239C195.083 138.115 194.029 140.66 194.029 143.314C194.029 145.967 195.083 148.512 196.959 150.389C198.836 152.265 201.381 153.319 204.034 153.319H218.52V175.72C218.518 177.501 217.809 179.21 216.549 180.469C215.29 181.729 213.581 182.438 211.8 182.44H99.2002C97.4185 182.438 95.7104 181.729 94.4506 180.469C93.1907 179.21 92.4821 177.501 92.4801 175.72V98.7497C93.9068 100.19 95.6048 101.333 97.4761 102.112C99.3473 102.892 101.355 103.293 103.382 103.292H211.8C213.581 103.294 215.29 104.002 216.549 105.262C217.809 106.522 218.518 108.23 218.52 110.012V133.308ZM201.943 143.314C201.943 143.757 202.074 144.19 202.32 144.558C202.567 144.927 202.916 145.214 203.326 145.383C203.735 145.553 204.186 145.597 204.62 145.511C205.055 145.424 205.454 145.211 205.767 144.898C206.08 144.584 206.294 144.185 206.38 143.751C206.466 143.316 206.422 142.866 206.253 142.456C206.083 142.047 205.796 141.697 205.428 141.451C205.059 141.205 204.626 141.074 204.183 141.074C203.589 141.074 203.019 141.31 202.599 141.73C202.179 142.15 201.943 142.72 201.943 143.314ZM182.916 126.018C182.849 125.884 182.768 125.758 182.676 125.641C179.683 120.856 175.523 116.911 170.587 114.175C165.65 111.44 160.099 110.005 154.455 110.005C148.811 110.005 143.26 111.44 138.323 114.175C133.387 116.91 129.226 120.856 126.234 125.641C126.141 125.758 126.061 125.884 125.993 126.018C125.988 126.027 125.985 126.036 125.981 126.045C122.833 131.226 121.16 137.17 121.146 143.233C121.131 149.296 122.775 155.248 125.899 160.444C125.927 160.517 125.958 160.588 125.993 160.657C126.085 160.839 126.202 161.007 126.34 161.156C129.343 165.894 133.495 169.797 138.41 172.501C143.325 175.205 148.843 176.623 154.453 176.623C160.063 176.623 165.581 175.206 170.497 172.502C175.412 169.799 179.564 165.897 182.568 161.159C182.706 161.009 182.823 160.84 182.916 160.658C182.951 160.588 182.983 160.517 183.01 160.444C186.134 155.248 187.778 149.296 187.763 143.233C187.749 137.17 186.077 131.226 182.928 126.045C182.924 126.036 182.921 126.027 182.916 126.018L182.916 126.018ZM142.541 117.064C140.435 119.942 138.699 123.584 137.457 127.771C135.391 127.349 133.358 126.776 131.377 126.056C134.287 122.172 138.126 119.08 142.541 117.064H142.541ZM128.937 129.912C131.351 130.863 133.843 131.604 136.385 132.126C135.806 135.077 135.462 138.069 135.359 141.074H125.713C126.013 137.172 127.11 133.373 128.937 129.913V129.912ZM128.958 156.755C127.119 153.284 126.014 149.471 125.713 145.554H135.359C135.463 148.575 135.809 151.583 136.394 154.548C133.857 155.069 131.369 155.807 128.958 156.755V156.755ZM131.405 160.609C133.382 159.893 135.41 159.322 137.47 158.903C138.712 163.071 140.443 166.697 142.541 169.564C138.14 167.554 134.312 164.476 131.405 160.61V160.609ZM152.215 171.789C147.918 170.429 144.174 165.239 141.95 158.122C145.353 157.65 148.78 157.377 152.215 157.303V171.789ZM152.215 152.821C148.404 152.895 144.602 153.206 140.83 153.751C140.283 151.049 139.953 148.308 139.843 145.554H152.215V152.821ZM152.215 141.074H139.843C139.952 138.336 140.279 135.61 140.821 132.924C144.596 133.47 148.401 133.781 152.215 133.855V141.074ZM152.215 129.373C148.776 129.299 145.344 129.025 141.936 128.552C144.159 121.411 147.909 116.202 152.215 114.839V129.373ZM177.533 126.056C175.551 126.776 173.519 127.349 171.453 127.771C170.21 123.584 168.474 119.942 166.369 117.064C170.784 119.08 174.623 122.172 177.533 126.056H177.533ZM156.695 114.838C161 116.202 164.751 121.411 166.973 128.552C163.566 129.024 160.134 129.298 156.695 129.372V114.838ZM156.695 133.854C160.508 133.78 164.314 133.469 168.089 132.923C168.63 135.61 168.957 138.335 169.066 141.073H156.695V133.854ZM156.695 145.553H169.066C168.956 148.308 168.626 151.048 168.079 153.75C164.307 153.205 160.505 152.895 156.695 152.821V145.553ZM156.695 171.789V157.303C160.129 157.376 163.556 157.65 166.959 158.121C164.735 165.239 160.991 170.428 156.695 171.789V171.789ZM166.369 169.563C168.467 166.696 170.198 163.07 171.439 158.902C173.5 159.322 175.527 159.892 177.505 160.609C174.597 164.475 170.769 167.553 166.369 169.563V169.563ZM179.951 156.755C177.541 155.807 175.053 155.068 172.516 154.547C173.101 151.582 173.447 148.574 173.551 145.553H183.197C182.895 149.47 181.791 153.283 179.951 156.755V156.755ZM173.551 141.073C173.447 138.068 173.104 135.076 172.524 132.126C175.066 131.604 177.558 130.863 179.972 129.912C181.799 133.373 182.896 137.172 183.196 141.074L173.551 141.073Z" fill="url(#paint0_linear_796_127)"/>
<path d="M299.5 150C299.5 232.567 232.567 299.5 150 299.5C67.4334 299.5 0.5 232.567 0.5 150C0.5 67.4334 67.4334 0.5 150 0.5C232.567 0.5 299.5 67.4334 299.5 150Z" stroke="url(#paint1_linear_796_127)"/>
<rect x="71.5" y="199.5" width="165" height="45" rx="4.5" fill="black" stroke="url(#paint2_linear_796_127)"/>
<path d="M114.744 222.365C114.744 221.713 114.867 221.105 115.113 220.543C115.359 219.977 115.715 219.486 116.18 219.072C116.648 218.654 117.219 218.326 117.891 218.088C118.566 217.85 119.33 217.73 120.182 217.73C120.928 217.73 121.611 217.807 122.232 217.959C122.857 218.107 123.438 218.336 123.973 218.645L123.117 220.051C122.957 219.945 122.771 219.852 122.561 219.77C122.354 219.688 122.131 219.619 121.893 219.564C121.658 219.506 121.414 219.461 121.16 219.43C120.91 219.398 120.662 219.383 120.416 219.383C119.822 219.383 119.293 219.457 118.828 219.605C118.363 219.75 117.971 219.955 117.65 220.221C117.334 220.482 117.092 220.797 116.924 221.164C116.76 221.527 116.678 221.928 116.678 222.365C116.678 222.818 116.764 223.234 116.936 223.613C117.107 223.992 117.355 224.32 117.68 224.598C118.008 224.871 118.406 225.086 118.875 225.242C119.348 225.395 119.881 225.471 120.475 225.471C120.744 225.471 121.012 225.451 121.277 225.412C121.543 225.373 121.799 225.32 122.045 225.254C122.295 225.184 122.535 225.102 122.766 225.008C122.996 224.91 123.211 224.805 123.41 224.691L124.266 226.098C123.766 226.418 123.188 226.67 122.531 226.854C121.875 227.033 121.178 227.123 120.439 227.123C119.498 227.123 118.672 227.002 117.961 226.76C117.25 226.514 116.656 226.178 116.18 225.752C115.703 225.322 115.344 224.818 115.102 224.24C114.863 223.658 114.744 223.033 114.744 222.365ZM125.977 222.395C125.977 221.703 126.104 221.07 126.358 220.496C126.612 219.922 126.968 219.43 127.425 219.02C127.886 218.605 128.436 218.285 129.077 218.059C129.721 217.832 130.434 217.719 131.216 217.719C131.993 217.719 132.704 217.832 133.348 218.059C133.993 218.285 134.544 218.605 135.001 219.02C135.462 219.43 135.819 219.922 136.073 220.496C136.327 221.07 136.454 221.703 136.454 222.395C136.454 223.09 136.327 223.729 136.073 224.311C135.819 224.889 135.462 225.387 135.001 225.805C134.544 226.223 133.993 226.549 133.348 226.783C132.704 227.014 131.993 227.129 131.216 227.129C130.434 227.129 129.721 227.014 129.077 226.783C128.436 226.549 127.886 226.223 127.425 225.805C126.968 225.387 126.612 224.889 126.358 224.311C126.104 223.729 125.977 223.09 125.977 222.395ZM127.835 222.395C127.835 222.867 127.919 223.293 128.087 223.672C128.259 224.051 128.495 224.375 128.796 224.645C129.1 224.91 129.458 225.115 129.868 225.26C130.282 225.404 130.731 225.477 131.216 225.477C131.7 225.477 132.147 225.404 132.557 225.26C132.971 225.115 133.329 224.91 133.63 224.645C133.93 224.375 134.167 224.051 134.339 223.672C134.511 223.293 134.596 222.867 134.596 222.395C134.596 221.922 134.511 221.498 134.339 221.123C134.167 220.748 133.93 220.432 133.63 220.174C133.329 219.912 132.971 219.713 132.557 219.576C132.147 219.439 131.7 219.371 131.216 219.371C130.731 219.371 130.282 219.439 129.868 219.576C129.458 219.713 129.1 219.912 128.796 220.174C128.495 220.432 128.259 220.748 128.087 221.123C127.919 221.498 127.835 221.922 127.835 222.395ZM138.705 217.842H140.562L146.269 220.83V217.842H148.127V227H146.269V222.799L140.562 219.828V227H138.705V217.842ZM150.905 217.842H152.762L158.469 220.83V217.842H160.327V227H158.469V222.799L152.762 219.828V227H150.905V217.842ZM163.116 217.842H170.915V219.471H164.974V221.299H170.236V222.828H164.974V225.377H171.038V227H163.116V217.842ZM172.744 222.365C172.744 221.713 172.867 221.105 173.113 220.543C173.359 219.977 173.715 219.486 174.18 219.072C174.648 218.654 175.219 218.326 175.891 218.088C176.566 217.85 177.33 217.73 178.182 217.73C178.928 217.73 179.611 217.807 180.232 217.959C180.857 218.107 181.438 218.336 181.973 218.645L181.117 220.051C180.957 219.945 180.771 219.852 180.561 219.77C180.354 219.688 180.131 219.619 179.893 219.564C179.658 219.506 179.414 219.461 179.16 219.43C178.91 219.398 178.662 219.383 178.416 219.383C177.822 219.383 177.293 219.457 176.828 219.605C176.363 219.75 175.971 219.955 175.65 220.221C175.334 220.482 175.092 220.797 174.924 221.164C174.76 221.527 174.678 221.928 174.678 222.365C174.678 222.818 174.764 223.234 174.936 223.613C175.107 223.992 175.355 224.32 175.68 224.598C176.008 224.871 176.406 225.086 176.875 225.242C177.348 225.395 177.881 225.471 178.475 225.471C178.744 225.471 179.012 225.451 179.277 225.412C179.543 225.373 179.799 225.32 180.045 225.254C180.295 225.184 180.535 225.102 180.766 225.008C180.996 224.91 181.211 224.805 181.41 224.691L182.266 226.098C181.766 226.418 181.188 226.67 180.531 226.854C179.875 227.033 179.178 227.123 178.439 227.123C177.498 227.123 176.672 227.002 175.961 226.76C175.25 226.514 174.656 226.178 174.18 225.752C173.703 225.322 173.344 224.818 173.102 224.24C172.863 223.658 172.744 223.033 172.744 222.365ZM187.276 219.471H183.895V217.842H192.514V219.471H189.134V227H187.276V219.471Z" fill="url(#paint3_linear_796_127)"/>
<path d="M216.243 222C216.562 222 216.868 222.127 217.094 222.353C217.32 222.578 217.447 222.885 217.447 223.204V228.019C217.447 228.339 217.32 228.645 217.094 228.871C216.868 229.096 216.562 229.223 216.243 229.223C215.923 229.223 215.617 229.096 215.391 228.871C215.166 228.645 215.039 228.339 215.039 228.019V223.204C215.039 222.885 215.166 222.578 215.391 222.353C215.617 222.127 215.923 222 216.243 222V222ZM206.876 225.876C206.988 225.764 207.121 225.675 207.267 225.615C207.414 225.554 207.57 225.523 207.729 225.523C207.887 225.523 208.044 225.554 208.19 225.615C208.337 225.675 208.469 225.764 208.581 225.876L211.986 229.283C212.101 229.395 212.192 229.527 212.256 229.674C212.319 229.821 212.352 229.979 212.353 230.139C212.355 230.299 212.324 230.457 212.264 230.605C212.203 230.753 212.114 230.888 212.001 231.001C211.888 231.114 211.753 231.203 211.605 231.264C211.457 231.324 211.299 231.355 211.139 231.353C210.979 231.352 210.821 231.319 210.674 231.256C210.527 231.192 210.395 231.101 210.283 230.986L206.879 227.581C206.653 227.355 206.526 227.049 206.526 226.73C206.526 226.411 206.653 226.105 206.879 225.879L206.876 225.876ZM225.609 225.876C225.721 225.988 225.81 226.121 225.871 226.267C225.931 226.414 225.963 226.57 225.963 226.729C225.963 226.887 225.931 227.044 225.871 227.19C225.81 227.337 225.721 227.469 225.609 227.581L222.199 230.986C222.088 231.101 221.956 231.192 221.809 231.256C221.662 231.319 221.504 231.352 221.344 231.353C221.184 231.355 221.026 231.324 220.878 231.264C220.73 231.203 220.595 231.114 220.482 231.001C220.369 230.888 220.28 230.753 220.219 230.605C220.159 230.457 220.128 230.299 220.13 230.139C220.131 229.979 220.164 229.821 220.227 229.674C220.29 229.527 220.382 229.395 220.497 229.283L223.902 225.879C224.128 225.653 224.434 225.526 224.753 225.526C225.072 225.526 225.378 225.653 225.604 225.879L225.609 225.876ZM203 235.243C203 234.923 203.127 234.617 203.353 234.391C203.578 234.166 203.885 234.039 204.204 234.039H209.019C209.339 234.039 209.645 234.166 209.871 234.391C210.096 234.617 210.223 234.923 210.223 235.243C210.223 235.562 210.096 235.868 209.871 236.094C209.645 236.32 209.339 236.447 209.019 236.447H204.204C203.885 236.447 203.578 236.32 203.353 236.094C203.127 235.868 203 235.562 203 235.243ZM218.988 234.761C218.636 234.468 218.209 234.282 217.755 234.223C217.302 234.165 216.841 234.236 216.427 234.43C216.012 234.624 215.662 234.932 215.416 235.317C215.17 235.703 215.039 236.151 215.039 236.608V258.521C215.039 260.746 217.796 261.781 219.26 260.108L224.138 254.531C224.477 254.144 224.895 253.834 225.364 253.622C225.833 253.41 226.341 253.3 226.856 253.301H234.587C236.839 253.301 237.86 250.484 236.128 249.044L218.988 234.759V234.761ZM217.447 258.526V236.608L234.587 250.893H226.856C225.998 250.893 225.15 251.076 224.368 251.431C223.586 251.786 222.89 252.303 222.325 252.949L217.447 258.523V258.526Z" fill="url(#paint4_linear_796_127)"/>
<defs>
<linearGradient id="paint0_linear_796_127" x1="83.5" y1="41.2" x2="237.4" y2="194.2" gradientUnits="userSpaceOnUse">
<stop stop-color="#FF56F6"/>
<stop offset="0.442708" stop-color="#3BACE2"/>
<stop offset="1" stop-color="#B936EE"/>
</linearGradient>
<linearGradient id="paint1_linear_796_127" x1="56" y1="14" x2="300" y2="310" gradientUnits="userSpaceOnUse">
<stop stop-color="#FF56F6"/>
<stop offset="0.479167" stop-color="#7716BC"/>
<stop offset="0.958333" stop-color="#3BACE2"/>
</linearGradient>
<linearGradient id="paint2_linear_796_127" x1="55" y1="199" x2="265" y2="260" gradientUnits="userSpaceOnUse">
<stop stop-color="#FF56F6"/>
<stop offset="0.536458" stop-color="#3BACE2"/>
<stop offset="0.958333" stop-color="#B936EE"/>
</linearGradient>
<linearGradient id="paint3_linear_796_127" x1="114" y1="215" x2="210" y2="230" gradientUnits="userSpaceOnUse">
<stop stop-color="#FF56F6"/>
<stop offset="0.494792" stop-color="#3BACE2"/>
<stop offset="1" stop-color="#B936EE"/>
</linearGradient>
<linearGradient id="paint4_linear_796_127" x1="195" y1="227" x2="253" y2="256" gradientUnits="userSpaceOnUse">
<stop stop-color="#FF56F6"/>
<stop offset="0.40625" stop-color="#3BACE2"/>
<stop offset="1" stop-color="#B936EE"/>
</linearGradient>
</defs>
</svg>
