<svg width="300" height="300" viewBox="0 0 300 300" fill="none" xmlns="http://www.w3.org/2000/svg">
<path d="M299.5 150C299.5 232.567 232.567 299.5 150 299.5C67.4334 299.5 0.5 232.567 0.5 150C0.5 67.4334 67.4334 0.5 150 0.5C232.567 0.5 299.5 67.4334 299.5 150Z" stroke="url(#paint0_linear_804_149)"/>
<path d="M150.94 231.609C149.393 231.609 147.846 231.281 146.3 230.672C145.362 230.297 144.331 229.828 143.159 229.266C133.034 224.672 111.987 215.109 87.1902 217.687C86.9921 217.712 86.7911 217.696 86.5995 217.64C86.4079 217.584 86.2298 217.49 86.0761 217.362C85.9224 217.235 85.7964 217.078 85.7058 216.9C85.6153 216.722 85.5621 216.527 85.5496 216.328C85.4558 215.484 86.0652 214.734 86.9089 214.687C112.55 212.016 134.112 221.812 144.425 226.5C145.596 227.016 146.581 227.484 147.471 227.859C150.518 229.125 153.753 228.656 156.143 226.828C160.362 223.687 167.581 219.234 172.925 216C178.409 212.766 184.081 209.625 190.268 206.484C200.581 201.281 221.112 188.344 236.534 178.359L240.284 175.922C241.737 174.984 242.956 174.187 243.987 173.484C244.503 173.156 244.925 172.734 245.206 172.219C245.581 171.609 245.768 170.953 245.768 170.203C245.768 168.844 245.112 167.672 243.987 167.016C243.003 166.453 240.612 165 235.362 165.281C232.034 165.469 228.706 166.359 225.425 167.953C216.893 172.078 192.706 183.516 192.471 183.656C192.293 183.744 192.099 183.795 191.901 183.807C191.703 183.819 191.504 183.791 191.317 183.726C191.129 183.66 190.957 183.558 190.809 183.426C190.661 183.293 190.541 183.132 190.456 182.953C190.368 182.775 190.317 182.581 190.305 182.383C190.293 182.184 190.321 181.986 190.386 181.798C190.452 181.611 190.554 181.438 190.686 181.29C190.819 181.143 190.98 181.023 191.159 180.937C191.393 180.844 215.581 169.406 224.112 165.234C227.768 163.453 231.518 162.469 235.221 162.281C241.409 161.953 244.409 163.734 245.393 164.344C247.596 165.609 248.862 167.812 248.862 170.25C248.862 171.562 248.534 172.781 247.878 173.812C247.409 174.656 246.659 175.453 245.721 176.016C244.737 176.672 243.471 177.469 242.018 178.453L238.268 180.891C222.8 190.875 202.128 203.906 191.721 209.156C185.898 212.086 180.176 215.213 174.565 218.531C169.315 221.719 162.143 226.125 158.018 229.172C155.956 230.766 153.518 231.609 150.94 231.609V231.609Z" fill="url(#paint1_linear_804_149)"/>
<path d="M152.487 200.906H127.081C126.237 200.906 125.581 200.25 125.581 199.406C125.581 198.562 126.237 197.906 127.081 197.906H152.487C162.378 197.906 172.128 196.078 181.362 192.422L184.596 191.109C187.503 189.937 189.612 187.5 190.128 184.687C190.315 183.656 190.315 182.766 190.128 181.875V181.781C189.143 177.937 184.268 176.344 182.815 175.922C176.253 174.469 144.659 175.312 144.378 175.312C141.378 175.312 138.518 174.844 135.846 173.906C134.112 173.344 132.378 172.5 130.69 171.516C113.159 160.734 86.2995 167.156 78.4713 169.406C78.086 169.517 77.6726 169.47 77.3214 169.277C76.9701 169.084 76.7095 168.759 76.5963 168.375C76.362 167.578 76.8307 166.734 77.6276 166.5C85.737 164.203 113.674 157.547 132.237 168.937C133.69 169.828 135.237 170.531 136.784 171.047C139.174 171.891 141.659 172.312 144.284 172.312C145.549 172.266 176.534 171.422 183.424 172.969C185.44 173.531 191.581 175.594 192.987 181.031V181.078C192.987 181.125 192.987 181.172 193.034 181.172C193.315 182.391 193.362 183.75 193.081 185.203C192.331 189.047 189.518 192.328 185.674 193.875L182.393 195.187C172.878 198.977 162.729 200.918 152.487 200.906V200.906Z" fill="url(#paint2_linear_804_149)"/>
<path d="M67.034 227.438C65.7684 227.438 64.5027 226.875 63.4715 225.797C62.3465 224.672 61.5965 223.078 61.2684 221.297L52.1746 172.359C51.4246 168.422 53.159 164.906 56.0652 164.344L72.9871 161.203C75.9402 160.688 78.7527 163.313 79.5027 167.25L88.5965 216.188C89.3465 220.125 87.6121 223.641 84.7059 224.203L67.784 227.344L67.5027 225.844L67.784 227.344C67.5027 227.391 67.2684 227.438 67.034 227.438V227.438ZM73.7371 164.156H73.5496L56.6277 167.297C55.5496 167.484 54.7059 169.453 55.1277 171.75L64.2215 220.688C64.4559 221.859 64.9715 222.938 65.6277 223.641C65.9559 223.969 66.5652 224.484 67.2215 224.344L84.1434 221.203C85.1746 221.016 86.0652 219.047 85.6434 216.75L76.5496 167.813C76.1277 165.609 74.7684 164.156 73.7371 164.156V164.156Z" fill="url(#paint3_linear_804_149)"/>
<path d="M188.768 137.391H172.456C171.612 137.391 170.956 136.735 170.956 135.891C170.956 135.047 171.612 134.391 172.456 134.391H188.721C197.628 134.391 204.846 127.172 204.846 118.266C204.846 109.36 197.628 102.094 188.721 102.094C187.878 102.094 187.221 101.438 187.221 100.594C187.216 97.9718 186.574 95.3902 185.348 93.0719C184.123 90.7535 182.352 88.7682 180.188 87.2871C178.024 85.806 175.532 84.8737 172.927 84.5706C170.323 84.2675 167.683 84.6027 165.237 85.5472C164.87 85.6993 164.458 85.701 164.09 85.5519C163.721 85.4028 163.426 85.1149 163.268 84.7503C161.635 80.9834 158.937 77.775 155.507 75.5186C152.076 73.2621 148.062 72.0557 143.956 72.0472C135.284 72.0472 127.596 77.2503 124.362 85.3128C124.081 86.0628 123.237 86.4378 122.487 86.2035C121.221 85.7816 119.862 85.5941 118.409 85.5941C116.364 85.5931 114.346 86.0565 112.507 86.9493C110.668 87.8422 109.055 89.1412 107.791 90.7482C106.527 92.3553 105.645 94.2285 105.21 96.2264C104.776 98.2243 104.801 100.295 105.284 102.282C105.471 102.985 105.143 103.688 104.534 104.016C101.344 105.704 98.8108 108.412 97.3398 111.708C95.8688 115.004 95.5446 118.698 96.4187 122.2C97.2928 125.702 99.315 128.81 102.162 131.029C105.01 133.247 108.518 134.447 112.128 134.438H128.393C129.237 134.438 129.893 135.094 129.893 135.938C129.893 136.782 129.237 137.438 128.393 137.438H112.128C107.944 137.437 103.875 136.069 100.539 133.543C97.2037 131.018 94.7843 127.472 93.6489 123.445C92.5135 119.418 92.7242 115.13 94.249 111.234C95.7739 107.338 98.5293 104.046 102.096 101.86C101.633 99.1724 101.841 96.4122 102.702 93.8247C103.563 91.2372 105.05 88.9025 107.03 87.0283C109.011 85.1541 111.425 83.7986 114.056 83.0822C116.687 82.3659 119.455 82.3109 122.112 82.9222C124.041 78.7459 127.13 75.2127 131.011 72.7442C134.893 70.2756 139.403 68.976 144.003 69.0003C153.096 69.0003 161.393 74.1566 165.518 82.266C167.253 81.7035 169.175 81.4222 171.096 81.4222C175.928 81.431 180.579 83.2593 184.123 86.5428C187.667 89.8263 189.844 94.3243 190.221 99.141C195.038 99.518 199.536 101.695 202.82 105.24C206.103 108.784 207.931 113.435 207.94 118.266C207.94 128.813 199.315 137.391 188.768 137.391V137.391Z" fill="url(#paint4_linear_804_149)"/>
<path d="M178.409 115.172H122.44C121.596 115.172 120.94 114.516 120.94 113.672C120.94 112.828 121.596 112.172 122.44 112.172H178.456C179.3 112.172 179.956 112.828 179.956 113.672C179.956 114.516 179.253 115.172 178.409 115.172V115.172Z" fill="url(#paint5_linear_804_149)"/>
<path d="M150.425 159.609C137.44 159.609 126.846 149.062 126.846 136.031C126.846 123 137.393 112.453 150.425 112.453C163.409 112.453 174.003 123 174.003 136.031C174.003 149.062 163.409 159.609 150.425 159.609ZM150.425 115.547C139.081 115.547 129.893 124.734 129.893 136.078C129.893 147.422 139.081 156.609 150.425 156.609C161.768 156.609 170.956 147.422 170.956 136.078C170.956 124.734 161.768 115.547 150.425 115.547Z" fill="url(#paint6_linear_804_149)"/>
<path d="M150.331 148.5C146.487 148.5 143.346 145.359 143.346 141.516C143.346 140.672 144.003 140.016 144.846 140.016C145.69 140.016 146.346 140.672 146.346 141.516C146.346 143.672 148.128 145.453 150.284 145.453C152.44 145.453 154.221 143.672 154.221 141.516C154.221 139.406 152.534 137.625 150.471 137.578C146.675 137.578 143.534 134.437 143.534 130.594C143.534 128.719 144.237 126.984 145.596 125.672C146.909 124.359 148.643 123.656 150.518 123.656C152.393 123.656 154.128 124.359 155.44 125.719C156.753 127.031 157.503 128.766 157.503 130.641C157.503 131.484 156.846 132.141 156.003 132.141C155.159 132.141 154.503 131.484 154.503 130.641C154.503 129.609 154.081 128.578 153.331 127.875C152.97 127.507 152.54 127.214 152.065 127.013C151.59 126.812 151.081 126.706 150.565 126.703C149.534 126.703 148.503 127.125 147.8 127.875C147.05 128.625 146.628 129.609 146.628 130.641C146.628 132.797 148.409 134.578 150.565 134.578C154.315 134.672 157.315 137.766 157.315 141.562C157.268 145.359 154.175 148.5 150.331 148.5V148.5Z" fill="url(#paint7_linear_804_149)"/>
<path d="M150.425 126.656C149.581 126.656 148.925 126 148.925 125.156V121.828C148.925 120.984 149.581 120.328 150.425 120.328C151.268 120.328 151.925 120.984 151.925 121.828V125.156C151.925 126 151.268 126.656 150.425 126.656ZM150.425 151.828C149.581 151.828 148.925 151.172 148.925 150.328V147C148.925 146.156 149.581 145.5 150.425 145.5C151.268 145.5 151.925 146.156 151.925 147V150.328C151.925 151.125 151.268 151.828 150.425 151.828Z" fill="url(#paint8_linear_804_149)"/>
<defs>
<linearGradient id="paint0_linear_804_149" x1="56" y1="14" x2="300" y2="310" gradientUnits="userSpaceOnUse">
<stop stop-color="#FF56F6"/>
<stop offset="0.479167" stop-color="#7716BC"/>
<stop offset="0.958333" stop-color="#3BACE2"/>
</linearGradient>
<linearGradient id="paint1_linear_804_149" x1="102.485" y1="172.173" x2="153.004" y2="275.662" gradientUnits="userSpaceOnUse">
<stop stop-color="#FF56F6"/>
<stop offset="0.5" stop-color="#3BACE2"/>
<stop offset="1" stop-color="#B936EE"/>
</linearGradient>
<linearGradient id="paint2_linear_804_149" x1="88.6471" y1="167.975" x2="112.15" y2="230.084" gradientUnits="userSpaceOnUse">
<stop stop-color="#FF56F6"/>
<stop offset="0.5" stop-color="#3BACE2"/>
<stop offset="1" stop-color="#B936EE"/>
</linearGradient>
<linearGradient id="paint3_linear_804_149" x1="55.815" y1="170.631" x2="103.756" y2="193.765" gradientUnits="userSpaceOnUse">
<stop stop-color="#FF56F6"/>
<stop offset="0.5" stop-color="#3BACE2"/>
<stop offset="1" stop-color="#B936EE"/>
</linearGradient>
<linearGradient id="paint4_linear_804_149" x1="104.861" y1="78.7984" x2="163.774" y2="164.939" gradientUnits="userSpaceOnUse">
<stop stop-color="#FF56F6"/>
<stop offset="0.5" stop-color="#3BACE2"/>
<stop offset="1" stop-color="#B936EE"/>
</linearGradient>
<linearGradient id="paint5_linear_804_149" x1="127.063" y1="112.601" x2="127.386" y2="118.125" gradientUnits="userSpaceOnUse">
<stop stop-color="#FF56F6"/>
<stop offset="0.5" stop-color="#3BACE2"/>
<stop offset="1" stop-color="#B936EE"/>
</linearGradient>
<linearGradient id="paint6_linear_804_149" x1="131.739" y1="119.205" x2="174.879" y2="156.739" gradientUnits="userSpaceOnUse">
<stop stop-color="#FF56F6"/>
<stop offset="0.5" stop-color="#3BACE2"/>
<stop offset="1" stop-color="#B936EE"/>
</linearGradient>
<linearGradient id="paint7_linear_804_149" x1="144.815" y1="127.213" x2="163.08" y2="136.268" gradientUnits="userSpaceOnUse">
<stop stop-color="#FF56F6"/>
<stop offset="0.5" stop-color="#3BACE2"/>
<stop offset="1" stop-color="#B936EE"/>
</linearGradient>
<linearGradient id="paint8_linear_804_149" x1="149.236" y1="124.838" x2="154.025" y2="125.235" gradientUnits="userSpaceOnUse">
<stop stop-color="#FF56F6"/>
<stop offset="0.5" stop-color="#3BACE2"/>
<stop offset="1" stop-color="#B936EE"/>
</linearGradient>
</defs>
</svg>
