<svg width="30" height="201" viewBox="0 0 30 201" fill="none" xmlns="http://www.w3.org/2000/svg">
<path d="M14.5 200.751L17.3868 195.751H11.6132L14.5 200.751ZM15 197.18C15 196.904 14.7761 196.68 14.5 196.68C14.2239 196.68 14 196.904 14 197.18H15ZM14 190.037C14 190.313 14.2239 190.537 14.5 190.537C14.7761 190.537 15 190.313 15 190.037H14ZM15 182.894C15 182.618 14.7761 182.394 14.5 182.394C14.2239 182.394 14 182.618 14 182.894H15ZM14 175.751C14 176.028 14.2239 176.251 14.5 176.251C14.7761 176.251 15 176.028 15 175.751H14ZM15 168.609C15 168.332 14.7761 168.109 14.5 168.109C14.2239 168.109 14 168.332 14 168.609H15ZM14 161.466C14 161.742 14.2239 161.966 14.5 161.966C14.7761 161.966 15 161.742 15 161.466H14ZM15 154.323C15 154.047 14.7761 153.823 14.5 153.823C14.2239 153.823 14 154.047 14 154.323H15ZM14 147.18C14 147.456 14.2239 147.68 14.5 147.68C14.7761 147.68 15 147.456 15 147.18H14ZM15 140.037C15 139.761 14.7761 139.537 14.5 139.537C14.2239 139.537 14 139.761 14 140.037H15ZM14 132.894C14 133.17 14.2239 133.394 14.5 133.394C14.7761 133.394 15 133.17 15 132.894H14ZM15 125.751C15 125.475 14.7761 125.251 14.5 125.251C14.2239 125.251 14 125.475 14 125.751H15ZM14 118.609C14 118.885 14.2239 119.109 14.5 119.109C14.7761 119.109 15 118.885 15 118.609H14ZM15 111.466C15 111.19 14.7761 110.966 14.5 110.966C14.2239 110.966 14 111.19 14 111.466H15ZM14 104.323C14 104.599 14.2239 104.823 14.5 104.823C14.7761 104.823 15 104.599 15 104.323H14ZM15 97.18C15 96.9039 14.7761 96.68 14.5 96.68C14.2239 96.68 14 96.9039 14 97.18H15ZM14 90.0372C14 90.3133 14.2239 90.5372 14.5 90.5372C14.7761 90.5372 15 90.3133 15 90.0372H14ZM15 82.8943C15 82.6182 14.7761 82.3943 14.5 82.3943C14.2239 82.3943 14 82.6182 14 82.8943H15ZM14 75.7514C14 76.0276 14.2239 76.2514 14.5 76.2514C14.7761 76.2514 15 76.0276 15 75.7514H14ZM15 68.6086C15 68.3324 14.7761 68.1086 14.5 68.1086C14.2239 68.1086 14 68.3324 14 68.6086H15ZM14 61.4657C14 61.7419 14.2239 61.9657 14.5 61.9657C14.7761 61.9657 15 61.7419 15 61.4657H14ZM15 54.3229C15 54.0467 14.7761 53.8229 14.5 53.8229C14.2239 53.8229 14 54.0467 14 54.3229H15ZM14 47.18C14 47.4562 14.2239 47.68 14.5 47.68C14.7761 47.68 15 47.4562 15 47.18H14ZM15 40.0372C15 39.761 14.7761 39.5372 14.5 39.5372C14.2239 39.5372 14 39.761 14 40.0372H15ZM14 32.8943C14 33.1705 14.2239 33.3943 14.5 33.3943C14.7761 33.3943 15 33.1705 15 32.8943H14ZM15 25.7515C15 25.4753 14.7761 25.2515 14.5 25.2515C14.2239 25.2515 14 25.4753 14 25.7515H15ZM14 18.6086C14 18.8848 14.2239 19.1086 14.5 19.1086C14.7761 19.1086 15 18.8848 15 18.6086H14ZM15 11.4658C15 11.1896 14.7761 10.9658 14.5 10.9658C14.2239 10.9658 14 11.1896 14 11.4658H15ZM14 4.32291C14 4.59904 14.2239 4.82291 14.5 4.82291C14.7761 4.82291 15 4.59904 15 4.32291H14ZM15 190.037L15 182.894H14L14 190.037H15ZM15 175.751L15 168.609H14L14 175.751H15ZM15 161.466V154.323H14V161.466H15ZM15 147.18L15 140.037H14L14 147.18H15ZM15 132.894L15 125.751H14L14 132.894H15ZM15 118.609V111.466H14V118.609H15ZM15 104.323L15 97.18H14L14 104.323H15ZM15 90.0372L15 82.8943H14L14 90.0372H15ZM15 75.7514V68.6086H14V75.7514H15ZM15 61.4657L15 54.3229H14L14 61.4657H15ZM15 47.18L15 40.0372H14L14 47.18H15ZM15 32.8943V25.7515H14V32.8943H15ZM15 18.6086L15 11.4658H14L14 18.6086H15ZM15 4.32291L15 0.751465H14L14 4.32291H15Z" fill="url(#paint0_linear_201_14)"/>
<circle cx="15" cy="94.6562" r="15" fill="url(#paint1_linear_201_14)"/>
<defs>
<linearGradient id="paint0_linear_201_14" x1="87.9997" y1="182.749" x2="-54.0002" y2="-14.2508" gradientUnits="userSpaceOnUse">
<stop stop-color="#3BACE2"/>
<stop offset="1" stop-color="#FF56F6"/>
</linearGradient>
<linearGradient id="paint1_linear_201_14" x1="15" y1="79.6562" x2="15" y2="109.656" gradientUnits="userSpaceOnUse">
<stop stop-color="#FF56F6"/>
<stop offset="1" stop-color="#406AFF"/>
</linearGradient>
</defs>
</svg>
