<svg width="409" height="256" viewBox="0 0 409 256" fill="none" xmlns="http://www.w3.org/2000/svg">
<g filter="url(#filter0_bd_2_1060)">
<path d="M97 114.785V152.5C97 153.605 97.8954 154.5 99 154.5H291.172C291.702 154.5 292.211 154.289 292.586 153.914L311.414 135.086C311.789 134.711 312 134.202 312 133.672V95.9898C312 94.8892 311.111 93.9955 310.01 93.9898L117.378 93.0045C116.819 93.0016 116.283 93.2334 115.902 93.6436L97.5344 113.424C97.1909 113.794 97 114.281 97 114.785Z" fill="url(#paint0_linear_2_1060)"/>
</g>
<path d="M134.306 133.276C134.71 133.03 135.056 132.772 135.343 132.503C135.636 132.233 135.876 131.935 136.063 131.606C136.251 131.284 136.389 130.924 136.477 130.525C136.564 130.121 136.608 129.664 136.608 129.154V117.263H139.395V128.653C139.395 129.263 139.368 129.819 139.315 130.323C139.263 130.821 139.175 131.278 139.052 131.694C138.935 132.116 138.773 132.503 138.568 132.854C138.369 133.206 138.12 133.54 137.821 133.856C137.528 134.173 137.18 134.478 136.775 134.771C136.377 135.063 135.914 135.359 135.387 135.658L134.306 133.276ZM142.014 125.814C142.014 125.07 142.163 124.373 142.462 123.723C142.767 123.072 143.197 122.504 143.754 122.018C144.316 121.531 144.993 121.147 145.784 120.866C146.581 120.585 147.475 120.444 148.465 120.444C149.455 120.444 150.346 120.585 151.137 120.866C151.934 121.147 152.61 121.531 153.167 122.018C153.729 122.504 154.16 123.072 154.459 123.723C154.764 124.373 154.916 125.07 154.916 125.814C154.916 126.559 154.764 127.256 154.459 127.906C154.16 128.557 153.729 129.125 153.167 129.611C152.61 130.098 151.934 130.481 151.137 130.763C150.346 131.044 149.455 131.185 148.465 131.185C147.475 131.185 146.581 131.044 145.784 130.763C144.993 130.481 144.316 130.098 143.754 129.611C143.197 129.125 142.767 128.557 142.462 127.906C142.163 127.256 142.014 126.559 142.014 125.814ZM144.747 125.814C144.747 126.23 144.829 126.626 144.993 127.001C145.163 127.37 145.406 127.698 145.723 127.985C146.045 128.267 146.435 128.492 146.892 128.662C147.354 128.826 147.879 128.908 148.465 128.908C149.051 128.908 149.572 128.826 150.029 128.662C150.492 128.492 150.882 128.267 151.198 127.985C151.521 127.698 151.764 127.37 151.928 127.001C152.098 126.626 152.183 126.23 152.183 125.814C152.183 125.398 152.098 125.003 151.928 124.628C151.764 124.253 151.521 123.925 151.198 123.644C150.882 123.356 150.492 123.131 150.029 122.967C149.572 122.797 149.051 122.712 148.465 122.712C147.879 122.712 147.354 122.797 146.892 122.967C146.435 123.131 146.045 123.356 145.723 123.644C145.406 123.925 145.163 124.253 144.993 124.628C144.829 125.003 144.747 125.398 144.747 125.814ZM158.915 119.214C158.657 119.214 158.423 119.179 158.212 119.108C158.007 119.032 157.831 118.933 157.685 118.81C157.538 118.681 157.424 118.534 157.342 118.37C157.266 118.2 157.228 118.021 157.228 117.834C157.228 117.641 157.266 117.462 157.342 117.298C157.424 117.128 157.538 116.981 157.685 116.858C157.831 116.735 158.007 116.639 158.212 116.568C158.423 116.492 158.657 116.454 158.915 116.454C159.179 116.454 159.413 116.492 159.618 116.568C159.829 116.639 160.008 116.735 160.154 116.858C160.301 116.981 160.412 117.128 160.488 117.298C160.57 117.462 160.611 117.641 160.611 117.834C160.611 118.021 160.57 118.2 160.488 118.37C160.412 118.534 160.301 118.681 160.154 118.81C160.008 118.933 159.829 119.032 159.618 119.108C159.413 119.179 159.179 119.214 158.915 119.214ZM157.614 120.629H160.216V131H157.614V120.629ZM163.556 120.629H166.157V121.508C166.849 121.115 167.508 120.84 168.135 120.682C168.768 120.523 169.386 120.444 169.989 120.444C170.78 120.444 171.513 120.562 172.187 120.796C172.86 121.024 173.443 121.367 173.936 121.824C174.428 122.281 174.812 122.853 175.087 123.538C175.368 124.218 175.509 125.006 175.509 125.902V131H172.916V126.324C172.916 125.756 172.834 125.249 172.67 124.804C172.512 124.353 172.28 123.975 171.976 123.67C171.677 123.359 171.311 123.125 170.877 122.967C170.449 122.803 169.969 122.721 169.436 122.721C169.154 122.721 168.864 122.75 168.565 122.809C168.272 122.867 167.982 122.952 167.695 123.063C167.414 123.169 167.142 123.304 166.878 123.468C166.614 123.626 166.374 123.808 166.157 124.013V131H163.556V120.629ZM185.01 117.263H192.252C193.307 117.263 194.221 117.377 194.994 117.605C195.768 117.834 196.409 118.165 196.919 118.599C197.429 119.026 197.807 119.551 198.053 120.172C198.305 120.793 198.431 121.493 198.431 122.272C198.431 123.005 198.308 123.682 198.062 124.303C197.815 124.924 197.438 125.463 196.928 125.92C196.424 126.371 195.785 126.726 195.012 126.983C194.238 127.235 193.324 127.361 192.27 127.361L187.796 127.353V131H185.01V117.263ZM192.322 124.944C192.85 124.944 193.31 124.883 193.702 124.76C194.101 124.631 194.432 124.452 194.695 124.224C194.965 123.989 195.164 123.708 195.293 123.38C195.428 123.046 195.495 122.677 195.495 122.272C195.495 121.458 195.229 120.825 194.695 120.374C194.168 119.917 193.377 119.688 192.322 119.688H187.796V124.944H192.322ZM201.155 120.629H203.757V122.123C204.331 121.695 204.938 121.326 205.576 121.016C206.215 120.705 206.851 120.468 207.483 120.304L208.248 122.686C207.246 122.785 206.364 123.011 205.603 123.362C204.847 123.708 204.231 124.197 203.757 124.83V131H201.155V120.629ZM209.698 125.779C209.698 125.076 209.842 124.405 210.129 123.767C210.416 123.122 210.829 122.554 211.368 122.062C211.907 121.569 212.566 121.177 213.346 120.884C214.131 120.591 215.021 120.444 216.018 120.444C217.008 120.444 217.898 120.594 218.689 120.893C219.486 121.186 220.16 121.59 220.711 122.105C221.268 122.621 221.692 123.228 221.985 123.925C222.284 124.622 222.434 125.369 222.434 126.166C222.434 126.266 222.431 126.374 222.425 126.491C222.425 126.603 222.419 126.705 222.407 126.799H212.599C212.71 127.109 212.889 127.394 213.135 127.651C213.387 127.909 213.7 128.132 214.075 128.319C214.45 128.507 214.884 128.653 215.376 128.759C215.868 128.858 216.413 128.908 217.011 128.908C217.608 128.908 218.203 128.847 218.795 128.724C219.387 128.595 219.952 128.434 220.491 128.24L221.37 130.227C221.03 130.385 220.685 130.525 220.333 130.648C219.987 130.766 219.624 130.865 219.243 130.947C218.868 131.023 218.473 131.082 218.057 131.123C217.646 131.164 217.213 131.185 216.756 131.185C215.59 131.185 214.567 131.044 213.688 130.763C212.81 130.481 212.074 130.098 211.482 129.611C210.891 129.125 210.445 128.554 210.146 127.897C209.848 127.241 209.698 126.535 209.698 125.779ZM219.674 124.769C219.58 124.481 219.434 124.215 219.234 123.969C219.041 123.717 218.798 123.5 218.505 123.318C218.212 123.131 217.872 122.984 217.485 122.879C217.099 122.773 216.674 122.721 216.211 122.721C215.719 122.721 215.271 122.776 214.866 122.888C214.462 122.999 214.107 123.148 213.803 123.336C213.498 123.523 213.243 123.74 213.038 123.986C212.839 124.232 212.692 124.493 212.599 124.769H219.674ZM225.65 127.818C226.354 128.24 227.127 128.551 227.971 128.75C228.814 128.949 229.679 129.049 230.563 129.049C231.161 129.049 231.659 129.008 232.058 128.926C232.456 128.844 232.775 128.738 233.016 128.609C233.256 128.48 233.426 128.334 233.525 128.17C233.625 128.006 233.675 127.839 233.675 127.669C233.675 127.423 233.566 127.212 233.35 127.036C233.139 126.86 232.787 126.772 232.295 126.772C232.066 126.772 231.82 126.787 231.557 126.816C231.293 126.846 231.015 126.878 230.722 126.913C230.435 126.942 230.133 126.972 229.816 127.001C229.506 127.03 229.189 127.045 228.867 127.045C228.164 127.045 227.563 126.969 227.065 126.816C226.573 126.664 226.172 126.456 225.861 126.192C225.551 125.929 225.325 125.618 225.185 125.261C225.044 124.897 224.974 124.508 224.974 124.092C224.974 123.564 225.097 123.078 225.343 122.633C225.589 122.188 225.94 121.804 226.397 121.481C226.854 121.153 227.405 120.898 228.05 120.717C228.7 120.535 229.424 120.444 230.221 120.444C230.637 120.444 231.07 120.471 231.521 120.523C231.979 120.57 232.427 120.635 232.866 120.717C233.306 120.799 233.728 120.896 234.132 121.007C234.536 121.112 234.894 121.227 235.204 121.35L234.387 123.371C233.725 123.125 233.062 122.932 232.4 122.791C231.744 122.645 231.067 122.571 230.37 122.571C229.884 122.571 229.471 122.609 229.131 122.686C228.797 122.756 228.524 122.853 228.313 122.976C228.103 123.093 227.947 123.23 227.848 123.389C227.754 123.541 227.707 123.702 227.707 123.872C227.707 123.995 227.73 124.106 227.777 124.206C227.83 124.306 227.912 124.394 228.023 124.47C228.141 124.54 228.29 124.596 228.472 124.637C228.659 124.672 228.888 124.689 229.157 124.689C229.403 124.689 229.664 124.675 229.939 124.646C230.215 124.616 230.502 124.587 230.801 124.558C231.1 124.522 231.407 124.49 231.724 124.461C232.046 124.432 232.374 124.417 232.708 124.417C233.329 124.417 233.871 124.49 234.334 124.637C234.803 124.783 235.189 124.988 235.494 125.252C235.799 125.516 236.027 125.826 236.18 126.184C236.332 126.541 236.408 126.931 236.408 127.353C236.408 127.897 236.282 128.404 236.03 128.873C235.778 129.342 235.403 129.749 234.905 130.095C234.407 130.435 233.786 130.701 233.042 130.895C232.304 131.088 231.448 131.185 230.476 131.185C229.878 131.185 229.301 131.146 228.744 131.07C228.188 131 227.657 130.903 227.153 130.78C226.649 130.651 226.175 130.502 225.729 130.332C225.29 130.162 224.889 129.98 224.525 129.787L225.65 127.818ZM238.263 127.73C238.263 127.232 238.371 126.778 238.588 126.368C238.805 125.958 239.13 125.606 239.563 125.313C239.997 125.015 240.536 124.786 241.181 124.628C241.831 124.464 242.587 124.382 243.448 124.382C244.087 124.382 244.758 124.429 245.461 124.522C246.17 124.616 246.899 124.76 247.649 124.953C247.62 124.625 247.521 124.323 247.351 124.048C247.181 123.767 246.943 123.526 246.639 123.327C246.34 123.122 245.977 122.964 245.549 122.853C245.127 122.741 244.646 122.686 244.107 122.686C243.814 122.686 243.492 122.703 243.141 122.738C242.789 122.773 242.426 122.826 242.051 122.896C241.676 122.967 241.304 123.055 240.935 123.16C240.571 123.266 240.231 123.392 239.915 123.538L239.124 121.402C239.517 121.262 239.936 121.133 240.381 121.016C240.832 120.898 241.292 120.799 241.761 120.717C242.229 120.629 242.698 120.562 243.167 120.515C243.636 120.468 244.09 120.444 244.529 120.444C246.469 120.444 247.91 120.939 248.854 121.93C249.797 122.92 250.269 124.438 250.269 126.482V131H247.667V130.024C247.397 130.183 247.102 130.332 246.779 130.473C246.463 130.613 246.117 130.736 245.742 130.842C245.367 130.947 244.963 131.029 244.529 131.088C244.102 131.152 243.647 131.185 243.167 131.185C242.358 131.185 241.646 131.097 241.031 130.921C240.422 130.745 239.912 130.502 239.502 130.191C239.092 129.881 238.781 129.518 238.57 129.102C238.365 128.68 238.263 128.223 238.263 127.73ZM241.005 127.643C241.005 127.812 241.049 127.977 241.137 128.135C241.225 128.287 241.365 128.425 241.559 128.548C241.752 128.665 241.998 128.762 242.297 128.838C242.602 128.908 242.968 128.943 243.396 128.943C243.853 128.943 244.295 128.902 244.723 128.82C245.15 128.738 245.549 128.63 245.918 128.495C246.287 128.36 246.621 128.205 246.92 128.029C247.219 127.854 247.468 127.672 247.667 127.484V127.027C247.269 126.916 246.873 126.822 246.48 126.746C246.094 126.67 245.722 126.611 245.364 126.57C245.013 126.523 244.679 126.491 244.362 126.474C244.052 126.456 243.779 126.447 243.545 126.447C243.059 126.447 242.654 126.479 242.332 126.544C242.01 126.608 241.749 126.696 241.55 126.808C241.351 126.913 241.21 127.039 241.128 127.186C241.046 127.332 241.005 127.484 241.005 127.643ZM253.784 116.419H256.386V131H253.784V116.419ZM259.233 125.779C259.233 125.076 259.377 124.405 259.664 123.767C259.951 123.122 260.364 122.554 260.903 122.062C261.442 121.569 262.102 121.177 262.881 120.884C263.666 120.591 264.557 120.444 265.553 120.444C266.543 120.444 267.434 120.594 268.225 120.893C269.021 121.186 269.695 121.59 270.246 122.105C270.803 122.621 271.228 123.228 271.521 123.925C271.819 124.622 271.969 125.369 271.969 126.166C271.969 126.266 271.966 126.374 271.96 126.491C271.96 126.603 271.954 126.705 271.942 126.799H262.134C262.245 127.109 262.424 127.394 262.67 127.651C262.922 127.909 263.235 128.132 263.61 128.319C263.985 128.507 264.419 128.653 264.911 128.759C265.403 128.858 265.948 128.908 266.546 128.908C267.144 128.908 267.738 128.847 268.33 128.724C268.922 128.595 269.487 128.434 270.026 128.24L270.905 130.227C270.565 130.385 270.22 130.525 269.868 130.648C269.522 130.766 269.159 130.865 268.778 130.947C268.403 131.023 268.008 131.082 267.592 131.123C267.182 131.164 266.748 131.185 266.291 131.185C265.125 131.185 264.103 131.044 263.224 130.763C262.345 130.481 261.609 130.098 261.018 129.611C260.426 129.125 259.98 128.554 259.682 127.897C259.383 127.241 259.233 126.535 259.233 125.779ZM269.209 124.769C269.115 124.481 268.969 124.215 268.77 123.969C268.576 123.717 268.333 123.5 268.04 123.318C267.747 123.131 267.407 122.984 267.021 122.879C266.634 122.773 266.209 122.721 265.746 122.721C265.254 122.721 264.806 122.776 264.401 122.888C263.997 122.999 263.643 123.148 263.338 123.336C263.033 123.523 262.778 123.74 262.573 123.986C262.374 124.232 262.228 124.493 262.134 124.769H269.209Z" fill="white"/>
<defs>
<filter id="filter0_bd_2_1060" x="-95" y="-98.9951" width="599" height="445.495" filterUnits="userSpaceOnUse" color-interpolation-filters="sRGB">
<feFlood flood-opacity="0" result="BackgroundImageFix"/>
<feGaussianBlur in="BackgroundImage" stdDeviation="96"/>
<feComposite in2="SourceAlpha" operator="in" result="effect1_backgroundBlur_2_1060"/>
<feColorMatrix in="SourceAlpha" type="matrix" values="0 0 0 0 0 0 0 0 0 0 0 0 0 0 0 0 0 0 127 0" result="hardAlpha"/>
<feOffset dy="4"/>
<feGaussianBlur stdDeviation="48.5"/>
<feComposite in2="hardAlpha" operator="out"/>
<feColorMatrix type="matrix" values="0 0 0 0 1 0 0 0 0 0.337255 0 0 0 0 0.964706 0 0 0 0.51 0"/>
<feBlend mode="normal" in2="effect1_backgroundBlur_2_1060" result="effect2_dropShadow_2_1060"/>
<feBlend mode="normal" in="SourceGraphic" in2="effect2_dropShadow_2_1060" result="shape"/>
</filter>
<linearGradient id="paint0_linear_2_1060" x1="97" y1="94" x2="353.525" y2="129.472" gradientUnits="userSpaceOnUse">
<stop offset="0.183111" stop-color="#FF56F6"/>
<stop offset="0.432593" stop-color="#B936EE"/>
<stop offset="0.854443" stop-color="#3BACE2"/>
<stop offset="1" stop-color="#406AFF"/>
</linearGradient>
</defs>
</svg>
