<svg width="30" height="35" viewBox="0 0 30 35" fill="none" xmlns="http://www.w3.org/2000/svg">
<path d="M11.5 5.61245C11.5 7.07532 11.0259 8.47828 10.182 9.51268C9.33807 10.5471 8.19347 11.1282 7 11.1282C5.80653 11.1282 4.66193 10.5471 3.81802 9.51268C2.97411 8.47828 2.5 7.07532 2.5 5.61245C2.5 4.14958 2.97411 2.74662 3.81802 1.71221C4.66193 0.677804 5.80653 0.0966797 7 0.0966797C8.19347 0.0966797 9.33807 0.677804 10.182 1.71221C11.0259 2.74662 11.5 4.14958 11.5 5.61245ZM2 12.3539C1.46957 12.3539 0.96086 12.6122 0.585787 13.072C0.210714 13.5317 0 14.1552 0 14.8054V25.8369C0 28.1125 0.737498 30.2949 2.05025 31.904C3.36301 33.513 5.14348 34.417 7 34.417C8.85651 34.417 10.637 33.513 11.9497 31.904C13.2625 30.2949 14 28.1125 14 25.8369V14.8054C14 14.1552 13.7893 13.5317 13.4142 13.072C13.0391 12.6122 12.5304 12.3539 12 12.3539H2ZM13.5 5.61245C13.5 7.20589 13.12 8.68902 12.46 9.93436C13.286 10.052 14.034 10.4737 14.628 11.1111C15.3503 11.1842 16.0763 11.0425 16.7443 10.6978C17.4124 10.3532 18.0026 9.81593 18.4648 9.13166C18.927 8.4474 19.2475 7.63641 19.3991 6.76769C19.5507 5.89897 19.5289 4.99823 19.3355 4.14208C19.1421 3.28593 18.7828 2.49971 18.2882 1.8503C17.7937 1.20089 17.1785 0.707501 16.495 0.412111C15.8114 0.11672 15.0798 0.0280661 14.3623 0.15369C13.6448 0.279313 12.9627 0.615497 12.374 1.13364C13.084 2.4084 13.5 3.95281 13.5 5.61245ZM13 34.0616C13.9451 33.0277 14.7011 31.7603 15.2181 30.3428C15.7352 28.9253 16.0016 27.3897 16 25.8369V14.8054C16.0009 13.9446 15.816 13.0988 15.464 12.3539H20C20.5304 12.3539 21.0391 12.6122 21.4142 13.072C21.7893 13.5317 22 14.1552 22 14.8054V25.8369C22.0003 27.1735 21.7458 28.4916 21.2569 29.6862C20.768 30.8809 20.0582 31.919 19.184 32.7178C18.3098 33.5167 17.2955 34.0542 16.2219 34.2875C15.1482 34.5208 14.0449 34.4434 13 34.0616ZM21.5 5.61245C21.5 7.20589 21.12 8.68902 20.46 9.93436C21.286 10.052 22.034 10.4737 22.628 11.1111C23.3503 11.1842 24.0763 11.0425 24.7443 10.6978C25.4124 10.3532 26.0026 9.81593 26.4648 9.13166C26.927 8.4474 27.2475 7.63641 27.3991 6.76769C27.5507 5.89897 27.5289 4.99823 27.3355 4.14208C27.142 3.28593 26.7828 2.49971 26.2882 1.8503C25.7937 1.20089 25.1785 0.707501 24.495 0.412111C23.8114 0.11672 23.0798 0.0280661 22.3623 0.15369C21.6448 0.279313 20.9627 0.615497 20.374 1.13364C21.084 2.4084 21.5 3.95281 21.5 5.61245ZM21 34.0616C21.9451 33.0277 22.7011 31.7603 23.2181 30.3428C23.7352 28.9253 24.0016 27.3897 24 25.8369V14.8054C24.0009 13.9446 23.816 13.0988 23.464 12.3539H28C28.5304 12.3539 29.0391 12.6122 29.4142 13.072C29.7893 13.5317 30 14.1552 30 14.8054V25.8369C30.0003 27.1735 29.7458 28.4916 29.2569 29.6862C28.768 30.8809 28.0582 31.919 27.184 32.7178C26.3098 33.5167 25.2955 34.0542 24.2219 34.2875C23.1482 34.5208 22.0449 34.4434 21 34.0616Z" fill="white"/>
</svg>
