<svg width="26" height="35" viewBox="0 0 26 35" fill="none" xmlns="http://www.w3.org/2000/svg">
<path d="M7.08116 34.4192C0.934637 30.4559 -0.683614 26.7046 0.241586 21.5811C0.924611 17.7979 3.16114 14.7199 3.37559 10.9439C4.33096 12.933 4.73016 14.3673 4.83691 16.4459C7.87549 12.1867 9.88344 6.29035 10.0023 0.0966797C10.0023 0.0966797 17.9167 5.41696 18.436 13.4533C19.1174 11.7969 19.4603 9.16607 18.779 7.46104C20.8229 9.16615 32.7863 24.303 17.1586 34.4192C20.0967 27.874 17.9166 19.0424 12.8151 14.9635C13.1558 16.7174 12.5585 23.2588 10.3015 26.1331C10.9269 21.3303 9.70654 19.2995 9.70654 19.2995C9.70654 19.2995 9.28769 21.9897 7.66259 24.7072C6.17859 27.1888 5.15034 29.8226 7.08116 34.4192Z" fill="white"/>
</svg>
