<svg width="22" height="25" viewBox="0 0 22 25" fill="none" xmlns="http://www.w3.org/2000/svg">
<path d="M4.25002 3.09667C4.25081 2.30154 4.56723 1.53925 5.12976 0.977289C5.69228 0.415328 6.45489 0.09967 7.25002 0.0996704H14.75C15.5451 0.09967 16.3078 0.415328 16.8703 0.977289C17.4328 1.53925 17.7492 2.30154 17.75 3.09667H19.244C19.8408 3.09667 20.4131 3.33372 20.835 3.75568C21.257 4.17764 21.494 4.74993 21.494 5.34667V7.60417C21.4941 8.69346 21.0985 9.7457 20.3808 10.5652C19.6632 11.3846 18.6723 11.9156 17.5925 12.0592C17.2869 13.4333 16.5597 14.6776 15.5125 15.6183C14.4653 16.559 13.1504 17.1491 11.7515 17.3062V19.5487H14.756C15.5517 19.5487 16.3147 19.8647 16.8773 20.4273C17.4399 20.99 17.756 21.753 17.756 22.5487V23.2987C17.756 23.4976 17.677 23.6883 17.5363 23.829C17.3957 23.9697 17.2049 24.0487 17.006 24.0487H5.00602C4.80711 24.0487 4.61634 23.9697 4.47569 23.829C4.33504 23.6883 4.25602 23.4976 4.25602 23.2987V22.5487C4.25602 21.753 4.57209 20.99 5.1347 20.4273C5.69731 19.8647 6.46037 19.5487 7.25602 19.5487H10.2515V17.3062C8.85168 17.1493 7.53591 16.5588 6.4883 15.6171C5.4407 14.6755 4.7137 13.4299 4.40902 12.0547C3.32705 11.9109 2.33397 11.3795 1.61402 10.5592C0.89407 9.7388 0.496126 8.68514 0.494019 7.59367V5.34667C0.494019 4.74993 0.731072 4.17764 1.15303 3.75568C1.57499 3.33372 2.14728 3.09667 2.74402 3.09667H4.25152H4.25002ZM17.75 10.5022C18.3923 10.336 18.9611 9.96121 19.3673 9.43667C19.7735 8.91214 19.9939 8.26757 19.994 7.60417V5.34667C19.994 5.14776 19.915 4.95699 19.7743 4.81634C19.6337 4.67569 19.4429 4.59667 19.244 4.59667H17.7515V10.5022H17.75ZM4.25002 4.59667H2.74552C2.54661 4.59667 2.35584 4.67569 2.21519 4.81634C2.07454 4.95699 1.99552 5.14776 1.99552 5.34667V7.59367C1.99552 8.98867 2.95552 10.1632 4.25302 10.4977V4.59667H4.25002Z" fill="white"/>
</svg>
