<svg width="237" height="96" viewBox="0 0 237 96" fill="none" xmlns="http://www.w3.org/2000/svg">
<g filter="url(#filter0_d_2_1212)">
<path d="M5 17.7193L12.2314 13.0402C15.1506 11.1512 18.8416 10.9143 21.9784 12.4145L28.0216 15.3048C31.1584 16.805 34.8494 16.5681 37.7686 14.6791L45 10" stroke="white" stroke-width="2"/>
<line x1="8.01818" y1="41.0002" x2="48.0116" y2="41.7273" stroke="white" stroke-width="2"/>
<path d="M20 63.833L28 73.4997L20 83.1663" stroke="white" stroke-width="2" stroke-linecap="round" stroke-linejoin="round"/>
<path d="M71.1016 2.78906H73.8438L77.6797 12.1016L81.5156 2.78906H84.2578L78.9062 15H76.4531L71.1016 2.78906ZM85.25 10.3906C85.25 9.72917 85.3828 9.10938 85.6484 8.53125C85.9193 7.95312 86.3021 7.44792 86.7969 7.01562C87.2969 6.58333 87.8984 6.24219 88.6016 5.99219C89.3099 5.74219 90.1042 5.61719 90.9844 5.61719C91.8646 5.61719 92.6562 5.74219 93.3594 5.99219C94.0677 6.24219 94.6693 6.58333 95.1641 7.01562C95.6641 7.44792 96.0469 7.95312 96.3125 8.53125C96.5833 9.10938 96.7188 9.72917 96.7188 10.3906C96.7188 11.0521 96.5833 11.6719 96.3125 12.25C96.0469 12.8281 95.6641 13.3333 95.1641 13.7656C94.6693 14.1979 94.0677 14.5391 93.3594 14.7891C92.6562 15.0391 91.8646 15.1641 90.9844 15.1641C90.1042 15.1641 89.3099 15.0391 88.6016 14.7891C87.8984 14.5391 87.2969 14.1979 86.7969 13.7656C86.3021 13.3333 85.9193 12.8281 85.6484 12.25C85.3828 11.6719 85.25 11.0521 85.25 10.3906ZM87.6797 10.3906C87.6797 10.7604 87.7526 11.112 87.8984 11.4453C88.0495 11.7734 88.2656 12.0651 88.5469 12.3203C88.8333 12.5703 89.1797 12.7708 89.5859 12.9219C89.9974 13.0677 90.4635 13.1406 90.9844 13.1406C91.5052 13.1406 91.9688 13.0677 92.375 12.9219C92.7865 12.7708 93.1328 12.5703 93.4141 12.3203C93.7005 12.0651 93.9167 11.7734 94.0625 11.4453C94.2135 11.112 94.2891 10.7604 94.2891 10.3906C94.2891 10.0208 94.2135 9.66927 94.0625 9.33594C93.9167 9.0026 93.7005 8.71094 93.4141 8.46094C93.1328 8.20573 92.7865 8.00521 92.375 7.85938C91.9688 7.70833 91.5052 7.63281 90.9844 7.63281C90.4635 7.63281 89.9974 7.70833 89.5859 7.85938C89.1797 8.00521 88.8333 8.20573 88.5469 8.46094C88.2656 8.71094 88.0495 9.0026 87.8984 9.33594C87.7526 9.66927 87.6797 10.0208 87.6797 10.3906ZM100.273 4.52344C100.044 4.52344 99.8359 4.49219 99.6484 4.42969C99.4661 4.36198 99.3099 4.27344 99.1797 4.16406C99.0495 4.04948 98.9479 3.91927 98.875 3.77344C98.8073 3.6224 98.7734 3.46354 98.7734 3.29688C98.7734 3.125 98.8073 2.96615 98.875 2.82031C98.9479 2.66927 99.0495 2.53906 99.1797 2.42969C99.3099 2.32031 99.4661 2.23438 99.6484 2.17188C99.8359 2.10417 100.044 2.07031 100.273 2.07031C100.508 2.07031 100.716 2.10417 100.898 2.17188C101.086 2.23438 101.245 2.32031 101.375 2.42969C101.505 2.53906 101.604 2.66927 101.672 2.82031C101.745 2.96615 101.781 3.125 101.781 3.29688C101.781 3.46354 101.745 3.6224 101.672 3.77344C101.604 3.91927 101.505 4.04948 101.375 4.16406C101.245 4.27344 101.086 4.36198 100.898 4.42969C100.716 4.49219 100.508 4.52344 100.273 4.52344ZM99.1172 5.78125H101.43V15H99.1172V5.78125ZM103.844 10.4141C103.844 9.73698 103.966 9.10677 104.211 8.52344C104.461 7.9349 104.823 7.42708 105.297 7C105.776 6.56771 106.359 6.22917 107.047 5.98438C107.74 5.73958 108.529 5.61719 109.414 5.61719C109.799 5.61719 110.188 5.64062 110.578 5.6875C110.969 5.73438 111.344 5.80208 111.703 5.89062C112.068 5.97396 112.409 6.07552 112.727 6.19531C113.044 6.3099 113.32 6.4375 113.555 6.57812L112.484 8.32031C111.979 8.08594 111.5 7.91406 111.047 7.80469C110.599 7.69531 110.143 7.64062 109.68 7.64062C109.148 7.64062 108.672 7.71094 108.25 7.85156C107.828 7.98698 107.469 8.17969 107.172 8.42969C106.88 8.67448 106.656 8.96615 106.5 9.30469C106.349 9.63802 106.273 10.0026 106.273 10.3984C106.273 10.7943 106.354 11.1615 106.516 11.5C106.682 11.8333 106.914 12.1224 107.211 12.3672C107.513 12.6068 107.875 12.7969 108.297 12.9375C108.724 13.0729 109.198 13.1406 109.719 13.1406C110.292 13.1406 110.831 13.0599 111.336 12.8984C111.846 12.737 112.32 12.5208 112.758 12.25L113.828 13.9922C113.552 14.1589 113.253 14.3151 112.93 14.4609C112.607 14.6016 112.26 14.724 111.891 14.8281C111.526 14.9323 111.141 15.013 110.734 15.0703C110.333 15.1328 109.917 15.1641 109.484 15.1641C108.604 15.1641 107.815 15.0443 107.117 14.8047C106.419 14.5651 105.828 14.2344 105.344 13.8125C104.859 13.3854 104.487 12.8828 104.227 12.3047C103.971 11.7266 103.844 11.0964 103.844 10.4141ZM115.883 10.3594C115.883 9.73438 116.01 9.13802 116.266 8.57031C116.521 7.9974 116.888 7.49219 117.367 7.05469C117.846 6.61719 118.432 6.26823 119.125 6.00781C119.823 5.7474 120.615 5.61719 121.5 5.61719C122.38 5.61719 123.172 5.75 123.875 6.01562C124.583 6.27604 125.182 6.63542 125.672 7.09375C126.167 7.55208 126.544 8.09115 126.805 8.71094C127.07 9.33073 127.203 9.99479 127.203 10.7031C127.203 10.7917 127.201 10.888 127.195 10.9922C127.195 11.0911 127.19 11.1823 127.18 11.2656H118.461C118.56 11.5417 118.719 11.7943 118.938 12.0234C119.161 12.2526 119.44 12.4505 119.773 12.6172C120.107 12.7839 120.492 12.9141 120.93 13.0078C121.367 13.0964 121.852 13.1406 122.383 13.1406C122.914 13.1406 123.443 13.0859 123.969 12.9766C124.495 12.862 124.997 12.7188 125.477 12.5469L126.258 14.3125C125.956 14.4531 125.648 14.5781 125.336 14.6875C125.029 14.7917 124.706 14.8802 124.367 14.9531C124.034 15.0208 123.682 15.0729 123.312 15.1094C122.948 15.1458 122.562 15.1641 122.156 15.1641C121.12 15.1641 120.211 15.0391 119.43 14.7891C118.648 14.5391 117.995 14.1979 117.469 13.7656C116.943 13.3333 116.547 12.8255 116.281 12.2422C116.016 11.6589 115.883 11.0312 115.883 10.3594ZM124.75 9.46094C124.667 9.20573 124.536 8.96875 124.359 8.75C124.188 8.52604 123.971 8.33333 123.711 8.17188C123.451 8.00521 123.148 7.875 122.805 7.78125C122.461 7.6875 122.083 7.64062 121.672 7.64062C121.234 7.64062 120.836 7.6901 120.477 7.78906C120.117 7.88802 119.802 8.02083 119.531 8.1875C119.26 8.35417 119.034 8.54688 118.852 8.76562C118.674 8.98438 118.544 9.21615 118.461 9.46094H124.75ZM136.016 7.51562H134.438V5.78125H136.016C136.016 5.15625 136.104 4.60156 136.281 4.11719C136.458 3.6276 136.714 3.21615 137.047 2.88281C137.385 2.54427 137.794 2.28646 138.273 2.10938C138.758 1.93229 139.302 1.84375 139.906 1.84375C140.328 1.84375 140.742 1.88542 141.148 1.96875C141.555 2.04688 141.914 2.16146 142.227 2.3125L141.406 4.25781C141.281 4.1849 141.104 4.11719 140.875 4.05469C140.651 3.99219 140.404 3.96094 140.133 3.96094C139.602 3.96094 139.172 4.11198 138.844 4.41406C138.521 4.71094 138.349 5.16667 138.328 5.78125H141.242V7.51562H138.328V15H136.016V7.51562ZM142.586 10.3594C142.586 9.73438 142.714 9.13802 142.969 8.57031C143.224 7.9974 143.591 7.49219 144.07 7.05469C144.549 6.61719 145.135 6.26823 145.828 6.00781C146.526 5.7474 147.318 5.61719 148.203 5.61719C149.083 5.61719 149.875 5.75 150.578 6.01562C151.286 6.27604 151.885 6.63542 152.375 7.09375C152.87 7.55208 153.247 8.09115 153.508 8.71094C153.773 9.33073 153.906 9.99479 153.906 10.7031C153.906 10.7917 153.904 10.888 153.898 10.9922C153.898 11.0911 153.893 11.1823 153.883 11.2656H145.164C145.263 11.5417 145.422 11.7943 145.641 12.0234C145.865 12.2526 146.143 12.4505 146.477 12.6172C146.81 12.7839 147.195 12.9141 147.633 13.0078C148.07 13.0964 148.555 13.1406 149.086 13.1406C149.617 13.1406 150.146 13.0859 150.672 12.9766C151.198 12.862 151.701 12.7188 152.18 12.5469L152.961 14.3125C152.659 14.4531 152.352 14.5781 152.039 14.6875C151.732 14.7917 151.409 14.8802 151.07 14.9531C150.737 15.0208 150.385 15.0729 150.016 15.1094C149.651 15.1458 149.266 15.1641 148.859 15.1641C147.823 15.1641 146.914 15.0391 146.133 14.7891C145.352 14.5391 144.698 14.1979 144.172 13.7656C143.646 13.3333 143.25 12.8255 142.984 12.2422C142.719 11.6589 142.586 11.0312 142.586 10.3594ZM151.453 9.46094C151.37 9.20573 151.24 8.96875 151.062 8.75C150.891 8.52604 150.674 8.33333 150.414 8.17188C150.154 8.00521 149.852 7.875 149.508 7.78125C149.164 7.6875 148.786 7.64062 148.375 7.64062C147.938 7.64062 147.539 7.6901 147.18 7.78906C146.82 7.88802 146.505 8.02083 146.234 8.1875C145.964 8.35417 145.737 8.54688 145.555 8.76562C145.378 8.98438 145.247 9.21615 145.164 9.46094H151.453ZM155.961 10.3594C155.961 9.73438 156.089 9.13802 156.344 8.57031C156.599 7.9974 156.966 7.49219 157.445 7.05469C157.924 6.61719 158.51 6.26823 159.203 6.00781C159.901 5.7474 160.693 5.61719 161.578 5.61719C162.458 5.61719 163.25 5.75 163.953 6.01562C164.661 6.27604 165.26 6.63542 165.75 7.09375C166.245 7.55208 166.622 8.09115 166.883 8.71094C167.148 9.33073 167.281 9.99479 167.281 10.7031C167.281 10.7917 167.279 10.888 167.273 10.9922C167.273 11.0911 167.268 11.1823 167.258 11.2656H158.539C158.638 11.5417 158.797 11.7943 159.016 12.0234C159.24 12.2526 159.518 12.4505 159.852 12.6172C160.185 12.7839 160.57 12.9141 161.008 13.0078C161.445 13.0964 161.93 13.1406 162.461 13.1406C162.992 13.1406 163.521 13.0859 164.047 12.9766C164.573 12.862 165.076 12.7188 165.555 12.5469L166.336 14.3125C166.034 14.4531 165.727 14.5781 165.414 14.6875C165.107 14.7917 164.784 14.8802 164.445 14.9531C164.112 15.0208 163.76 15.0729 163.391 15.1094C163.026 15.1458 162.641 15.1641 162.234 15.1641C161.198 15.1641 160.289 15.0391 159.508 14.7891C158.727 14.5391 158.073 14.1979 157.547 13.7656C157.021 13.3333 156.625 12.8255 156.359 12.2422C156.094 11.6589 155.961 11.0312 155.961 10.3594ZM164.828 9.46094C164.745 9.20573 164.615 8.96875 164.438 8.75C164.266 8.52604 164.049 8.33333 163.789 8.17188C163.529 8.00521 163.227 7.875 162.883 7.78125C162.539 7.6875 162.161 7.64062 161.75 7.64062C161.312 7.64062 160.914 7.6901 160.555 7.78906C160.195 7.88802 159.88 8.02083 159.609 8.1875C159.339 8.35417 159.112 8.54688 158.93 8.76562C158.753 8.98438 158.622 9.21615 158.539 9.46094H164.828ZM169.062 10.4297C169.062 9.69531 169.201 9.03385 169.477 8.44531C169.753 7.85156 170.133 7.34635 170.617 6.92969C171.107 6.50781 171.685 6.1849 172.352 5.96094C173.023 5.73177 173.75 5.61719 174.531 5.61719C174.865 5.61719 175.193 5.63802 175.516 5.67969C175.844 5.72135 176.156 5.77865 176.453 5.85156C176.755 5.92448 177.036 6.01302 177.297 6.11719C177.562 6.21615 177.797 6.32552 178 6.44531V2.03906H180.312V15H178V14.1328C177.797 14.2734 177.557 14.4062 177.281 14.5312C177.005 14.6562 176.708 14.7656 176.391 14.8594C176.073 14.9531 175.742 15.026 175.398 15.0781C175.06 15.1354 174.724 15.1641 174.391 15.1641C173.609 15.1641 172.891 15.0495 172.234 14.8203C171.583 14.5911 171.023 14.2682 170.555 13.8516C170.086 13.4349 169.719 12.9375 169.453 12.3594C169.193 11.776 169.062 11.1328 169.062 10.4297ZM171.492 10.4297C171.492 10.7995 171.565 11.1484 171.711 11.4766C171.862 11.8047 172.076 12.0938 172.352 12.3438C172.633 12.5885 172.969 12.7839 173.359 12.9297C173.755 13.0703 174.198 13.1406 174.688 13.1406C175 13.1406 175.312 13.112 175.625 13.0547C175.938 12.9922 176.237 12.9062 176.523 12.7969C176.815 12.6875 177.086 12.5547 177.336 12.3984C177.591 12.2422 177.812 12.0677 178 11.875V8.67969C177.766 8.49219 177.518 8.33333 177.258 8.20312C176.997 8.07292 176.732 7.96615 176.461 7.88281C176.19 7.79948 175.917 7.73958 175.641 7.70312C175.365 7.66146 175.096 7.64062 174.836 7.64062C174.305 7.64062 173.831 7.71354 173.414 7.85938C173.003 8 172.654 8.19531 172.367 8.44531C172.086 8.69531 171.87 8.98958 171.719 9.32812C171.568 9.66667 171.492 10.0339 171.492 10.4297ZM183.086 2.03906H185.398V6.64844C185.602 6.50781 185.841 6.375 186.117 6.25C186.393 6.125 186.69 6.01562 187.008 5.92188C187.326 5.82812 187.654 5.75521 187.992 5.70312C188.331 5.64583 188.669 5.61719 189.008 5.61719C189.789 5.61719 190.505 5.73177 191.156 5.96094C191.812 6.1901 192.375 6.51302 192.844 6.92969C193.312 7.34635 193.677 7.84635 193.938 8.42969C194.203 9.00781 194.336 9.64844 194.336 10.3516C194.336 11.0859 194.198 11.75 193.922 12.3438C193.646 12.9323 193.263 13.4375 192.773 13.8594C192.289 14.276 191.711 14.599 191.039 14.8281C190.372 15.0521 189.648 15.1641 188.867 15.1641C188.534 15.1641 188.203 15.1432 187.875 15.1016C187.552 15.0599 187.24 15.0026 186.938 14.9297C186.641 14.8568 186.359 14.7708 186.094 14.6719C185.833 14.5677 185.602 14.4557 185.398 14.3359V15H183.086V2.03906ZM185.398 12.1016C185.633 12.2891 185.88 12.4479 186.141 12.5781C186.401 12.7083 186.667 12.8151 186.938 12.8984C187.208 12.9818 187.482 13.0443 187.758 13.0859C188.034 13.1224 188.302 13.1406 188.562 13.1406C189.094 13.1406 189.565 13.0703 189.977 12.9297C190.393 12.7839 190.742 12.5859 191.023 12.3359C191.31 12.0859 191.529 11.7917 191.68 11.4531C191.831 11.1146 191.906 10.7474 191.906 10.3516C191.906 9.98177 191.831 9.63281 191.68 9.30469C191.534 8.97656 191.32 8.6901 191.039 8.44531C190.763 8.19531 190.427 8 190.031 7.85938C189.641 7.71354 189.201 7.64062 188.711 7.64062C188.398 7.64062 188.086 7.67188 187.773 7.73438C187.461 7.79167 187.159 7.875 186.867 7.98438C186.581 8.09375 186.31 8.22656 186.055 8.38281C185.805 8.53906 185.586 8.71354 185.398 8.90625V12.1016ZM196.039 12.0938C196.039 11.651 196.135 11.2474 196.328 10.8828C196.521 10.5182 196.81 10.2057 197.195 9.94531C197.581 9.67969 198.06 9.47656 198.633 9.33594C199.211 9.1901 199.883 9.11719 200.648 9.11719C201.216 9.11719 201.812 9.15885 202.438 9.24219C203.068 9.32552 203.716 9.45312 204.383 9.625C204.357 9.33333 204.268 9.0651 204.117 8.82031C203.966 8.57031 203.755 8.35677 203.484 8.17969C203.219 7.9974 202.896 7.85677 202.516 7.75781C202.141 7.65885 201.714 7.60938 201.234 7.60938C200.974 7.60938 200.688 7.625 200.375 7.65625C200.062 7.6875 199.74 7.73438 199.406 7.79688C199.073 7.85938 198.742 7.9375 198.414 8.03125C198.091 8.125 197.789 8.23698 197.508 8.36719L196.805 6.46875C197.154 6.34375 197.526 6.22917 197.922 6.125C198.323 6.02083 198.732 5.93229 199.148 5.85938C199.565 5.78125 199.982 5.72135 200.398 5.67969C200.815 5.63802 201.219 5.61719 201.609 5.61719C203.333 5.61719 204.615 6.05729 205.453 6.9375C206.292 7.81771 206.711 9.16667 206.711 10.9844V15H204.398V14.1328C204.159 14.2734 203.896 14.4062 203.609 14.5312C203.328 14.6562 203.021 14.7656 202.688 14.8594C202.354 14.9531 201.995 15.026 201.609 15.0781C201.229 15.1354 200.826 15.1641 200.398 15.1641C199.68 15.1641 199.047 15.0859 198.5 14.9297C197.958 14.7734 197.505 14.5573 197.141 14.2812C196.776 14.0052 196.5 13.6823 196.312 13.3125C196.13 12.9375 196.039 12.5312 196.039 12.0938ZM198.477 12.0156C198.477 12.1667 198.516 12.3125 198.594 12.4531C198.672 12.5885 198.797 12.7109 198.969 12.8203C199.141 12.9245 199.359 13.0104 199.625 13.0781C199.896 13.1406 200.221 13.1719 200.602 13.1719C201.008 13.1719 201.401 13.1354 201.781 13.0625C202.161 12.9896 202.516 12.8932 202.844 12.7734C203.172 12.6536 203.469 12.5156 203.734 12.3594C204 12.2031 204.221 12.0417 204.398 11.875V11.4688C204.044 11.3698 203.693 11.2865 203.344 11.2188C203 11.151 202.669 11.099 202.352 11.0625C202.039 11.0208 201.742 10.9922 201.461 10.9766C201.185 10.9609 200.943 10.9531 200.734 10.9531C200.302 10.9531 199.943 10.9818 199.656 11.0391C199.37 11.0964 199.138 11.1745 198.961 11.2734C198.784 11.3672 198.659 11.4792 198.586 11.6094C198.513 11.7396 198.477 11.875 198.477 12.0156ZM209.219 10.4141C209.219 9.73698 209.341 9.10677 209.586 8.52344C209.836 7.9349 210.198 7.42708 210.672 7C211.151 6.56771 211.734 6.22917 212.422 5.98438C213.115 5.73958 213.904 5.61719 214.789 5.61719C215.174 5.61719 215.562 5.64062 215.953 5.6875C216.344 5.73438 216.719 5.80208 217.078 5.89062C217.443 5.97396 217.784 6.07552 218.102 6.19531C218.419 6.3099 218.695 6.4375 218.93 6.57812L217.859 8.32031C217.354 8.08594 216.875 7.91406 216.422 7.80469C215.974 7.69531 215.518 7.64062 215.055 7.64062C214.523 7.64062 214.047 7.71094 213.625 7.85156C213.203 7.98698 212.844 8.17969 212.547 8.42969C212.255 8.67448 212.031 8.96615 211.875 9.30469C211.724 9.63802 211.648 10.0026 211.648 10.3984C211.648 10.7943 211.729 11.1615 211.891 11.5C212.057 11.8333 212.289 12.1224 212.586 12.3672C212.888 12.6068 213.25 12.7969 213.672 12.9375C214.099 13.0729 214.573 13.1406 215.094 13.1406C215.667 13.1406 216.206 13.0599 216.711 12.8984C217.221 12.737 217.695 12.5208 218.133 12.25L219.203 13.9922C218.927 14.1589 218.628 14.3151 218.305 14.4609C217.982 14.6016 217.635 14.724 217.266 14.8281C216.901 14.9323 216.516 15.013 216.109 15.0703C215.708 15.1328 215.292 15.1641 214.859 15.1641C213.979 15.1641 213.19 15.0443 212.492 14.8047C211.794 14.5651 211.203 14.2344 210.719 13.8125C210.234 13.3854 209.862 12.8828 209.602 12.3047C209.346 11.7266 209.219 11.0964 209.219 10.4141ZM221.703 2.03906H224.016V9.69531L228.328 5.78125H231.867L227.047 10.0938L232.172 15H228.703L225.273 11.6797L224.016 12.8047V15H221.703V2.03906Z" fill="white"/>
<path d="M76.8984 34.7891H79.5234L85.4297 47H82.8281L81.8516 44.9453H74.7188L73.7734 47H71.1641L76.8984 34.7891ZM80.875 42.9062L78.2344 37.3594L75.6641 42.9062H80.875ZM87.0391 37.7812H89.3516V38.5625C89.9661 38.2135 90.5521 37.9688 91.1094 37.8281C91.6719 37.6875 92.2214 37.6172 92.7578 37.6172C93.4609 37.6172 94.112 37.7214 94.7109 37.9297C95.3099 38.1328 95.8281 38.4375 96.2656 38.8438C96.7031 39.25 97.0443 39.7578 97.2891 40.3672C97.5391 40.9714 97.6641 41.6719 97.6641 42.4688V47H95.3594V42.8438C95.3594 42.3385 95.2865 41.888 95.1406 41.4922C95 41.0911 94.7943 40.7552 94.5234 40.4844C94.2578 40.2083 93.9323 40 93.5469 39.8594C93.1667 39.7135 92.7396 39.6406 92.2656 39.6406C92.0156 39.6406 91.7578 39.6667 91.4922 39.7188C91.2318 39.7708 90.974 39.8464 90.7188 39.9453C90.4688 40.0391 90.2266 40.1589 89.9922 40.3047C89.7578 40.4453 89.5443 40.6068 89.3516 40.7891V47H87.0391V37.7812ZM100.07 44.0938C100.07 43.651 100.167 43.2474 100.359 42.8828C100.552 42.5182 100.841 42.2057 101.227 41.9453C101.612 41.6797 102.091 41.4766 102.664 41.3359C103.242 41.1901 103.914 41.1172 104.68 41.1172C105.247 41.1172 105.844 41.1589 106.469 41.2422C107.099 41.3255 107.747 41.4531 108.414 41.625C108.388 41.3333 108.299 41.0651 108.148 40.8203C107.997 40.5703 107.786 40.3568 107.516 40.1797C107.25 39.9974 106.927 39.8568 106.547 39.7578C106.172 39.6589 105.745 39.6094 105.266 39.6094C105.005 39.6094 104.719 39.625 104.406 39.6562C104.094 39.6875 103.771 39.7344 103.438 39.7969C103.104 39.8594 102.773 39.9375 102.445 40.0312C102.122 40.125 101.82 40.237 101.539 40.3672L100.836 38.4688C101.185 38.3438 101.557 38.2292 101.953 38.125C102.354 38.0208 102.763 37.9323 103.18 37.8594C103.596 37.7812 104.013 37.7214 104.43 37.6797C104.846 37.638 105.25 37.6172 105.641 37.6172C107.365 37.6172 108.646 38.0573 109.484 38.9375C110.323 39.8177 110.742 41.1667 110.742 42.9844V47H108.43V46.1328C108.19 46.2734 107.927 46.4062 107.641 46.5312C107.359 46.6562 107.052 46.7656 106.719 46.8594C106.385 46.9531 106.026 47.026 105.641 47.0781C105.26 47.1354 104.857 47.1641 104.43 47.1641C103.711 47.1641 103.078 47.0859 102.531 46.9297C101.99 46.7734 101.536 46.5573 101.172 46.2812C100.807 46.0052 100.531 45.6823 100.344 45.3125C100.161 44.9375 100.07 44.5312 100.07 44.0938ZM102.508 44.0156C102.508 44.1667 102.547 44.3125 102.625 44.4531C102.703 44.5885 102.828 44.7109 103 44.8203C103.172 44.9245 103.391 45.0104 103.656 45.0781C103.927 45.1406 104.253 45.1719 104.633 45.1719C105.039 45.1719 105.432 45.1354 105.812 45.0625C106.193 44.9896 106.547 44.8932 106.875 44.7734C107.203 44.6536 107.5 44.5156 107.766 44.3594C108.031 44.2031 108.253 44.0417 108.43 43.875V43.4688C108.076 43.3698 107.724 43.2865 107.375 43.2188C107.031 43.151 106.701 43.099 106.383 43.0625C106.07 43.0208 105.773 42.9922 105.492 42.9766C105.216 42.9609 104.974 42.9531 104.766 42.9531C104.333 42.9531 103.974 42.9818 103.688 43.0391C103.401 43.0964 103.169 43.1745 102.992 43.2734C102.815 43.3672 102.69 43.4792 102.617 43.6094C102.544 43.7396 102.508 43.875 102.508 44.0156ZM113.867 34.0391H116.18V47H113.867V34.0391ZM120.25 48.1562C120.49 48.3125 120.75 48.4505 121.031 48.5703C121.312 48.6901 121.604 48.7891 121.906 48.8672C122.214 48.9453 122.526 49.0026 122.844 49.0391C123.161 49.0807 123.477 49.1016 123.789 49.1016C124.852 49.1016 125.669 48.8724 126.242 48.4141C126.82 47.9609 127.109 47.2786 127.109 46.3672V46.0547C126.906 46.1953 126.677 46.3255 126.422 46.4453C126.172 46.5599 125.901 46.6589 125.609 46.7422C125.323 46.8255 125.018 46.8906 124.695 46.9375C124.378 46.9792 124.055 47 123.727 47C123.023 47 122.393 46.8984 121.836 46.6953C121.284 46.487 120.815 46.1849 120.43 45.7891C120.049 45.388 119.758 44.8958 119.555 44.3125C119.352 43.7292 119.25 43.0625 119.25 42.3125V37.7812H121.555V41.6719C121.555 42.7865 121.766 43.6094 122.188 44.1406C122.615 44.6667 123.286 44.9297 124.203 44.9297C124.849 44.9297 125.419 44.8177 125.914 44.5938C126.414 44.3646 126.812 44.0729 127.109 43.7188V37.7812H129.422V45.9453C129.422 46.8255 129.297 47.5885 129.047 48.2344C128.797 48.8854 128.432 49.4245 127.953 49.8516C127.479 50.2786 126.896 50.5964 126.203 50.8047C125.51 51.0182 124.724 51.125 123.844 51.125C122.984 51.125 122.182 51.0339 121.438 50.8516C120.693 50.6693 120.01 50.4219 119.391 50.1094L120.25 48.1562ZM133.805 39.5156H131.578V37.7812H133.805V34.9141H136.117V37.7812H138.344V39.5156H136.117V47H133.805V39.5156ZM141.617 36.5234C141.388 36.5234 141.18 36.4922 140.992 36.4297C140.81 36.362 140.654 36.2734 140.523 36.1641C140.393 36.0495 140.292 35.9193 140.219 35.7734C140.151 35.6224 140.117 35.4635 140.117 35.2969C140.117 35.125 140.151 34.9661 140.219 34.8203C140.292 34.6693 140.393 34.5391 140.523 34.4297C140.654 34.3203 140.81 34.2344 140.992 34.1719C141.18 34.1042 141.388 34.0703 141.617 34.0703C141.852 34.0703 142.06 34.1042 142.242 34.1719C142.43 34.2344 142.589 34.3203 142.719 34.4297C142.849 34.5391 142.948 34.6693 143.016 34.8203C143.089 34.9661 143.125 35.125 143.125 35.2969C143.125 35.4635 143.089 35.6224 143.016 35.7734C142.948 35.9193 142.849 36.0495 142.719 36.1641C142.589 36.2734 142.43 36.362 142.242 36.4297C142.06 36.4922 141.852 36.5234 141.617 36.5234ZM140.461 37.7812H142.773V47H140.461V37.7812ZM145.188 42.4141C145.188 41.737 145.31 41.1068 145.555 40.5234C145.805 39.9349 146.167 39.4271 146.641 39C147.12 38.5677 147.703 38.2292 148.391 37.9844C149.083 37.7396 149.872 37.6172 150.758 37.6172C151.143 37.6172 151.531 37.6406 151.922 37.6875C152.312 37.7344 152.688 37.8021 153.047 37.8906C153.411 37.974 153.753 38.0755 154.07 38.1953C154.388 38.3099 154.664 38.4375 154.898 38.5781L153.828 40.3203C153.323 40.0859 152.844 39.9141 152.391 39.8047C151.943 39.6953 151.487 39.6406 151.023 39.6406C150.492 39.6406 150.016 39.7109 149.594 39.8516C149.172 39.987 148.812 40.1797 148.516 40.4297C148.224 40.6745 148 40.9661 147.844 41.3047C147.693 41.638 147.617 42.0026 147.617 42.3984C147.617 42.7943 147.698 43.1615 147.859 43.5C148.026 43.8333 148.258 44.1224 148.555 44.3672C148.857 44.6068 149.219 44.7969 149.641 44.9375C150.068 45.0729 150.542 45.1406 151.062 45.1406C151.635 45.1406 152.174 45.0599 152.68 44.8984C153.19 44.737 153.664 44.5208 154.102 44.25L155.172 45.9922C154.896 46.1589 154.596 46.3151 154.273 46.4609C153.951 46.6016 153.604 46.724 153.234 46.8281C152.87 46.9323 152.484 47.013 152.078 47.0703C151.677 47.1328 151.26 47.1641 150.828 47.1641C149.948 47.1641 149.159 47.0443 148.461 46.8047C147.763 46.5651 147.172 46.2344 146.688 45.8125C146.203 45.3854 145.831 44.8828 145.57 44.3047C145.315 43.7266 145.188 43.0964 145.188 42.4141ZM158.031 44.1719C158.656 44.5469 159.344 44.8229 160.094 45C160.844 45.1771 161.612 45.2656 162.398 45.2656C162.93 45.2656 163.372 45.2292 163.727 45.1562C164.081 45.0833 164.365 44.9896 164.578 44.875C164.792 44.7604 164.943 44.6302 165.031 44.4844C165.12 44.3385 165.164 44.1901 165.164 44.0391C165.164 43.8203 165.068 43.6328 164.875 43.4766C164.688 43.3203 164.375 43.2422 163.938 43.2422C163.734 43.2422 163.516 43.2552 163.281 43.2812C163.047 43.3073 162.799 43.3359 162.539 43.3672C162.284 43.3932 162.016 43.4193 161.734 43.4453C161.458 43.4714 161.177 43.4844 160.891 43.4844C160.266 43.4844 159.732 43.4167 159.289 43.2812C158.852 43.1458 158.495 42.9609 158.219 42.7266C157.943 42.4922 157.742 42.2161 157.617 41.8984C157.492 41.5755 157.43 41.2292 157.43 40.8594C157.43 40.3906 157.539 39.9583 157.758 39.5625C157.977 39.1667 158.289 38.8255 158.695 38.5391C159.102 38.2474 159.591 38.0208 160.164 37.8594C160.742 37.6979 161.385 37.6172 162.094 37.6172C162.464 37.6172 162.849 37.6406 163.25 37.6875C163.656 37.7292 164.055 37.7865 164.445 37.8594C164.836 37.9323 165.211 38.0182 165.57 38.1172C165.93 38.2109 166.247 38.3125 166.523 38.4219L165.797 40.2188C165.208 40 164.62 39.8281 164.031 39.7031C163.448 39.5729 162.846 39.5078 162.227 39.5078C161.794 39.5078 161.427 39.5417 161.125 39.6094C160.828 39.6719 160.586 39.7578 160.398 39.8672C160.211 39.9714 160.073 40.0938 159.984 40.2344C159.901 40.3698 159.859 40.513 159.859 40.6641C159.859 40.7734 159.88 40.8724 159.922 40.9609C159.969 41.0495 160.042 41.1276 160.141 41.1953C160.245 41.2578 160.378 41.3073 160.539 41.3438C160.706 41.375 160.909 41.3906 161.148 41.3906C161.367 41.3906 161.599 41.3776 161.844 41.3516C162.089 41.3255 162.344 41.2995 162.609 41.2734C162.875 41.2422 163.148 41.2135 163.43 41.1875C163.716 41.1615 164.008 41.1484 164.305 41.1484C164.857 41.1484 165.339 41.2135 165.75 41.3438C166.167 41.474 166.51 41.6562 166.781 41.8906C167.052 42.125 167.255 42.401 167.391 42.7188C167.526 43.0365 167.594 43.3828 167.594 43.7578C167.594 44.2422 167.482 44.6927 167.258 45.1094C167.034 45.526 166.701 45.888 166.258 46.1953C165.815 46.4974 165.263 46.7344 164.602 46.9062C163.945 47.0781 163.185 47.1641 162.32 47.1641C161.789 47.1641 161.276 47.1302 160.781 47.0625C160.286 47 159.815 46.9141 159.367 46.8047C158.919 46.6901 158.497 46.5573 158.102 46.4062C157.711 46.2552 157.354 46.0938 157.031 45.9219L158.031 44.1719Z" fill="white"/>
<path d="M72.7344 67.7891H83.6562V69.9609H75.2109V73.1562H82.3828V75.1953H75.2109V80H72.7344V67.7891ZM86.0469 67.7891H90.5234C91.8307 67.7891 92.9661 67.9297 93.9297 68.2109C94.8932 68.4922 95.6901 68.8958 96.3203 69.4219C96.9557 69.9427 97.4271 70.5781 97.7344 71.3281C98.0469 72.0729 98.2031 72.9115 98.2031 73.8438C98.2031 74.7292 98.0495 75.5495 97.7422 76.3047C97.4349 77.0547 96.9661 77.7057 96.3359 78.2578C95.7057 78.8047 94.9089 79.2344 93.9453 79.5469C92.9818 79.8542 91.8464 80.0078 90.5391 80.0078L86.0469 80V67.7891ZM91.1328 77.8594C91.8724 77.8594 92.5208 77.7656 93.0781 77.5781C93.6354 77.3854 94.099 77.1146 94.4688 76.7656C94.8438 76.4167 95.125 75.9948 95.3125 75.5C95.5 75.0052 95.5938 74.4531 95.5938 73.8438C95.5938 73.2448 95.5 72.7057 95.3125 72.2266C95.125 71.7422 94.8438 71.3333 94.4688 71C94.099 70.6615 93.6354 70.401 93.0781 70.2188C92.5208 70.0365 91.8724 69.9453 91.1328 69.9453H88.5234V77.8594H91.1328ZM101.117 77.0938C101.732 77.3958 102.388 77.6172 103.086 77.7578C103.789 77.8932 104.474 77.9609 105.141 77.9609C105.734 77.9609 106.247 77.9141 106.68 77.8203C107.112 77.7214 107.469 77.5885 107.75 77.4219C108.031 77.2552 108.24 77.0573 108.375 76.8281C108.51 76.599 108.578 76.3516 108.578 76.0859C108.578 75.7266 108.456 75.4062 108.211 75.125C107.966 74.8385 107.594 74.625 107.094 74.4844C106.599 74.3385 105.971 74.2812 105.211 74.3125C104.456 74.3438 103.565 74.4922 102.539 74.7578L102.547 72.9297L107.109 69.9609H100.648V67.7891H110.422V69.9141L106.406 72.4609C107.141 72.4609 107.797 72.5547 108.375 72.7422C108.953 72.9297 109.44 73.1875 109.836 73.5156C110.232 73.8438 110.534 74.2318 110.742 74.6797C110.951 75.1276 111.055 75.6094 111.055 76.125C111.055 76.7344 110.919 77.2891 110.648 77.7891C110.383 78.2839 109.995 78.7083 109.484 79.0625C108.974 79.4115 108.349 79.6823 107.609 79.875C106.875 80.0677 106.042 80.1641 105.109 80.1641C104.12 80.1641 103.206 80.0599 102.367 79.8516C101.529 79.638 100.732 79.3438 99.9766 78.9688L101.117 77.0938Z" fill="white"/>
</g>
<defs>
<filter id="filter0_d_2_1212" x="0.456749" y="1.84375" width="235.715" height="94.1562" filterUnits="userSpaceOnUse" color-interpolation-filters="sRGB">
<feFlood flood-opacity="0" result="BackgroundImageFix"/>
<feColorMatrix in="SourceAlpha" type="matrix" values="0 0 0 0 0 0 0 0 0 0 0 0 0 0 0 0 0 0 127 0" result="hardAlpha"/>
<feOffset dy="4"/>
<feGaussianBlur stdDeviation="2"/>
<feComposite in2="hardAlpha" operator="out"/>
<feColorMatrix type="matrix" values="0 0 0 0 0 0 0 0 0 0 0 0 0 0 0 0 0 0 0.25 0"/>
<feBlend mode="normal" in2="BackgroundImageFix" result="effect1_dropShadow_2_1212"/>
<feBlend mode="normal" in="SourceGraphic" in2="effect1_dropShadow_2_1212" result="shape"/>
</filter>
</defs>
</svg>
