<svg width="40" height="40" viewBox="0 0 40 40" fill="none" xmlns="http://www.w3.org/2000/svg">
<rect width="40" height="40" rx="5" fill="url(#paint0_linear_2_1298)"/>
<path d="M29.2652 9.4834H10.5103C9.65094 9.4834 8.9527 10.1914 8.9527 11.0605V29.7812C8.9527 30.6504 9.65094 31.3584 10.5103 31.3584H29.2652C30.1246 31.3584 30.8277 30.6504 30.8277 29.7812V11.0605C30.8277 10.1914 30.1246 9.4834 29.2652 9.4834ZM15.564 28.2334H12.3218V17.7939H15.5689V28.2334H15.564ZM13.9429 16.3682C12.9029 16.3682 12.063 15.5234 12.063 14.4883C12.063 13.4531 12.9029 12.6084 13.9429 12.6084C14.9781 12.6084 15.8228 13.4531 15.8228 14.4883C15.8228 15.5283 14.983 16.3682 13.9429 16.3682ZM27.7173 28.2334H24.4752V23.1553C24.4752 21.9443 24.4507 20.3867 22.7906 20.3867C21.1011 20.3867 20.8423 21.7051 20.8423 23.0674V28.2334H17.6002V17.7939H20.7105V19.2197H20.7545C21.189 18.3994 22.2486 17.5352 23.8257 17.5352C27.107 17.5352 27.7173 19.6982 27.7173 22.5107V28.2334Z" fill="black"/>
<defs>
<linearGradient id="paint0_linear_2_1298" x1="3.91155e-07" y1="-0.0791021" x2="40" y2="39.9209" gradientUnits="userSpaceOnUse">
<stop stop-color="#FF56F6"/>
<stop offset="0.416667" stop-color="#3BACE2"/>
<stop offset="0.869792" stop-color="#B936EE"/>
</linearGradient>
</defs>
</svg>
