<svg width="157" height="29" viewBox="0 0 157 29" fill="none" xmlns="http://www.w3.org/2000/svg">
<path d="M14.6977 3.44922C12.7315 3.44922 11.0388 3.58594 9.61953 3.85938C8.20026 4.11979 7.02838 4.52995 6.1039 5.08984C5.19245 5.64974 4.51536 6.36589 4.07265 7.23828C3.62995 8.11068 3.40859 9.15234 3.40859 10.3633V13.3516H26.3383V15.6367H3.40859V28H0.967186V9.95312C0.967186 8.57292 1.20807 7.33594 1.68984 6.24219C2.18463 5.14844 2.96588 4.23047 4.03359 3.48828C5.1013 2.73307 6.46849 2.16016 8.13515 1.76953C9.81484 1.36589 11.8396 1.16406 14.2094 1.16406H26.7289V3.44922H14.6977ZM33.9016 28V1.16406H56.2648V3.44922H36.5578V12.6875H55.2687V14.9531H36.5578V25.7148H56.5578V28H33.9016ZM64.2969 28V1.16406H86.6602V3.44922H66.9531V12.6875H85.6641V14.9531H66.9531V25.7148H86.9531V28H64.2969ZM123.989 14.5625C123.989 16.2812 123.807 17.8112 123.442 19.1523C123.091 20.4805 122.589 21.6393 121.938 22.6289C121.287 23.6185 120.493 24.4583 119.555 25.1484C118.631 25.8385 117.596 26.3919 116.45 26.8086C115.317 27.2253 114.08 27.5312 112.739 27.7266C111.411 27.9089 110.011 28 108.54 28H94.6922V1.16406H108.501C110.701 1.16406 112.746 1.37891 114.634 1.80859C116.522 2.23828 118.156 2.97396 119.536 4.01562C120.929 5.04427 122.016 6.41797 122.798 8.13672C123.592 9.85547 123.989 11.9974 123.989 14.5625ZM121.47 14.5625C121.47 13.1042 121.326 11.8151 121.04 10.6953C120.753 9.57552 120.343 8.60547 119.809 7.78516C119.276 6.95182 118.624 6.25521 117.856 5.69531C117.088 5.13542 116.222 4.6862 115.259 4.34766C114.295 3.99609 113.247 3.7487 112.114 3.60547C110.981 3.46224 109.777 3.39062 108.501 3.39062H97.1336V25.7539H108.501C110.415 25.7539 112.166 25.5846 113.755 25.2461C115.343 24.8945 116.704 24.2956 117.837 23.4492C118.983 22.5898 119.874 21.444 120.512 20.0117C121.151 18.5664 121.47 16.75 121.47 14.5625ZM148.545 13.6836C149.886 13.9831 151.032 14.3477 151.982 14.7773C152.933 15.194 153.707 15.6823 154.306 16.2422C154.905 16.7891 155.341 17.4076 155.615 18.0977C155.888 18.7747 156.025 19.5169 156.025 20.3242C156.025 21.7305 155.641 22.9609 154.873 24.0156C154.117 25.0703 153.063 25.9492 151.709 26.6523C150.367 27.3424 148.779 27.8568 146.943 28.1953C145.107 28.5469 143.121 28.7227 140.986 28.7227C139.554 28.7227 138.239 28.6576 137.041 28.5273C135.843 28.4102 134.736 28.2539 133.72 28.0586C132.718 27.8633 131.793 27.6484 130.947 27.4141C130.101 27.1667 129.313 26.9193 128.584 26.6719V20.2461C129.391 20.6758 130.296 21.0599 131.298 21.3984C132.314 21.737 133.356 22.0299 134.423 22.2773C135.504 22.5117 136.591 22.694 137.685 22.8242C138.779 22.9414 139.814 23 140.791 23C142.561 23 143.974 22.8958 145.029 22.6875C146.084 22.4661 146.884 22.1927 147.431 21.8672C147.978 21.5286 148.33 21.1706 148.486 20.793C148.655 20.4154 148.74 20.0573 148.74 19.7188C148.74 19.1458 148.551 18.651 148.173 18.2344C147.809 17.8177 147.158 17.4727 146.22 17.1992C145.296 16.9258 144.039 16.724 142.451 16.5938C140.862 16.4505 138.857 16.3724 136.435 16.3594V11.0469C138.636 11.0469 140.459 11.0013 141.904 10.9102C143.362 10.819 144.528 10.6758 145.4 10.4805C146.272 10.2852 146.884 10.0312 147.236 9.71875C147.601 9.40625 147.783 9.02214 147.783 8.56641C147.783 8.42318 147.757 8.26693 147.705 8.09766C147.666 7.92839 147.568 7.7526 147.412 7.57031C147.255 7.38802 147.028 7.21224 146.728 7.04297C146.429 6.8737 146.018 6.72396 145.498 6.59375C144.977 6.46354 144.332 6.35938 143.564 6.28125C142.796 6.20312 141.871 6.16406 140.791 6.16406C139.775 6.16406 138.74 6.21615 137.685 6.32031C136.643 6.42448 135.621 6.58073 134.619 6.78906C133.616 6.9974 132.646 7.2513 131.709 7.55078C130.771 7.85026 129.905 8.20182 129.111 8.60547V2.19922C130.882 1.61328 132.776 1.18359 134.795 0.910156C136.813 0.623698 138.811 0.480469 140.791 0.480469C142.731 0.480469 144.56 0.610677 146.279 0.871094C148.011 1.13151 149.521 1.54818 150.81 2.12109C152.112 2.68099 153.141 3.41667 153.896 4.32812C154.651 5.22656 155.029 6.32031 155.029 7.60938C155.029 8.29948 154.905 8.95703 154.658 9.58203C154.423 10.194 154.046 10.7604 153.525 11.2812C153.004 11.8021 152.334 12.2643 151.513 12.668C150.693 13.0716 149.703 13.4102 148.545 13.6836Z" fill="url(#paint0_linear_2_480)"/>
<defs>
<linearGradient id="paint0_linear_2_480" x1="1.55682" y1="3.35001" x2="107.684" y2="41.2991" gradientUnits="userSpaceOnUse">
<stop stop-color="#FF56F6"/>
<stop offset="0.273933" stop-color="#B936EE"/>
<stop offset="0.637983" stop-color="#3BACE2"/>
<stop offset="1" stop-color="#406AFF"/>
</linearGradient>
</defs>
</svg>
