<svg width="137" height="134" viewBox="0 0 137 134" fill="none" xmlns="http://www.w3.org/2000/svg">
<path d="M167.333 38.6778V106.528C167.334 113.446 164.687 120.101 159.936 125.13C155.185 130.158 148.69 133.178 141.783 133.57L140.25 133.611H27.75C20.8321 133.612 14.1764 130.965 9.14804 126.214C4.11968 121.463 1.09995 114.968 0.708294 108.061L0.666626 106.528V38.6778L81.1 80.8112C81.9948 81.2799 82.9898 81.5247 84 81.5247C85.0101 81.5247 86.0052 81.2799 86.9 80.8112L167.333 38.6778ZM27.75 0.277832H140.25C146.963 0.277024 153.437 2.76946 158.417 7.27173C163.397 11.774 166.527 17.9652 167.2 24.6445L84 68.2278L0.79996 24.6445C1.44599 18.2304 4.35871 12.2571 9.01454 7.79836C13.6704 3.33957 19.764 0.687724 26.2 0.3195L27.75 0.277832H140.25H27.75Z" fill="url(#paint0_linear_357_364)"/>
<defs>
<linearGradient id="paint0_linear_357_364" x1="1.00001" y1="-0.0556698" x2="132" y2="133.944" gradientUnits="userSpaceOnUse">
<stop stop-color="#A260F3"/>
<stop offset="1" stop-color="#FF56F6"/>
</linearGradient>
</defs>
</svg>
