<svg width="125" height="134" viewBox="0 0 125 134" fill="none" xmlns="http://www.w3.org/2000/svg">
<path d="M124.333 38.6778V106.528C124.334 113.446 121.687 120.101 116.936 125.13C112.185 130.158 105.69 133.178 98.7834 133.57L97.25 133.611H-15.25C-22.1678 133.612 -28.8236 130.965 -33.8519 126.214C-38.8803 121.463 -41.9 114.968 -42.2916 108.061L-42.3333 106.528V38.6778L38.1 80.8112C38.9948 81.2799 39.9899 81.5247 41 81.5247C42.0101 81.5247 43.0052 81.2799 43.9 80.8112L124.333 38.6778ZM-15.25 0.277832H97.25C103.963 0.277024 110.437 2.76946 115.417 7.27173C120.397 11.774 123.527 17.9652 124.2 24.6445L41 68.2278L-42.2 24.6445C-41.554 18.2304 -38.6412 12.2571 -33.9854 7.79836C-29.3296 3.33957 -23.236 0.687724 -16.8 0.3195L-15.25 0.277832H97.25H-15.25Z" fill="url(#paint0_linear_357_366)"/>
<defs>
<linearGradient id="paint0_linear_357_366" x1="1" y1="30.9443" x2="97" y2="120.944" gradientUnits="userSpaceOnUse">
<stop stop-color="#3BACE2"/>
<stop offset="1" stop-color="#FF56F6"/>
</linearGradient>
</defs>
</svg>
