<svg width="150" height="140" viewBox="0 0 150 140" fill="none" xmlns="http://www.w3.org/2000/svg">
<g clip-path="url(#clip0_701_19)">
<path d="M146.501 0L82.1572 47.4127L94.1224 19.4711L146.501 0Z" fill="#E17726"/>
<path d="M3.64986 0.0556641L55.888 19.4742L67.2493 47.7823L3.64986 0.0556641ZM120.607 100.834L149.046 101.373L139.107 134.997L104.405 125.482L120.607 100.834ZM29.3926 100.834L45.5342 125.482L10.891 134.998L1.01221 101.373L29.3926 100.834Z" fill="#E27625"/>
<path d="M65.7045 40.5724L66.8667 77.9541L32.0898 76.3785L41.9821 61.5164L42.1074 61.3734L65.7045 40.5724ZM83.935 40.1553L107.892 61.3746L108.017 61.5169L117.909 76.3791L83.1395 77.9541L83.935 40.1553ZM46.5527 100.943L65.5417 115.677L43.4834 126.283L46.5527 100.943ZM103.451 100.94L106.456 126.283L84.4592 115.676L103.451 100.94Z" fill="#E27625"/>
<path d="M84.945 114.288L107.266 125.052L86.5031 134.879L86.7187 128.384L84.945 114.288ZM65.0487 114.293L63.3447 128.278L63.4847 134.871L42.6729 125.052L65.0487 114.293Z" fill="#D5BFB2"/>
<path d="M58.603 82.833L64.436 95.041L44.5771 89.2473L58.603 82.833ZM91.3965 82.8342L105.489 89.2473L85.5647 95.0393L91.3965 82.8342Z" fill="#233447"/>
<path d="M48.0706 100.818L44.8606 127.091L27.6553 101.392L48.0706 100.818ZM101.931 100.818L122.347 101.392L105.077 127.092L101.931 100.818ZM118.411 74.8926L103.554 89.9723L92.0982 84.7591L86.6138 96.2414L83.0184 76.4962L118.411 74.8926ZM31.581 74.8926L66.9811 76.4962L63.3851 96.2414L57.8995 84.7608L46.5048 89.9729L31.581 74.8926Z" fill="#CC6228"/>
<path d="M30.5801 71.7979L47.3901 88.7852L47.9723 105.555L30.5801 71.7979ZM119.437 71.7676L102.013 105.585L102.669 88.7852L119.437 71.7676ZM66.1594 72.8327L66.8359 77.0736L68.5077 87.6383L67.4328 120.086L62.3514 94.02L62.3496 93.7505L66.1594 72.8327ZM83.8322 72.7738L87.6519 93.7505L87.6501 94.02L82.5558 120.152L82.3543 113.615L81.5595 87.4458L83.8322 72.7738Z" fill="#E27525"/>
<path d="M104.164 88.1104L103.595 102.681L85.8616 116.44L82.2768 113.918L86.2951 93.3055L104.164 88.1104ZM45.8979 88.1104L63.7043 93.3055L67.7226 113.918L64.1378 116.44L46.404 102.68L45.8979 88.1104Z" fill="#F5841F"/>
<path d="M39.2793 121.834L61.9667 132.539L61.8707 127.968L63.7691 126.308H86.2234L88.1904 127.962L88.0451 132.53L110.589 121.861L99.619 130.888L86.3546 139.961H63.5869L50.3313 130.851L39.2793 121.834Z" fill="#C0AC9D"/>
<path d="M83.32 112.862L86.5276 115.119L88.4073 130.055L85.687 127.768H64.321L61.6523 130.101L63.4705 115.12L66.6793 112.862H83.32Z" fill="#161616"/>
<path d="M142.253 1.3125L149.977 24.3874L145.153 47.719L148.588 50.3574L143.94 53.8889L147.433 56.5757L142.808 60.7705L145.647 62.8186L138.111 71.5837L107.201 62.6208L106.933 62.4779L84.6585 43.7657L142.253 1.3125ZM7.7472 1.3125L65.3421 43.7657L43.067 62.4779L42.7993 62.6208L11.8891 71.5837L4.35275 62.8186L7.19014 60.7722L2.56737 56.5757L6.05378 53.8918L1.33611 50.3504L4.90043 47.7103L0.0234375 24.3886L7.7472 1.3125Z" fill="#763E1A"/>
<path d="M105.689 60.6609L138.44 70.157L149.081 102.816H121.009L101.667 103.058L115.734 75.7535L105.689 60.6609ZM44.3114 60.6609L34.2651 75.7535L48.3332 103.058L29.0003 102.816H0.979004L11.5595 70.1576L44.3114 60.6609ZM95.7266 19.3154L86.5659 43.9548L84.6218 77.2398L83.8779 87.6728L83.8187 114.324H66.1811L66.1237 87.7229L65.3774 77.2311L63.4327 43.9548L54.2733 19.3154H95.7266Z" fill="#F5841F"/>
</g>
<defs>
<clipPath id="clip0_701_19">
<rect width="150" height="140" fill="white"/>
</clipPath>
</defs>
</svg>
