<svg width="40" height="40" viewBox="0 0 40 40" fill="none" xmlns="http://www.w3.org/2000/svg">
<rect width="40" height="40" rx="5" fill="url(#paint0_linear_2_1292)"/>
<g clip-path="url(#clip0_2_1292)">
<path d="M31.9996 20.6094C31.9996 27.2988 26.5797 32.7188 19.8902 32.7188C18.6402 32.7188 17.439 32.5283 16.3062 32.1768C16.7994 31.3711 17.5367 30.0527 17.8101 29.0029C17.9566 28.4365 18.5621 26.1221 18.5621 26.1221C18.9576 26.874 20.1099 27.5137 21.3355 27.5137C24.9879 27.5137 27.6197 24.1543 27.6197 19.9795C27.6197 15.9805 24.3531 12.9873 20.1539 12.9873C14.9293 12.9873 12.1509 16.4932 12.1509 20.3164C12.1509 22.0938 13.0982 24.3057 14.607 25.0088C14.8365 25.1162 14.9586 25.0674 15.0123 24.8477C15.0513 24.6816 15.2564 23.8564 15.3492 23.4756C15.3785 23.3535 15.3638 23.2461 15.2662 23.1289C14.773 22.5186 14.3726 21.4053 14.3726 20.3652C14.3726 17.6943 16.3941 15.1113 19.8414 15.1113C22.815 15.1113 24.9 17.1377 24.9 20.0381C24.9 23.3145 23.2447 25.585 21.0914 25.585C19.9048 25.585 19.0113 24.6035 19.2994 23.3975C19.6412 21.957 20.3004 20.4043 20.3004 19.3643C20.3004 18.4365 19.8023 17.6602 18.7672 17.6602C17.5513 17.6602 16.5748 18.915 16.5748 20.5996C16.5748 21.6738 16.9361 22.3965 16.9361 22.3965C16.9361 22.3965 15.7398 27.4648 15.5201 28.4121C15.2759 29.457 15.3736 30.9316 15.4761 31.8887C10.9742 30.126 7.78082 25.7412 7.78082 20.6094C7.78082 13.9199 13.2007 8.5 19.8902 8.5C26.5797 8.5 31.9996 13.9199 31.9996 20.6094Z" fill="black"/>
</g>
<defs>
<linearGradient id="paint0_linear_2_1292" x1="3.91155e-07" y1="-0.0791021" x2="40" y2="39.9209" gradientUnits="userSpaceOnUse">
<stop stop-color="#FF56F6"/>
<stop offset="0.416667" stop-color="#3BACE2"/>
<stop offset="0.869792" stop-color="#B936EE"/>
</linearGradient>
<clipPath id="clip0_2_1292">
<rect x="7.00012" y="8.10938" width="25" height="25" rx="5" fill="white"/>
</clipPath>
</defs>
</svg>
