<svg width="50" height="56" viewBox="0 0 50 56" fill="none" xmlns="http://www.w3.org/2000/svg">
<path d="M0 32.0132C6.00866 31.7084 11.1026 29.3233 15.2819 24.8578C19.4612 20.3922 21.5509 15.0656 21.5509 8.87793C21.5509 15.0656 23.6479 20.3922 27.8421 24.8578C32.0363 29.3233 37.1377 31.7084 43.1463 32.0132C39.1901 32.1961 35.5611 33.3468 32.2594 35.4653C28.9576 37.5837 26.3474 40.388 24.4288 43.8781C22.5102 47.3682 21.5509 51.1555 21.5509 55.24C21.5509 49.0218 19.4612 43.6724 15.2819 39.1916C11.1026 34.7108 6.00866 32.3181 0 32.0132Z" fill="#FF56F6"/>
<path d="M26.9883 12.3303C30.2049 12.1723 32.9267 10.8997 35.1536 8.51268C37.3805 6.12565 38.494 3.28809 38.494 0C38.494 3.28809 39.6074 6.12565 41.8343 8.51268C44.0612 10.8997 46.783 12.1723 49.9996 12.3303C46.783 12.4884 44.0612 13.761 41.8343 16.148C39.6074 18.535 38.494 21.3726 38.494 24.6607C38.494 21.3726 37.3805 18.535 35.1536 16.148C32.9267 13.761 30.2049 12.4884 26.9883 12.3303Z" fill="#FF56F6"/>
</svg>
