<svg width="23" height="23" viewBox="0 0 23 23" fill="none" xmlns="http://www.w3.org/2000/svg">
<path d="M11.4204 1.52423C5.90205 1.52423 1.42755 5.99873 1.42755 11.5171C1.42755 17.0355 5.90205 21.51 11.4204 21.51C16.9388 21.51 21.4133 17.0355 21.4133 11.5171C21.4133 5.99873 16.9388 1.52423 11.4204 1.52423ZM11.4204 19.8148C6.83888 19.8148 3.12277 16.0987 3.12277 11.5171C3.12277 6.93556 6.83888 3.21945 11.4204 3.21945C16.002 3.21945 19.7181 6.93556 19.7181 11.5171C19.7181 16.0987 16.002 19.8148 11.4204 19.8148Z" fill="#F8F8F8"/>
<path d="M15.3172 14.341L12.1365 12.0413V6.52067C12.1365 6.42252 12.0562 6.34222 11.958 6.34222H10.8851C10.787 6.34222 10.7067 6.42252 10.7067 6.52067V12.6636C10.7067 12.7216 10.7334 12.7752 10.7803 12.8086L14.4696 15.4987C14.5499 15.5567 14.6614 15.5388 14.7194 15.4607L15.3574 14.5908C15.4154 14.5083 15.3975 14.3968 15.3172 14.341Z" fill="#F8F8F8"/>
</svg>
