<svg width="102" height="112" viewBox="0 0 102 112" fill="none" xmlns="http://www.w3.org/2000/svg">
<path d="M0.119995 64.9073C12.3027 64.2893 22.6308 59.4533 31.1044 50.3994C39.578 41.3455 43.8148 30.5457 43.8148 18C43.8148 30.5457 48.0666 41.3455 56.5704 50.3994C65.0741 59.4533 75.4173 64.2893 87.6 64.9073C79.5787 65.2781 72.2209 67.6111 65.5265 71.9063C58.832 76.2015 53.5398 81.8872 49.6498 88.9635C45.7598 96.0398 43.8148 103.719 43.8148 112C43.8148 99.3925 39.578 88.5464 31.1044 79.4615C22.6308 70.3767 12.3027 65.5253 0.119995 64.9073Z" fill="#2CA0E2"/>
<path d="M54.84 25C61.3618 24.6795 66.8802 22.0994 71.3953 17.2596C75.9104 12.4199 78.168 6.66667 78.168 0C78.168 6.66667 80.4255 12.4199 84.9406 17.2596C89.4557 22.0994 94.9741 24.6795 101.496 25C94.9741 25.3205 89.4557 27.9006 84.9406 32.7404C80.4255 37.5801 78.168 43.3333 78.168 50C78.168 43.3333 75.9104 37.5801 71.3953 32.7404C66.8802 27.9006 61.3618 25.3205 54.84 25Z" fill="#2CA0E2"/>
</svg>
