<svg width="42" height="43" viewBox="0 0 42 43" fill="none" xmlns="http://www.w3.org/2000/svg">
<g clip-path="url(#clip0_357_357)">
<path d="M21 0.944336C26.5695 0.944336 31.911 3.15683 35.8492 7.09509C39.7875 11.0334 42 16.3748 42 21.9443C42 27.5139 39.7875 32.8553 35.8492 36.7936C31.911 40.7318 26.5695 42.9443 21 42.9443C15.4305 42.9443 10.089 40.7318 6.15076 36.7936C2.21249 32.8553 0 27.5139 0 21.9443C0 16.3748 2.21249 11.0334 6.15076 7.09509C10.089 3.15683 15.4305 0.944336 21 0.944336V0.944336ZM11.8125 20.6318C11.4644 20.6318 11.1306 20.7701 10.8844 21.0163C10.6383 21.2624 10.5 21.5962 10.5 21.9443C10.5 22.2924 10.6383 22.6263 10.8844 22.8724C11.1306 23.1186 11.4644 23.2568 11.8125 23.2568H27.0191L21.3832 28.8901C21.2612 29.0121 21.1644 29.157 21.0984 29.3164C21.0323 29.4759 20.9983 29.6468 20.9983 29.8193C20.9983 29.9919 21.0323 30.1628 21.0984 30.3222C21.1644 30.4817 21.2612 30.6266 21.3832 30.7486C21.5053 30.8706 21.6502 30.9674 21.8096 31.0335C21.969 31.0995 22.1399 31.1335 22.3125 31.1335C22.4851 31.1335 22.656 31.0995 22.8154 31.0335C22.9748 30.9674 23.1197 30.8706 23.2418 30.7486L31.1168 22.8736C31.239 22.7517 31.336 22.6068 31.4021 22.4474C31.4683 22.2879 31.5023 22.117 31.5023 21.9443C31.5023 21.7717 31.4683 21.6008 31.4021 21.4413C31.336 21.2818 31.239 21.137 31.1168 21.0151L23.2418 13.1401C23.1197 13.0181 22.9748 12.9213 22.8154 12.8552C22.656 12.7892 22.4851 12.7552 22.3125 12.7552C22.1399 12.7552 21.969 12.7892 21.8096 12.8552C21.6502 12.9213 21.5053 13.0181 21.3832 13.1401C21.2612 13.2621 21.1644 13.407 21.0984 13.5664C21.0323 13.7259 20.9983 13.8968 20.9983 14.0693C20.9983 14.2419 21.0323 14.4128 21.0984 14.5722C21.1644 14.7317 21.2612 14.8766 21.3832 14.9986L27.0191 20.6318H11.8125Z" fill="white"/>
</g>
<defs>
<clipPath id="clip0_357_357">
<rect width="42" height="42" fill="white" transform="translate(0 0.944336)"/>
</clipPath>
</defs>
</svg>
