<svg width="40" height="40" viewBox="0 0 40 40" fill="none" xmlns="http://www.w3.org/2000/svg">
<rect width="40" height="40" rx="5" fill="url(#paint0_linear_2_1285)"/>
<g clip-path="url(#clip0_2_1285)">
<path fill-rule="evenodd" clip-rule="evenodd" d="M32 20C32 26.627 26.627 32 20 32C13.373 32 8 26.627 8 20C8 13.373 13.373 8 20 8C26.627 8 32 13.373 32 20ZM20.43 16.859C19.263 17.344 16.93 18.349 13.432 19.873C12.864 20.099 12.566 20.32 12.539 20.536C12.493 20.902 12.951 21.046 13.573 21.241C13.658 21.268 13.746 21.295 13.836 21.325C14.449 21.524 15.273 21.757 15.701 21.766C16.09 21.774 16.524 21.614 17.003 21.286C20.271 19.079 21.958 17.964 22.064 17.94C22.139 17.923 22.243 17.901 22.313 17.964C22.383 18.026 22.376 18.144 22.369 18.176C22.323 18.369 20.529 20.038 19.599 20.902C19.309 21.171 19.104 21.362 19.062 21.406C18.968 21.503 18.872 21.596 18.78 21.685C18.21 22.233 17.784 22.645 18.804 23.317C19.294 23.64 19.686 23.907 20.077 24.173C20.504 24.464 20.93 24.754 21.482 25.116C21.622 25.208 21.756 25.303 21.887 25.396C22.384 25.751 22.831 26.069 23.383 26.019C23.703 25.989 24.035 25.688 24.203 24.789C24.6 22.663 25.382 18.059 25.563 16.161C25.574 16.0034 25.5673 15.8451 25.543 15.689C25.5284 15.5629 25.4671 15.4469 25.371 15.364C25.228 15.247 25.006 15.222 24.906 15.224C24.455 15.232 23.763 15.473 20.43 16.859Z" fill="black"/>
</g>
<defs>
<linearGradient id="paint0_linear_2_1285" x1="3.91155e-07" y1="-0.0791021" x2="40" y2="39.9209" gradientUnits="userSpaceOnUse">
<stop stop-color="#FF56F6"/>
<stop offset="0.416667" stop-color="#3BACE2"/>
<stop offset="0.869792" stop-color="#B936EE"/>
</linearGradient>
<clipPath id="clip0_2_1285">
<rect x="7.00012" y="8.10938" width="25" height="25" rx="5" fill="white"/>
</clipPath>
</defs>
</svg>
