<svg width="306" height="307" viewBox="0 0 306 307" fill="none" xmlns="http://www.w3.org/2000/svg">
<path d="M153 153V0C237.5 0 306 68.5004 306 153C306 185.31 295.771 216.791 276.78 242.931L153 153Z" fill="#FF56F6"/>
<path d="M153 153L276.78 242.931C227.112 311.293 131.43 326.447 63.0688 276.78C63.0688 276.78 63.0688 276.78 63.0688 276.78L153 153Z" fill="#B936EE"/>
<path d="M153 153L63.0689 276.78C23.4464 247.992 0 201.976 0 153H153Z" fill="#3BACE2"/>
<path d="M153 153H0C0 120.69 10.2288 89.209 29.2204 63.0693L153 153Z" fill="#406AFF"/>
<path d="M153 153L29.2205 63.0693C48.2121 36.9296 74.9915 17.4732 105.721 7.48877L153 153Z" fill="#C99EC0"/>
<path d="M153 153L105.721 7.48835C120.99 2.52704 136.945 0 153 0V153Z" fill="#A6369F"/>
<circle cx="153.446" cy="153.446" r="100.446" fill="black"/>
<path d="M98.2925 168.711C98.2925 168.415 98.3327 168.14 98.4131 167.886C98.4935 167.632 98.6036 167.401 98.7432 167.194C98.8829 166.982 99.0437 166.796 99.2256 166.635C99.4118 166.47 99.6107 166.326 99.8223 166.204C99.5303 165.916 99.3187 165.63 99.1875 165.347C99.0564 165.059 98.9908 164.784 98.9908 164.521C98.9908 164.103 99.0881 163.72 99.2828 163.373C99.4817 163.026 99.7652 162.727 100.133 162.478C100.502 162.224 100.948 162.029 101.473 161.894C101.997 161.754 102.588 161.684 103.244 161.684C103.9 161.684 104.49 161.754 105.015 161.894C105.539 162.029 105.986 162.224 106.354 162.478C106.722 162.727 107.004 163.026 107.198 163.373C107.397 163.72 107.497 164.103 107.497 164.521C107.497 164.784 107.431 165.059 107.3 165.347C107.169 165.63 106.957 165.916 106.665 166.204C106.872 166.326 107.069 166.47 107.255 166.635C107.442 166.796 107.605 166.982 107.744 167.194C107.884 167.401 107.994 167.632 108.074 167.886C108.155 168.14 108.195 168.415 108.195 168.711C108.195 169.206 108.078 169.65 107.846 170.044C107.617 170.433 107.287 170.763 106.856 171.034C106.428 171.301 105.908 171.506 105.294 171.65C104.685 171.794 104.001 171.866 103.244 171.866C102.486 171.866 101.801 171.794 101.187 171.65C100.578 171.506 100.057 171.301 99.6255 171.034C99.1981 170.763 98.868 170.433 98.6353 170.044C98.4068 169.65 98.2925 169.206 98.2925 168.711ZM101.003 164.61C101.003 164.767 101.041 164.915 101.117 165.055C101.198 165.19 101.325 165.311 101.498 165.417C101.676 165.518 101.906 165.598 102.19 165.658C102.478 165.717 102.829 165.747 103.244 165.747C103.658 165.747 104.008 165.717 104.291 165.658C104.579 165.598 104.809 165.518 104.983 165.417C105.161 165.311 105.288 165.19 105.364 165.055C105.444 164.915 105.484 164.767 105.484 164.61C105.484 164.454 105.444 164.308 105.364 164.172C105.288 164.033 105.161 163.912 104.983 163.811C104.809 163.705 104.579 163.622 104.291 163.563C104.008 163.504 103.658 163.474 103.244 163.474C102.829 163.474 102.478 163.504 102.19 163.563C101.906 163.622 101.676 163.705 101.498 163.811C101.325 163.912 101.198 164.033 101.117 164.172C101.041 164.308 101.003 164.454 101.003 164.61ZM100.305 168.616C100.305 168.832 100.366 169.03 100.489 169.212C100.616 169.39 100.802 169.542 101.047 169.669C101.293 169.796 101.6 169.896 101.968 169.968C102.336 170.04 102.761 170.076 103.244 170.076C103.726 170.076 104.151 170.04 104.52 169.968C104.888 169.896 105.195 169.796 105.44 169.669C105.685 169.542 105.87 169.39 105.992 169.212C106.119 169.03 106.183 168.832 106.183 168.616C106.183 168.4 106.121 168.203 105.999 168.025C105.88 167.843 105.698 167.689 105.453 167.562C105.211 167.435 104.907 167.336 104.539 167.264C104.17 167.192 103.739 167.156 103.244 167.156C102.749 167.156 102.317 167.192 101.949 167.264C101.581 167.336 101.274 167.435 101.028 167.562C100.787 167.689 100.605 167.843 100.482 168.025C100.364 168.203 100.305 168.4 100.305 168.616ZM110.404 170.634C110.404 170.465 110.438 170.306 110.505 170.158C110.577 170.006 110.679 169.875 110.81 169.765C110.941 169.65 111.1 169.562 111.286 169.498C111.472 169.435 111.682 169.403 111.915 169.403C112.147 169.403 112.357 169.435 112.543 169.498C112.729 169.562 112.886 169.65 113.013 169.765C113.144 169.875 113.243 170.006 113.311 170.158C113.383 170.306 113.419 170.465 113.419 170.634C113.419 170.804 113.383 170.964 113.311 171.117C113.243 171.265 113.144 171.394 113.013 171.504C112.886 171.614 112.729 171.701 112.543 171.764C112.357 171.832 112.147 171.866 111.915 171.866C111.682 171.866 111.472 171.832 111.286 171.764C111.1 171.701 110.941 171.614 110.81 171.504C110.679 171.394 110.577 171.265 110.505 171.117C110.438 170.964 110.404 170.804 110.404 170.634ZM121.093 163.588H115.323V161.811H124.14L118.967 171.732H116.682L121.093 163.588ZM125.613 167.848L131.415 161.811H133.427V167.848H135.566V169.612H133.427V171.732H131.415V169.612H125.6L125.613 167.848ZM131.415 167.848V164.356L128.025 167.848H131.415ZM142.022 161.811H147.322C147.969 161.811 148.532 161.881 149.01 162.021C149.493 162.156 149.893 162.344 150.21 162.585C150.527 162.827 150.762 163.114 150.915 163.449C151.071 163.779 151.149 164.136 151.149 164.521C151.149 165.152 150.951 165.704 150.553 166.178C151.01 166.449 151.35 166.8 151.575 167.232C151.799 167.664 151.911 168.154 151.911 168.705C151.911 169.166 151.833 169.583 151.676 169.955C151.524 170.327 151.289 170.647 150.972 170.914C150.659 171.176 150.261 171.379 149.778 171.523C149.3 171.663 148.735 171.732 148.084 171.732H142.022V161.811ZM148.096 165.62C148.27 165.62 148.439 165.626 148.604 165.639C148.888 165.368 149.029 165.059 149.029 164.712C149.029 164.352 148.888 164.075 148.604 163.88C148.325 163.681 147.914 163.582 147.373 163.582H144.034V165.62H148.096ZM148.134 169.98C148.676 169.98 149.086 169.864 149.366 169.631C149.649 169.399 149.791 169.071 149.791 168.647C149.791 168.224 149.649 167.894 149.366 167.657C149.086 167.42 148.676 167.302 148.134 167.302H144.034V169.98H148.134ZM153.701 161.811H155.726V171.732H153.701V161.811ZM158.297 161.811H160.309V169.968H166.079V171.732H158.297V161.811ZM168.034 161.811H170.046V169.968H175.816V171.732H168.034V161.811ZM177.518 161.811H179.543V171.732H177.518V161.811ZM181.529 166.743C181.529 165.994 181.667 165.309 181.942 164.687C182.217 164.064 182.602 163.531 183.097 163.087C183.597 162.638 184.193 162.291 184.887 162.046C185.585 161.8 186.358 161.678 187.204 161.678C188.046 161.678 188.816 161.8 189.515 162.046C190.213 162.291 190.81 162.638 191.305 163.087C191.804 163.531 192.191 164.064 192.466 164.687C192.741 165.309 192.879 165.994 192.879 166.743C192.879 167.496 192.741 168.188 192.466 168.819C192.191 169.445 191.804 169.985 191.305 170.438C190.81 170.89 190.213 171.244 189.515 171.498C188.816 171.747 188.046 171.872 187.204 171.872C186.358 171.872 185.585 171.747 184.887 171.498C184.193 171.244 183.597 170.89 183.097 170.438C182.602 169.985 182.217 169.445 181.942 168.819C181.667 168.188 181.529 167.496 181.529 166.743ZM183.542 166.743C183.542 167.255 183.633 167.716 183.814 168.127C184.001 168.537 184.257 168.889 184.583 169.181C184.913 169.468 185.3 169.691 185.744 169.847C186.193 170.004 186.679 170.082 187.204 170.082C187.729 170.082 188.213 170.004 188.658 169.847C189.106 169.691 189.494 169.468 189.819 169.181C190.145 168.889 190.401 168.537 190.587 168.127C190.774 167.716 190.867 167.255 190.867 166.743C190.867 166.231 190.774 165.772 190.587 165.366C190.401 164.959 190.145 164.617 189.819 164.337C189.494 164.054 189.106 163.838 188.658 163.69C188.213 163.542 187.729 163.468 187.204 163.468C186.679 163.468 186.193 163.542 185.744 163.69C185.3 163.838 184.913 164.054 184.583 164.337C184.257 164.617 184.001 164.959 183.814 165.366C183.633 165.772 183.542 166.231 183.542 166.743ZM195.101 161.811H197.113L203.295 165.048V161.811H205.308V171.732H203.295V167.181L197.113 163.963V171.732H195.101V161.811ZM120.674 179.576H117.012V177.811H126.349V179.576H122.687V187.732H120.674V179.576ZM127.917 182.743C127.917 181.994 128.055 181.309 128.33 180.687C128.605 180.064 128.99 179.531 129.485 179.087C129.984 178.638 130.581 178.291 131.275 178.046C131.973 177.8 132.745 177.678 133.592 177.678C134.434 177.678 135.204 177.8 135.902 178.046C136.601 178.291 137.197 178.638 137.692 179.087C138.192 179.531 138.579 180.064 138.854 180.687C139.129 181.309 139.267 181.994 139.267 182.743C139.267 183.496 139.129 184.188 138.854 184.819C138.579 185.445 138.192 185.985 137.692 186.438C137.197 186.89 136.601 187.244 135.902 187.498C135.204 187.747 134.434 187.872 133.592 187.872C132.745 187.872 131.973 187.747 131.275 187.498C130.581 187.244 129.984 186.89 129.485 186.438C128.99 185.985 128.605 185.445 128.33 184.819C128.055 184.188 127.917 183.496 127.917 182.743ZM129.929 182.743C129.929 183.255 130.02 183.716 130.202 184.127C130.388 184.537 130.644 184.889 130.97 185.181C131.3 185.468 131.688 185.691 132.132 185.847C132.58 186.004 133.067 186.082 133.592 186.082C134.117 186.082 134.601 186.004 135.045 185.847C135.494 185.691 135.881 185.468 136.207 185.181C136.533 184.889 136.789 184.537 136.975 184.127C137.161 183.716 137.254 183.255 137.254 182.743C137.254 182.231 137.161 181.772 136.975 181.366C136.789 180.959 136.533 180.617 136.207 180.337C135.881 180.054 135.494 179.838 135.045 179.69C134.601 179.542 134.117 179.468 133.592 179.468C133.067 179.468 132.58 179.542 132.132 179.69C131.688 179.838 131.3 180.054 130.97 180.337C130.644 180.617 130.388 180.959 130.202 181.366C130.02 181.772 129.929 182.231 129.929 182.743ZM141.501 177.811H143.513V182.946L148.75 177.811H151.327L146.439 182.546L151.327 187.732H148.648L144.992 183.949L143.513 185.377V187.732H141.501V177.811ZM152.317 177.811H160.766V179.576H154.33V181.556H160.03V183.213H154.33V185.974H160.899V187.732H152.317V177.811ZM163.121 177.811H165.133L171.316 181.048V177.811H173.328V187.732H171.316V183.181L165.133 179.963V187.732H163.121V177.811ZM176.597 184.781C176.957 184.984 177.321 185.168 177.689 185.333C178.061 185.494 178.446 185.631 178.844 185.746C179.242 185.856 179.659 185.94 180.095 186C180.535 186.059 181.002 186.088 181.498 186.088C182.094 186.088 182.602 186.05 183.021 185.974C183.44 185.894 183.781 185.786 184.043 185.65C184.31 185.511 184.502 185.346 184.621 185.155C184.743 184.965 184.805 184.757 184.805 184.533C184.805 184.174 184.655 183.89 184.354 183.683C184.054 183.471 183.59 183.365 182.964 183.365C182.689 183.365 182.399 183.384 182.094 183.422C181.79 183.456 181.481 183.494 181.168 183.537C180.859 183.579 180.552 183.619 180.247 183.657C179.947 183.691 179.663 183.708 179.397 183.708C178.952 183.708 178.525 183.651 178.114 183.537C177.708 183.422 177.346 183.251 177.029 183.022C176.716 182.794 176.466 182.508 176.28 182.166C176.094 181.823 176.001 181.423 176.001 180.966C176.001 180.695 176.037 180.426 176.108 180.16C176.185 179.893 176.303 179.639 176.464 179.398C176.629 179.153 176.841 178.926 177.099 178.719C177.357 178.507 177.668 178.325 178.032 178.173C178.4 178.021 178.823 177.902 179.301 177.817C179.784 177.729 180.332 177.684 180.945 177.684C181.39 177.684 181.836 177.709 182.285 177.76C182.733 177.807 183.169 177.875 183.592 177.963C184.02 178.052 184.43 178.16 184.824 178.287C185.217 178.41 185.583 178.547 185.922 178.7L185.04 180.325C184.76 180.202 184.46 180.09 184.138 179.988C183.817 179.882 183.48 179.792 183.129 179.715C182.778 179.639 182.414 179.58 182.037 179.538C181.665 179.491 181.284 179.468 180.895 179.468C180.34 179.468 179.883 179.508 179.523 179.588C179.168 179.669 178.884 179.772 178.673 179.899C178.461 180.022 178.313 180.162 178.229 180.318C178.148 180.471 178.108 180.623 178.108 180.775C178.108 181.072 178.241 181.315 178.508 181.505C178.774 181.692 179.181 181.785 179.727 181.785C179.947 181.785 180.198 181.77 180.482 181.74C180.77 181.706 181.07 181.67 181.383 181.632C181.701 181.594 182.022 181.56 182.348 181.531C182.678 181.497 182.998 181.48 183.307 181.48C183.891 181.48 184.407 181.546 184.856 181.677C185.308 181.808 185.687 181.996 185.992 182.242C186.296 182.483 186.527 182.777 186.684 183.124C186.84 183.467 186.919 183.852 186.919 184.279C186.919 184.851 186.785 185.361 186.519 185.809C186.256 186.253 185.88 186.63 185.389 186.939C184.902 187.244 184.314 187.476 183.624 187.637C182.934 187.794 182.166 187.872 181.32 187.872C180.761 187.872 180.215 187.836 179.682 187.764C179.149 187.696 178.637 187.599 178.146 187.472C177.659 187.341 177.194 187.187 176.75 187.009C176.309 186.827 175.901 186.628 175.524 186.412L176.597 184.781Z" fill="#FFA6FA"/>
<path d="M99.1619 126.098H95.2175V124.197H105.273V126.098H101.329V134.882H99.1619V126.098ZM106.852 130.849C106.852 130.27 106.969 129.728 107.201 129.222C107.438 128.716 107.773 128.274 108.206 127.896C108.643 127.517 109.17 127.219 109.785 127C110.405 126.781 111.1 126.672 111.87 126.672C112.64 126.672 113.333 126.781 113.948 127C114.568 127.219 115.094 127.517 115.527 127.896C115.965 128.274 116.3 128.716 116.532 129.222C116.769 129.728 116.887 130.27 116.887 130.849C116.887 131.427 116.769 131.97 116.532 132.476C116.3 132.981 115.965 133.424 115.527 133.802C115.094 134.18 114.568 134.479 113.948 134.697C113.333 134.916 112.64 135.025 111.87 135.025C111.1 135.025 110.405 134.916 109.785 134.697C109.17 134.479 108.643 134.18 108.206 133.802C107.773 133.424 107.438 132.981 107.201 132.476C106.969 131.97 106.852 131.427 106.852 130.849ZM108.978 130.849C108.978 131.172 109.042 131.48 109.17 131.771C109.302 132.059 109.491 132.314 109.737 132.537C109.988 132.756 110.291 132.931 110.646 133.063C111.006 133.191 111.414 133.255 111.87 133.255C112.326 133.255 112.731 133.191 113.087 133.063C113.447 132.931 113.75 132.756 113.996 132.537C114.247 132.314 114.436 132.059 114.563 131.771C114.695 131.48 114.761 131.172 114.761 130.849C114.761 130.525 114.695 130.217 114.563 129.926C114.436 129.634 114.247 129.379 113.996 129.16C113.75 128.937 113.447 128.761 113.087 128.634C112.731 128.502 112.326 128.436 111.87 128.436C111.414 128.436 111.006 128.502 110.646 128.634C110.291 128.761 109.988 128.937 109.737 129.16C109.491 129.379 109.302 129.634 109.17 129.926C109.042 130.217 108.978 130.525 108.978 130.849ZM120.148 128.333H118.2V126.815H120.148V124.307H122.172V126.815H124.12V128.333H122.172V134.882H120.148V128.333ZM125.535 132.339C125.535 131.951 125.619 131.598 125.788 131.279C125.956 130.96 126.209 130.687 126.547 130.459C126.884 130.227 127.303 130.049 127.804 129.926C128.31 129.798 128.898 129.734 129.568 129.734C130.065 129.734 130.587 129.771 131.134 129.844C131.685 129.917 132.252 130.028 132.836 130.179C132.813 129.924 132.735 129.689 132.603 129.475C132.471 129.256 132.287 129.069 132.05 128.914C131.817 128.755 131.535 128.632 131.202 128.545C130.874 128.458 130.5 128.415 130.081 128.415C129.853 128.415 129.602 128.429 129.329 128.456C129.055 128.483 128.773 128.524 128.481 128.579C128.19 128.634 127.9 128.702 127.613 128.784C127.33 128.866 127.066 128.964 126.82 129.078L126.205 127.417C126.51 127.308 126.836 127.207 127.182 127.116C127.533 127.025 127.891 126.948 128.256 126.884C128.62 126.815 128.985 126.763 129.349 126.727C129.714 126.69 130.067 126.672 130.409 126.672C131.917 126.672 133.039 127.057 133.772 127.827C134.506 128.597 134.873 129.778 134.873 131.368V134.882H132.849V134.123C132.64 134.246 132.41 134.362 132.159 134.472C131.913 134.581 131.644 134.677 131.352 134.759C131.061 134.841 130.746 134.905 130.409 134.95C130.076 135 129.723 135.025 129.349 135.025C128.72 135.025 128.167 134.957 127.688 134.82C127.214 134.684 126.818 134.494 126.499 134.253C126.18 134.011 125.938 133.729 125.774 133.405C125.615 133.077 125.535 132.722 125.535 132.339ZM127.668 132.271C127.668 132.403 127.702 132.53 127.77 132.653C127.839 132.772 127.948 132.879 128.098 132.975C128.249 133.066 128.44 133.141 128.673 133.2C128.91 133.255 129.194 133.282 129.527 133.282C129.883 133.282 130.227 133.25 130.559 133.187C130.892 133.123 131.202 133.038 131.489 132.934C131.776 132.829 132.036 132.708 132.268 132.571C132.501 132.435 132.694 132.293 132.849 132.147V131.792C132.539 131.705 132.232 131.632 131.927 131.573C131.626 131.514 131.336 131.468 131.058 131.437C130.785 131.4 130.525 131.375 130.279 131.361C130.038 131.348 129.826 131.341 129.643 131.341C129.265 131.341 128.951 131.366 128.7 131.416C128.449 131.466 128.247 131.535 128.092 131.621C127.937 131.703 127.827 131.801 127.763 131.915C127.7 132.029 127.668 132.147 127.668 132.271ZM137.607 123.541H139.631V134.882H137.607V123.541ZM147.629 131.703C148.016 131.922 148.408 132.12 148.804 132.298C149.205 132.471 149.62 132.619 150.049 132.742C150.477 132.861 150.926 132.952 151.395 133.016C151.869 133.079 152.373 133.111 152.906 133.111C153.549 133.111 154.095 133.07 154.547 132.988C154.998 132.902 155.365 132.785 155.647 132.64C155.934 132.489 156.142 132.312 156.269 132.106C156.401 131.901 156.468 131.678 156.468 131.437C156.468 131.049 156.306 130.744 155.982 130.521C155.659 130.293 155.16 130.179 154.485 130.179C154.189 130.179 153.877 130.199 153.549 130.24C153.22 130.277 152.888 130.318 152.551 130.363C152.218 130.409 151.887 130.452 151.559 130.493C151.236 130.53 150.93 130.548 150.643 130.548C150.165 130.548 149.705 130.486 149.262 130.363C148.825 130.24 148.435 130.056 148.094 129.81C147.756 129.563 147.487 129.256 147.287 128.887C147.086 128.518 146.986 128.087 146.986 127.595C146.986 127.303 147.025 127.014 147.102 126.727C147.184 126.439 147.312 126.166 147.485 125.906C147.663 125.642 147.891 125.398 148.169 125.175C148.447 124.947 148.782 124.751 149.174 124.587C149.57 124.423 150.026 124.295 150.541 124.204C151.06 124.108 151.65 124.061 152.311 124.061C152.79 124.061 153.271 124.088 153.754 124.143C154.237 124.193 154.706 124.266 155.162 124.361C155.622 124.457 156.064 124.573 156.488 124.71C156.912 124.842 157.306 124.99 157.671 125.154L156.72 126.904C156.42 126.772 156.096 126.651 155.75 126.542C155.403 126.428 155.041 126.33 154.663 126.248C154.285 126.166 153.893 126.102 153.487 126.057C153.086 126.007 152.676 125.981 152.257 125.981C151.66 125.981 151.167 126.025 150.78 126.111C150.397 126.198 150.092 126.31 149.864 126.446C149.636 126.578 149.477 126.729 149.386 126.897C149.299 127.062 149.256 127.226 149.256 127.39C149.256 127.709 149.399 127.971 149.686 128.176C149.973 128.376 150.411 128.477 150.999 128.477C151.236 128.477 151.507 128.461 151.812 128.429C152.122 128.392 152.446 128.354 152.783 128.312C153.125 128.271 153.471 128.235 153.822 128.203C154.177 128.167 154.522 128.148 154.854 128.148C155.483 128.148 156.039 128.219 156.522 128.36C157.01 128.502 157.418 128.704 157.746 128.969C158.074 129.229 158.322 129.545 158.491 129.919C158.66 130.288 158.744 130.703 158.744 131.163C158.744 131.778 158.6 132.327 158.313 132.811C158.031 133.289 157.625 133.695 157.096 134.027C156.572 134.355 155.939 134.606 155.196 134.779C154.453 134.948 153.626 135.032 152.715 135.032C152.113 135.032 151.525 134.993 150.951 134.916C150.377 134.843 149.825 134.738 149.297 134.602C148.773 134.46 148.271 134.294 147.793 134.103C147.319 133.907 146.879 133.692 146.473 133.46L147.629 131.703ZM160.877 126.809H162.893V130.746C162.893 131.12 162.934 131.462 163.016 131.771C163.098 132.077 163.237 132.339 163.433 132.558C163.634 132.776 163.898 132.947 164.226 133.07C164.559 133.189 164.971 133.248 165.464 133.248C165.696 133.248 165.931 133.223 166.168 133.173C166.409 133.123 166.639 133.054 166.858 132.968C167.077 132.877 167.28 132.77 167.467 132.646C167.658 132.523 167.822 132.389 167.959 132.243V126.809H169.982V134.882H167.959V134.191C167.462 134.488 166.963 134.7 166.462 134.827C165.96 134.955 165.484 135.019 165.033 135.019C164.295 135.019 163.661 134.93 163.133 134.752C162.608 134.574 162.178 134.317 161.841 133.979C161.508 133.638 161.264 133.221 161.109 132.729C160.954 132.232 160.877 131.667 160.877 131.033V126.809ZM174.521 138.177H172.498V126.815H174.521V127.574C174.699 127.451 174.909 127.335 175.15 127.226C175.392 127.116 175.651 127.021 175.929 126.938C176.207 126.856 176.495 126.793 176.791 126.747C177.087 126.697 177.383 126.672 177.679 126.672C178.363 126.672 178.99 126.772 179.559 126.973C180.134 127.173 180.626 127.456 181.036 127.82C181.446 128.185 181.765 128.622 181.993 129.133C182.225 129.639 182.342 130.199 182.342 130.814C182.342 131.457 182.221 132.038 181.979 132.558C181.738 133.073 181.403 133.515 180.974 133.884C180.551 134.248 180.045 134.531 179.457 134.731C178.873 134.927 178.24 135.025 177.556 135.025C177.265 135.025 176.975 135.007 176.688 134.971C176.406 134.934 176.132 134.884 175.868 134.82C175.608 134.757 175.362 134.681 175.13 134.595C174.902 134.504 174.699 134.406 174.521 134.301V138.177ZM174.521 132.346C174.726 132.51 174.943 132.649 175.171 132.763C175.399 132.877 175.631 132.97 175.868 133.043C176.105 133.116 176.344 133.171 176.586 133.207C176.827 133.239 177.062 133.255 177.29 133.255C177.755 133.255 178.167 133.193 178.527 133.07C178.892 132.943 179.197 132.77 179.443 132.551C179.694 132.332 179.885 132.075 180.017 131.778C180.15 131.482 180.216 131.161 180.216 130.814C180.216 130.491 180.15 130.186 180.017 129.898C179.89 129.611 179.703 129.361 179.457 129.146C179.215 128.928 178.921 128.757 178.575 128.634C178.233 128.506 177.848 128.442 177.42 128.442C177.146 128.442 176.873 128.47 176.599 128.524C176.326 128.575 176.062 128.647 175.806 128.743C175.556 128.839 175.319 128.955 175.095 129.092C174.877 129.229 174.685 129.381 174.521 129.55V132.346ZM186.224 138.177H184.201V126.815H186.224V127.574C186.402 127.451 186.612 127.335 186.853 127.226C187.095 127.116 187.355 127.021 187.633 126.938C187.911 126.856 188.198 126.793 188.494 126.747C188.79 126.697 189.086 126.672 189.383 126.672C190.066 126.672 190.693 126.772 191.262 126.973C191.837 127.173 192.329 127.456 192.739 127.82C193.149 128.185 193.468 128.622 193.696 129.133C193.928 129.639 194.045 130.199 194.045 130.814C194.045 131.457 193.924 132.038 193.682 132.558C193.441 133.073 193.106 133.515 192.677 133.884C192.254 134.248 191.748 134.531 191.16 134.731C190.577 134.927 189.943 135.025 189.26 135.025C188.968 135.025 188.678 135.007 188.391 134.971C188.109 134.934 187.835 134.884 187.571 134.82C187.311 134.757 187.065 134.681 186.833 134.595C186.605 134.504 186.402 134.406 186.224 134.301V138.177ZM186.224 132.346C186.429 132.51 186.646 132.649 186.874 132.763C187.102 132.877 187.334 132.97 187.571 133.043C187.808 133.116 188.047 133.171 188.289 133.207C188.53 133.239 188.765 133.255 188.993 133.255C189.458 133.255 189.87 133.193 190.23 133.07C190.595 132.943 190.9 132.77 191.146 132.551C191.397 132.332 191.588 132.075 191.72 131.778C191.853 131.482 191.919 131.161 191.919 130.814C191.919 130.491 191.853 130.186 191.72 129.898C191.593 129.611 191.406 129.361 191.16 129.146C190.918 128.928 190.624 128.757 190.278 128.634C189.936 128.506 189.551 128.442 189.123 128.442C188.849 128.442 188.576 128.47 188.302 128.524C188.029 128.575 187.765 128.647 187.51 128.743C187.259 128.839 187.022 128.955 186.799 129.092C186.58 129.229 186.388 129.381 186.224 129.55V132.346ZM196.013 123.541H198.037V134.882H196.013V123.541ZM201.598 135.894C201.808 136.03 202.036 136.151 202.282 136.256C202.528 136.361 202.783 136.447 203.048 136.516C203.316 136.584 203.59 136.634 203.868 136.666C204.146 136.702 204.422 136.721 204.695 136.721C205.625 136.721 206.34 136.52 206.842 136.119C207.347 135.723 207.6 135.126 207.6 134.328V134.055C207.423 134.178 207.222 134.292 206.999 134.396C206.78 134.497 206.543 134.583 206.288 134.656C206.037 134.729 205.771 134.786 205.488 134.827C205.21 134.864 204.927 134.882 204.64 134.882C204.025 134.882 203.474 134.793 202.986 134.615C202.503 134.433 202.093 134.169 201.756 133.822C201.423 133.471 201.168 133.041 200.99 132.53C200.812 132.02 200.723 131.437 200.723 130.78V126.815H202.74V130.22C202.74 131.195 202.925 131.915 203.294 132.38C203.667 132.84 204.255 133.07 205.057 133.07C205.622 133.07 206.122 132.972 206.554 132.776C206.992 132.576 207.341 132.321 207.6 132.011V126.815H209.624V133.959C209.624 134.729 209.514 135.397 209.296 135.962C209.077 136.532 208.758 137.003 208.339 137.377C207.924 137.751 207.414 138.029 206.807 138.211C206.201 138.398 205.513 138.491 204.743 138.491C203.991 138.491 203.289 138.411 202.637 138.252C201.986 138.092 201.389 137.876 200.846 137.603L201.598 135.894Z" fill="white"/>
</svg>
