<svg width="334" height="220" viewBox="0 0 334 220" fill="none" xmlns="http://www.w3.org/2000/svg">
<path d="M52.9834 9.31543H58.6162C59.4365 9.31543 60.1475 9.4043 60.749 9.58203C61.3506 9.75977 61.8496 10.0173 62.2461 10.3545C62.6426 10.6872 62.9365 11.0951 63.1279 11.5781C63.3239 12.0612 63.4219 12.6058 63.4219 13.2119C63.4219 13.7816 63.3262 14.3079 63.1348 14.791C62.9434 15.2741 62.6494 15.6934 62.2529 16.0488C61.861 16.3997 61.3643 16.6755 60.7627 16.876C60.1611 17.0719 59.4502 17.1699 58.6299 17.1699L55.1504 17.1631V20H52.9834V9.31543ZM58.6709 15.29C59.0811 15.29 59.4388 15.2422 59.7441 15.1465C60.054 15.0462 60.3115 14.9072 60.5166 14.7295C60.7262 14.5472 60.8812 14.3285 60.9814 14.0732C61.0863 13.8135 61.1387 13.5264 61.1387 13.2119C61.1387 12.5785 60.9313 12.0863 60.5166 11.7354C60.1064 11.3799 59.4912 11.2021 58.6709 11.2021H55.1504V15.29H58.6709ZM65.541 11.9336H67.5645V13.0957C68.0111 12.763 68.4827 12.4759 68.9795 12.2344C69.4762 11.9928 69.9707 11.8083 70.4629 11.6807L71.0576 13.5332C70.2783 13.6107 69.5924 13.7861 69 14.0596C68.4121 14.3285 67.9336 14.709 67.5645 15.2012V20H65.541V11.9336ZM72.1855 15.9395C72.1855 15.3926 72.2972 14.8708 72.5205 14.374C72.7438 13.8727 73.0651 13.4307 73.4844 13.0479C73.9036 12.665 74.4163 12.3597 75.0225 12.1318C75.6331 11.904 76.3258 11.79 77.1006 11.79C77.8708 11.79 78.5635 11.9062 79.1787 12.1387C79.7985 12.3665 80.3226 12.681 80.751 13.082C81.1839 13.4831 81.5143 13.9548 81.7422 14.4971C81.9746 15.0394 82.0908 15.6204 82.0908 16.2402C82.0908 16.3177 82.0885 16.402 82.084 16.4932C82.084 16.5798 82.0794 16.6595 82.0703 16.7324H74.4414C74.528 16.974 74.667 17.195 74.8584 17.3955C75.0544 17.596 75.2982 17.7692 75.5898 17.915C75.8815 18.0609 76.2188 18.1748 76.6016 18.2568C76.9844 18.3343 77.4082 18.373 77.873 18.373C78.3379 18.373 78.8005 18.3252 79.2607 18.2295C79.721 18.1292 80.1608 18.0039 80.5801 17.8535L81.2637 19.3984C80.9993 19.5215 80.7305 19.6309 80.457 19.7266C80.1882 19.8177 79.9056 19.8952 79.6094 19.959C79.3177 20.0182 79.0101 20.0638 78.6865 20.0957C78.3675 20.1276 78.0303 20.1436 77.6748 20.1436C76.7679 20.1436 75.9727 20.0342 75.2891 19.8154C74.6055 19.5967 74.0335 19.2982 73.5732 18.9199C73.113 18.5417 72.7666 18.0973 72.5342 17.5869C72.3018 17.0765 72.1855 16.5273 72.1855 15.9395ZM79.9443 15.1533C79.8714 14.93 79.7575 14.7227 79.6025 14.5312C79.4521 14.3353 79.263 14.1667 79.0352 14.0254C78.8073 13.8796 78.543 13.7656 78.2422 13.6836C77.9414 13.6016 77.611 13.5605 77.251 13.5605C76.8682 13.5605 76.5195 13.6038 76.2051 13.6904C75.8906 13.777 75.6149 13.8932 75.3779 14.0391C75.141 14.1849 74.9427 14.3535 74.7832 14.5449C74.6283 14.7363 74.5143 14.9391 74.4414 15.1533H79.9443ZM84.5928 17.5254C85.1396 17.8535 85.7412 18.0951 86.3975 18.25C87.0537 18.4049 87.7259 18.4824 88.4141 18.4824C88.8789 18.4824 89.2663 18.4505 89.5762 18.3867C89.8861 18.3229 90.1344 18.2409 90.3213 18.1406C90.5081 18.0404 90.6403 17.9264 90.7178 17.7988C90.7952 17.6712 90.834 17.5413 90.834 17.4092C90.834 17.2178 90.7497 17.0537 90.5811 16.917C90.417 16.7803 90.1436 16.7119 89.7607 16.7119C89.583 16.7119 89.3916 16.7233 89.1865 16.7461C88.9814 16.7689 88.765 16.7939 88.5371 16.8213C88.3138 16.8441 88.0791 16.8669 87.833 16.8896C87.5915 16.9124 87.3454 16.9238 87.0947 16.9238C86.5479 16.9238 86.0807 16.8646 85.6934 16.7461C85.3105 16.6276 84.9984 16.4658 84.7568 16.2607C84.5153 16.0557 84.3398 15.8141 84.2305 15.5361C84.1211 15.2536 84.0664 14.9505 84.0664 14.627C84.0664 14.2168 84.1621 13.8385 84.3535 13.4922C84.5449 13.1458 84.8184 12.8473 85.1738 12.5967C85.5293 12.3415 85.9577 12.1432 86.459 12.002C86.9648 11.8607 87.5277 11.79 88.1475 11.79C88.471 11.79 88.8083 11.8105 89.1592 11.8516C89.5146 11.888 89.8633 11.9382 90.2051 12.002C90.5469 12.0658 90.875 12.141 91.1895 12.2275C91.5039 12.3096 91.7819 12.3984 92.0234 12.4941L91.3877 14.0664C90.8727 13.875 90.3577 13.7246 89.8428 13.6152C89.3324 13.5013 88.806 13.4443 88.2637 13.4443C87.8854 13.4443 87.5641 13.474 87.2998 13.5332C87.04 13.5879 86.8281 13.6631 86.6641 13.7588C86.5 13.8499 86.3792 13.957 86.3018 14.0801C86.2288 14.1986 86.1924 14.3239 86.1924 14.4561C86.1924 14.5518 86.2106 14.6383 86.2471 14.7158C86.2881 14.7933 86.3519 14.8617 86.4385 14.9209C86.5296 14.9756 86.6458 15.0189 86.7871 15.0508C86.9329 15.0781 87.1107 15.0918 87.3203 15.0918C87.5117 15.0918 87.7145 15.0804 87.9287 15.0576C88.1429 15.0348 88.3662 15.012 88.5986 14.9893C88.8311 14.9619 89.0703 14.9368 89.3164 14.9141C89.5671 14.8913 89.8223 14.8799 90.082 14.8799C90.5651 14.8799 90.9867 14.9368 91.3467 15.0508C91.7113 15.1647 92.012 15.3242 92.249 15.5293C92.486 15.7344 92.6637 15.9759 92.7822 16.2539C92.9007 16.5319 92.96 16.835 92.96 17.1631C92.96 17.5869 92.862 17.9811 92.666 18.3457C92.4701 18.7103 92.1784 19.027 91.791 19.2959C91.4036 19.5602 90.9206 19.7676 90.3418 19.918C89.7676 20.0684 89.1022 20.1436 88.3457 20.1436C87.8809 20.1436 87.432 20.1139 86.999 20.0547C86.5661 20 86.1536 19.9248 85.7617 19.8291C85.3698 19.7288 85.0007 19.6126 84.6543 19.4805C84.3125 19.3483 84.0003 19.207 83.7178 19.0566L84.5928 17.5254ZM94.4023 17.457C94.4023 17.0697 94.4867 16.7165 94.6553 16.3975C94.8239 16.0785 95.0768 15.805 95.4141 15.5771C95.7513 15.3447 96.1706 15.167 96.6719 15.0439C97.1777 14.9163 97.7656 14.8525 98.4355 14.8525C98.9323 14.8525 99.4541 14.889 100.001 14.9619C100.552 15.0348 101.12 15.1465 101.703 15.2969C101.68 15.0417 101.603 14.807 101.471 14.5928C101.339 14.374 101.154 14.1872 100.917 14.0322C100.685 13.8727 100.402 13.7497 100.069 13.6631C99.7412 13.5765 99.3675 13.5332 98.9482 13.5332C98.7204 13.5332 98.4697 13.5469 98.1963 13.5742C97.9229 13.6016 97.6403 13.6426 97.3486 13.6973C97.057 13.752 96.7676 13.8203 96.4805 13.9023C96.1979 13.9844 95.9336 14.0824 95.6875 14.1963L95.0723 12.5352C95.3776 12.4258 95.7035 12.3255 96.0498 12.2344C96.4007 12.1432 96.7585 12.0658 97.123 12.002C97.4876 11.9336 97.8522 11.8812 98.2168 11.8447C98.5814 11.8083 98.9346 11.79 99.2764 11.79C100.785 11.79 101.906 12.1751 102.64 12.9453C103.373 13.7155 103.74 14.8958 103.74 16.4863V20H101.717V19.2412C101.507 19.3643 101.277 19.4805 101.026 19.5898C100.78 19.6992 100.511 19.7949 100.22 19.877C99.9281 19.959 99.6136 20.0228 99.2764 20.0684C98.9437 20.1185 98.5905 20.1436 98.2168 20.1436C97.5879 20.1436 97.0342 20.0752 96.5557 19.9385C96.0817 19.8018 95.6852 19.6126 95.3662 19.3711C95.0472 19.1296 94.8057 18.847 94.6416 18.5234C94.4821 18.1953 94.4023 17.8398 94.4023 17.457ZM96.5352 17.3887C96.5352 17.5208 96.5693 17.6484 96.6377 17.7715C96.7061 17.89 96.8154 17.9971 96.9658 18.0928C97.1162 18.1839 97.3076 18.2591 97.54 18.3184C97.777 18.373 98.0618 18.4004 98.3945 18.4004C98.75 18.4004 99.0941 18.3685 99.4268 18.3047C99.7594 18.2409 100.069 18.1566 100.356 18.0518C100.644 17.9469 100.903 17.8262 101.136 17.6895C101.368 17.5527 101.562 17.4115 101.717 17.2656V16.9102C101.407 16.8236 101.099 16.7507 100.794 16.6914C100.493 16.6322 100.204 16.5866 99.9258 16.5547C99.6523 16.5182 99.3926 16.4932 99.1465 16.4795C98.9049 16.4658 98.693 16.459 98.5107 16.459C98.1325 16.459 97.818 16.484 97.5674 16.5342C97.3167 16.5843 97.1139 16.6527 96.959 16.7393C96.804 16.8213 96.6947 16.9193 96.6309 17.0332C96.5671 17.1471 96.5352 17.2656 96.5352 17.3887ZM106.475 8.65918H108.498V20H106.475V8.65918ZM110.713 15.9395C110.713 15.3926 110.825 14.8708 111.048 14.374C111.271 13.8727 111.592 13.4307 112.012 13.0479C112.431 12.665 112.944 12.3597 113.55 12.1318C114.16 11.904 114.853 11.79 115.628 11.79C116.398 11.79 117.091 11.9062 117.706 12.1387C118.326 12.3665 118.85 12.681 119.278 13.082C119.711 13.4831 120.042 13.9548 120.27 14.4971C120.502 15.0394 120.618 15.6204 120.618 16.2402C120.618 16.3177 120.616 16.402 120.611 16.4932C120.611 16.5798 120.607 16.6595 120.598 16.7324H112.969C113.055 16.974 113.194 17.195 113.386 17.3955C113.582 17.596 113.826 17.7692 114.117 17.915C114.409 18.0609 114.746 18.1748 115.129 18.2568C115.512 18.3343 115.936 18.373 116.4 18.373C116.865 18.373 117.328 18.3252 117.788 18.2295C118.248 18.1292 118.688 18.0039 119.107 17.8535L119.791 19.3984C119.527 19.5215 119.258 19.6309 118.984 19.7266C118.715 19.8177 118.433 19.8952 118.137 19.959C117.845 20.0182 117.537 20.0638 117.214 20.0957C116.895 20.1276 116.558 20.1436 116.202 20.1436C115.295 20.1436 114.5 20.0342 113.816 19.8154C113.133 19.5967 112.561 19.2982 112.101 18.9199C111.64 18.5417 111.294 18.0973 111.062 17.5869C110.829 17.0765 110.713 16.5273 110.713 15.9395ZM118.472 15.1533C118.399 14.93 118.285 14.7227 118.13 14.5312C117.979 14.3353 117.79 14.1667 117.562 14.0254C117.335 13.8796 117.07 13.7656 116.77 13.6836C116.469 13.6016 116.138 13.5605 115.778 13.5605C115.396 13.5605 115.047 13.6038 114.732 13.6904C114.418 13.777 114.142 13.8932 113.905 14.0391C113.668 14.1849 113.47 14.3535 113.311 14.5449C113.156 14.7363 113.042 14.9391 112.969 15.1533H118.472Z" fill="white"/>
<path d="M298.218 17.457C298.756 17.7214 299.33 17.915 299.94 18.0381C300.556 18.1566 301.155 18.2158 301.738 18.2158C302.258 18.2158 302.707 18.1748 303.085 18.0928C303.463 18.0062 303.775 17.89 304.021 17.7441C304.268 17.5983 304.45 17.4251 304.568 17.2246C304.687 17.0241 304.746 16.8076 304.746 16.5752C304.746 16.2607 304.639 15.9805 304.425 15.7344C304.211 15.4837 303.885 15.2969 303.447 15.1738C303.014 15.0462 302.465 14.9961 301.8 15.0234C301.139 15.0508 300.36 15.1807 299.462 15.4131L299.469 13.8135L303.461 11.2158H297.808V9.31543H306.359V11.1748L302.846 13.4033C303.488 13.4033 304.062 13.4854 304.568 13.6494C305.074 13.8135 305.5 14.0391 305.847 14.3262C306.193 14.6133 306.457 14.9528 306.64 15.3447C306.822 15.7367 306.913 16.1582 306.913 16.6094C306.913 17.1426 306.795 17.6279 306.558 18.0654C306.325 18.4984 305.986 18.8698 305.539 19.1797C305.092 19.485 304.546 19.722 303.898 19.8906C303.256 20.0592 302.527 20.1436 301.711 20.1436C300.845 20.1436 300.045 20.0524 299.312 19.8701C298.578 19.6833 297.881 19.4258 297.22 19.0977L298.218 17.457ZM309.825 17.457C310.085 17.5892 310.365 17.7031 310.666 17.7988C310.971 17.89 311.284 17.9674 311.603 18.0312C311.926 18.0951 312.25 18.1429 312.573 18.1748C312.901 18.2021 313.22 18.2158 313.53 18.2158C314.077 18.2158 314.549 18.1771 314.945 18.0996C315.346 18.0176 315.674 17.9036 315.93 17.7578C316.189 17.612 316.381 17.4388 316.504 17.2383C316.632 17.0332 316.695 16.8076 316.695 16.5615C316.695 16.3109 316.629 16.0807 316.497 15.8711C316.369 15.6615 316.176 15.4814 315.916 15.3311C315.661 15.1807 315.337 15.0645 314.945 14.9824C314.558 14.8958 314.104 14.8525 313.585 14.8525C313.353 14.8525 313.09 14.8639 312.799 14.8867C312.507 14.9049 312.197 14.9368 311.869 14.9824C311.541 15.028 311.199 15.0918 310.844 15.1738C310.488 15.2513 310.128 15.347 309.764 15.4609V9.31543H317.96V11.2363H311.767V13.3076C312.108 13.2301 312.466 13.1663 312.84 13.1162C313.214 13.0615 313.631 13.0342 314.091 13.0342C314.843 13.0342 315.515 13.1162 316.107 13.2803C316.7 13.4443 317.199 13.679 317.604 13.9844C318.015 14.2897 318.327 14.6589 318.541 15.0918C318.755 15.5202 318.862 16.001 318.862 16.5342C318.862 17.0856 318.746 17.5846 318.514 18.0312C318.286 18.4733 317.946 18.8516 317.495 19.166C317.049 19.4805 316.497 19.722 315.841 19.8906C315.189 20.0592 314.439 20.1436 313.592 20.1436C313.154 20.1436 312.719 20.1185 312.286 20.0684C311.858 20.0228 311.441 19.9567 311.035 19.8701C310.63 19.779 310.24 19.6696 309.866 19.542C309.497 19.4098 309.151 19.2617 308.827 19.0977L309.825 17.457ZM322.909 14.6338C322.508 14.6338 322.137 14.5677 321.795 14.4355C321.458 14.3034 321.166 14.1188 320.92 13.8818C320.674 13.6403 320.482 13.3509 320.346 13.0137C320.209 12.6719 320.141 12.2913 320.141 11.8721C320.141 11.4574 320.209 11.0791 320.346 10.7373C320.482 10.3955 320.674 10.1061 320.92 9.86914C321.166 9.6276 321.458 9.44076 321.795 9.30859C322.137 9.17643 322.508 9.11035 322.909 9.11035C323.31 9.11035 323.679 9.17643 324.017 9.30859C324.358 9.44076 324.652 9.6276 324.898 9.86914C325.145 10.1061 325.336 10.3955 325.473 10.7373C325.609 11.0791 325.678 11.4574 325.678 11.8721C325.678 12.2913 325.609 12.6719 325.473 13.0137C325.336 13.3509 325.145 13.6403 324.898 13.8818C324.652 14.1188 324.358 14.3034 324.017 14.4355C323.679 14.5677 323.31 14.6338 322.909 14.6338ZM329.964 9.24023H332.062L323.483 20H321.385L329.964 9.24023ZM322.909 13.2393C323.082 13.2393 323.244 13.2074 323.395 13.1436C323.549 13.0752 323.684 12.9818 323.798 12.8633C323.912 12.7402 324.001 12.5944 324.064 12.4258C324.133 12.2572 324.167 12.0726 324.167 11.8721C324.167 11.6715 324.133 11.487 324.064 11.3184C324.001 11.1497 323.912 11.0062 323.798 10.8877C323.684 10.7646 323.549 10.6712 323.395 10.6074C323.244 10.5391 323.082 10.5049 322.909 10.5049C322.736 10.5049 322.572 10.5391 322.417 10.6074C322.267 10.6712 322.134 10.7646 322.021 10.8877C321.907 11.0062 321.815 11.1497 321.747 11.3184C321.683 11.487 321.651 11.6715 321.651 11.8721C321.651 12.0726 321.683 12.2572 321.747 12.4258C321.815 12.5944 321.907 12.7402 322.021 12.8633C322.134 12.9818 322.267 13.0752 322.417 13.1436C322.572 13.2074 322.736 13.2393 322.909 13.2393ZM327.701 17.3818C327.701 16.9671 327.77 16.5889 327.906 16.2471C328.043 15.9053 328.234 15.6159 328.48 15.3789C328.727 15.1374 329.018 14.9505 329.355 14.8184C329.697 14.6862 330.069 14.6201 330.47 14.6201C330.871 14.6201 331.24 14.6862 331.577 14.8184C331.919 14.9505 332.213 15.1374 332.459 15.3789C332.705 15.6159 332.896 15.9053 333.033 16.2471C333.17 16.5889 333.238 16.9671 333.238 17.3818C333.238 17.8011 333.17 18.1816 333.033 18.5234C332.896 18.8607 332.705 19.1501 332.459 19.3916C332.213 19.6286 331.919 19.8132 331.577 19.9453C331.24 20.0775 330.871 20.1436 330.47 20.1436C330.069 20.1436 329.697 20.0775 329.355 19.9453C329.018 19.8132 328.727 19.6286 328.48 19.3916C328.234 19.1501 328.043 18.8607 327.906 18.5234C327.77 18.1816 327.701 17.8011 327.701 17.3818ZM329.212 17.3818C329.212 17.5824 329.244 17.7669 329.308 17.9355C329.376 18.1042 329.467 18.25 329.581 18.373C329.695 18.4915 329.827 18.585 329.978 18.6533C330.132 18.7171 330.297 18.749 330.47 18.749C330.643 18.749 330.805 18.7171 330.955 18.6533C331.11 18.585 331.244 18.4915 331.358 18.373C331.472 18.25 331.561 18.1042 331.625 17.9355C331.693 17.7669 331.728 17.5824 331.728 17.3818C331.728 17.1813 331.693 16.9967 331.625 16.8281C331.561 16.6595 331.472 16.516 331.358 16.3975C331.244 16.2744 331.11 16.181 330.955 16.1172C330.805 16.0488 330.643 16.0146 330.47 16.0146C330.297 16.0146 330.132 16.0488 329.978 16.1172C329.827 16.181 329.695 16.2744 329.581 16.3975C329.467 16.516 329.376 16.6595 329.308 16.8281C329.244 16.9967 329.212 17.1813 329.212 17.3818Z" fill="white"/>
<circle cx="15" cy="15" r="12.5" stroke="#FF56F6" stroke-width="5"/>
<path d="M52.8555 47.3154H61.9541V49.2158H55.0225V51.3486H61.1611V53.1328H55.0225V56.1064H62.0977V58H52.8555V47.3154ZM66.3428 53.9668L63.0068 49.9268H65.5908L67.6143 52.3877L69.5352 49.9268H72.0576L68.9199 53.96L72.2559 58H69.6719L67.5869 55.4775L65.6523 58H63.1299L66.3428 53.9668ZM73.0625 53.9873C73.0625 53.3949 73.1696 52.8434 73.3838 52.333C73.6025 51.818 73.9193 51.3737 74.334 51C74.7533 50.6217 75.2637 50.3255 75.8652 50.1113C76.4714 49.8971 77.1618 49.79 77.9365 49.79C78.2738 49.79 78.6133 49.8105 78.9551 49.8516C79.2969 49.8926 79.625 49.9518 79.9395 50.0293C80.2585 50.1022 80.557 50.1911 80.835 50.2959C81.113 50.3962 81.3545 50.5078 81.5596 50.6309L80.623 52.1553C80.181 51.9502 79.7617 51.7998 79.3652 51.7041C78.9733 51.6084 78.5745 51.5605 78.1689 51.5605C77.7041 51.5605 77.2871 51.6221 76.918 51.7451C76.5488 51.8636 76.2344 52.0322 75.9746 52.251C75.7194 52.4652 75.5234 52.7204 75.3867 53.0166C75.2546 53.3083 75.1885 53.6273 75.1885 53.9736C75.1885 54.32 75.2591 54.6413 75.4004 54.9375C75.5462 55.2292 75.749 55.4821 76.0088 55.6963C76.2731 55.9059 76.5898 56.0723 76.959 56.1953C77.3327 56.3138 77.7474 56.373 78.2031 56.373C78.7044 56.373 79.1761 56.3024 79.6182 56.1611C80.0648 56.0199 80.4795 55.8307 80.8623 55.5938L81.7988 57.1182C81.5573 57.264 81.2952 57.4007 81.0127 57.5283C80.7301 57.6514 80.4271 57.7585 80.1035 57.8496C79.7845 57.9408 79.4473 58.0114 79.0918 58.0615C78.7409 58.1162 78.3763 58.1436 77.998 58.1436C77.2279 58.1436 76.5374 58.0387 75.9268 57.8291C75.3161 57.6195 74.7988 57.3301 74.375 56.9609C73.9512 56.5872 73.6253 56.1475 73.3975 55.6416C73.1742 55.1357 73.0625 54.5843 73.0625 53.9873ZM83.9795 46.666H86.0029V50.5488C86.4268 50.3164 86.8984 50.1318 87.418 49.9951C87.9421 49.8584 88.4912 49.79 89.0654 49.79C89.7308 49.79 90.3278 49.888 90.8564 50.084C91.3896 50.2799 91.8408 50.5625 92.21 50.9316C92.5791 51.2962 92.8617 51.7406 93.0576 52.2646C93.2581 52.7887 93.3584 53.3789 93.3584 54.0352V58H91.3418V54.1172C91.3418 53.7344 91.2803 53.3857 91.1572 53.0713C91.0342 52.7523 90.8542 52.4788 90.6172 52.251C90.3802 52.0231 90.0908 51.8477 89.749 51.7246C89.4118 51.597 89.029 51.5332 88.6006 51.5332C88.0856 51.5332 87.6071 51.6152 87.165 51.7793C86.723 51.9434 86.3356 52.1507 86.0029 52.4014V58H83.9795V46.666ZM95.2451 55.457C95.2451 55.0697 95.3294 54.7165 95.498 54.3975C95.6667 54.0785 95.9196 53.805 96.2568 53.5771C96.5941 53.3447 97.0133 53.167 97.5146 53.0439C98.0205 52.9163 98.6084 52.8525 99.2783 52.8525C99.7751 52.8525 100.297 52.889 100.844 52.9619C101.395 53.0348 101.963 53.1465 102.546 53.2969C102.523 53.0417 102.446 52.807 102.313 52.5928C102.181 52.374 101.997 52.1872 101.76 52.0322C101.527 51.8727 101.245 51.7497 100.912 51.6631C100.584 51.5765 100.21 51.5332 99.791 51.5332C99.5632 51.5332 99.3125 51.5469 99.0391 51.5742C98.7656 51.6016 98.4831 51.6426 98.1914 51.6973C97.8997 51.752 97.6104 51.8203 97.3232 51.9023C97.0407 51.9844 96.7764 52.0824 96.5303 52.1963L95.915 50.5352C96.2204 50.4258 96.5462 50.3255 96.8926 50.2344C97.2435 50.1432 97.6012 50.0658 97.9658 50.002C98.3304 49.9336 98.695 49.8812 99.0596 49.8447C99.4242 49.8083 99.7773 49.79 100.119 49.79C101.628 49.79 102.749 50.1751 103.482 50.9453C104.216 51.7155 104.583 52.8958 104.583 54.4863V58H102.56V57.2412C102.35 57.3643 102.12 57.4805 101.869 57.5898C101.623 57.6992 101.354 57.7949 101.062 57.877C100.771 57.959 100.456 58.0228 100.119 58.0684C99.7865 58.1185 99.4333 58.1436 99.0596 58.1436C98.4307 58.1436 97.877 58.0752 97.3984 57.9385C96.9245 57.8018 96.528 57.6126 96.209 57.3711C95.89 57.1296 95.6484 56.847 95.4844 56.5234C95.3249 56.1953 95.2451 55.8398 95.2451 55.457ZM97.3779 55.3887C97.3779 55.5208 97.4121 55.6484 97.4805 55.7715C97.5488 55.89 97.6582 55.9971 97.8086 56.0928C97.959 56.1839 98.1504 56.2591 98.3828 56.3184C98.6198 56.373 98.9046 56.4004 99.2373 56.4004C99.5928 56.4004 99.9368 56.3685 100.27 56.3047C100.602 56.2409 100.912 56.1566 101.199 56.0518C101.486 55.9469 101.746 55.8262 101.979 55.6895C102.211 55.5527 102.405 55.4115 102.56 55.2656V54.9102C102.25 54.8236 101.942 54.7507 101.637 54.6914C101.336 54.6322 101.047 54.5866 100.769 54.5547C100.495 54.5182 100.235 54.4932 99.9893 54.4795C99.7477 54.4658 99.5358 54.459 99.3535 54.459C98.9753 54.459 98.6608 54.484 98.4102 54.5342C98.1595 54.5843 97.9567 54.6527 97.8018 54.7393C97.6468 54.8213 97.5374 54.9193 97.4736 55.0332C97.4098 55.1471 97.3779 55.2656 97.3779 55.3887ZM107.263 49.9336H109.286V50.6172C109.824 50.3118 110.337 50.0977 110.824 49.9746C111.316 49.8516 111.797 49.79 112.267 49.79C112.882 49.79 113.451 49.8812 113.976 50.0635C114.5 50.2412 114.953 50.5078 115.336 50.8633C115.719 51.2188 116.017 51.6631 116.231 52.1963C116.45 52.7249 116.56 53.3379 116.56 54.0352V58H114.543V54.3633C114.543 53.9212 114.479 53.527 114.352 53.1807C114.229 52.8298 114.049 52.5358 113.812 52.2988C113.579 52.0573 113.294 51.875 112.957 51.752C112.624 51.6243 112.251 51.5605 111.836 51.5605C111.617 51.5605 111.392 51.5833 111.159 51.6289C110.931 51.6745 110.706 51.7406 110.482 51.8271C110.264 51.9092 110.052 52.014 109.847 52.1416C109.642 52.2646 109.455 52.4059 109.286 52.5654V58H107.263V49.9336ZM120.312 59.3672C120.568 59.4583 120.827 59.5335 121.092 59.5928C121.356 59.6566 121.611 59.7067 121.857 59.7432C122.108 59.7842 122.347 59.8115 122.575 59.8252C122.803 59.8434 123.006 59.8525 123.184 59.8525C123.721 59.8525 124.188 59.7865 124.585 59.6543C124.986 59.5267 125.319 59.3535 125.583 59.1348C125.852 58.916 126.052 58.6608 126.185 58.3691C126.317 58.082 126.383 57.7767 126.383 57.4531V57.1045C126.21 57.223 126.007 57.3369 125.774 57.4463C125.542 57.5557 125.287 57.6514 125.009 57.7334C124.731 57.8154 124.435 57.8815 124.12 57.9316C123.81 57.9818 123.489 58.0068 123.156 58.0068C122.495 58.0068 121.885 57.9089 121.324 57.7129C120.764 57.5124 120.278 57.2344 119.868 56.8789C119.458 56.5189 119.137 56.0882 118.904 55.5869C118.676 55.0856 118.562 54.5296 118.562 53.9189C118.562 53.2946 118.683 52.7295 118.925 52.2236C119.166 51.7132 119.499 51.278 119.923 50.918C120.351 50.5579 120.857 50.2799 121.44 50.084C122.024 49.888 122.657 49.79 123.341 49.79C123.632 49.79 123.922 49.8083 124.209 49.8447C124.496 49.8812 124.77 49.9313 125.029 49.9951C125.294 50.0589 125.54 50.1364 125.768 50.2275C126 50.3141 126.205 50.4098 126.383 50.5146V49.9336H128.406V57.0771C128.406 57.8109 128.295 58.4603 128.071 59.0254C127.848 59.5905 127.52 60.0645 127.087 60.4473C126.659 60.8346 126.125 61.1263 125.487 61.3223C124.849 61.5228 124.118 61.623 123.293 61.623C122.997 61.623 122.689 61.6094 122.37 61.582C122.051 61.5592 121.73 61.5228 121.406 61.4727C121.087 61.4271 120.771 61.3701 120.456 61.3018C120.146 61.238 119.848 61.1628 119.561 61.0762L120.312 59.3672ZM120.688 53.8984C120.688 54.222 120.752 54.5273 120.88 54.8145C121.012 55.097 121.199 55.3454 121.44 55.5596C121.682 55.7692 121.974 55.9355 122.315 56.0586C122.657 56.1771 123.042 56.2363 123.471 56.2363C123.749 56.2363 124.024 56.2113 124.298 56.1611C124.576 56.1064 124.84 56.0312 125.091 55.9355C125.346 55.8398 125.583 55.7236 125.802 55.5869C126.025 55.4502 126.219 55.2975 126.383 55.1289V52.4697C126.178 52.3057 125.961 52.1667 125.733 52.0527C125.506 51.9388 125.273 51.8454 125.036 51.7725C124.799 51.6995 124.56 51.6471 124.318 51.6152C124.077 51.5788 123.842 51.5605 123.614 51.5605C123.149 51.5605 122.735 51.6221 122.37 51.7451C122.01 51.8682 121.705 52.0368 121.454 52.251C121.208 52.4606 121.019 52.7067 120.887 52.9893C120.755 53.2718 120.688 53.5749 120.688 53.8984ZM130.327 53.9395C130.327 53.3926 130.439 52.8708 130.662 52.374C130.885 51.8727 131.207 51.4307 131.626 51.0479C132.045 50.665 132.558 50.3597 133.164 50.1318C133.775 49.904 134.467 49.79 135.242 49.79C136.012 49.79 136.705 49.9062 137.32 50.1387C137.94 50.3665 138.464 50.681 138.893 51.082C139.326 51.4831 139.656 51.9548 139.884 52.4971C140.116 53.0394 140.232 53.6204 140.232 54.2402C140.232 54.3177 140.23 54.402 140.226 54.4932C140.226 54.5798 140.221 54.6595 140.212 54.7324H132.583C132.67 54.974 132.809 55.195 133 55.3955C133.196 55.596 133.44 55.7692 133.731 55.915C134.023 56.0609 134.36 56.1748 134.743 56.2568C135.126 56.3343 135.55 56.373 136.015 56.373C136.479 56.373 136.942 56.3252 137.402 56.2295C137.863 56.1292 138.302 56.0039 138.722 55.8535L139.405 57.3984C139.141 57.5215 138.872 57.6309 138.599 57.7266C138.33 57.8177 138.047 57.8952 137.751 57.959C137.459 58.0182 137.152 58.0638 136.828 58.0957C136.509 58.1276 136.172 58.1436 135.816 58.1436C134.91 58.1436 134.114 58.0342 133.431 57.8154C132.747 57.5967 132.175 57.2982 131.715 56.9199C131.255 56.5417 130.908 56.0973 130.676 55.5869C130.443 55.0765 130.327 54.5273 130.327 53.9395ZM138.086 53.1533C138.013 52.93 137.899 52.7227 137.744 52.5312C137.594 52.3353 137.405 52.1667 137.177 52.0254C136.949 51.8796 136.685 51.7656 136.384 51.6836C136.083 51.6016 135.753 51.5605 135.393 51.5605C135.01 51.5605 134.661 51.6038 134.347 51.6904C134.032 51.777 133.757 51.8932 133.52 52.0391C133.283 52.1849 133.084 52.3535 132.925 52.5449C132.77 52.7363 132.656 52.9391 132.583 53.1533H138.086ZM142.734 55.5254C143.281 55.8535 143.883 56.0951 144.539 56.25C145.195 56.4049 145.868 56.4824 146.556 56.4824C147.021 56.4824 147.408 56.4505 147.718 56.3867C148.028 56.3229 148.276 56.2409 148.463 56.1406C148.65 56.0404 148.782 55.9264 148.859 55.7988C148.937 55.6712 148.976 55.5413 148.976 55.4092C148.976 55.2178 148.891 55.0537 148.723 54.917C148.559 54.7803 148.285 54.7119 147.902 54.7119C147.725 54.7119 147.533 54.7233 147.328 54.7461C147.123 54.7689 146.907 54.7939 146.679 54.8213C146.455 54.8441 146.221 54.8669 145.975 54.8896C145.733 54.9124 145.487 54.9238 145.236 54.9238C144.689 54.9238 144.222 54.8646 143.835 54.7461C143.452 54.6276 143.14 54.4658 142.898 54.2607C142.657 54.0557 142.481 53.8141 142.372 53.5361C142.263 53.2536 142.208 52.9505 142.208 52.627C142.208 52.2168 142.304 51.8385 142.495 51.4922C142.687 51.1458 142.96 50.8473 143.315 50.5967C143.671 50.3415 144.099 50.1432 144.601 50.002C145.106 49.8607 145.669 49.79 146.289 49.79C146.613 49.79 146.95 49.8105 147.301 49.8516C147.656 49.888 148.005 49.9382 148.347 50.002C148.688 50.0658 149.017 50.141 149.331 50.2275C149.646 50.3096 149.924 50.3984 150.165 50.4941L149.529 52.0664C149.014 51.875 148.499 51.7246 147.984 51.6152C147.474 51.5013 146.948 51.4443 146.405 51.4443C146.027 51.4443 145.706 51.474 145.441 51.5332C145.182 51.5879 144.97 51.6631 144.806 51.7588C144.642 51.8499 144.521 51.957 144.443 52.0801C144.37 52.1986 144.334 52.3239 144.334 52.4561C144.334 52.5518 144.352 52.6383 144.389 52.7158C144.43 52.7933 144.493 52.8617 144.58 52.9209C144.671 52.9756 144.787 53.0189 144.929 53.0508C145.075 53.0781 145.252 53.0918 145.462 53.0918C145.653 53.0918 145.856 53.0804 146.07 53.0576C146.285 53.0348 146.508 53.012 146.74 52.9893C146.973 52.9619 147.212 52.9368 147.458 52.9141C147.709 52.8913 147.964 52.8799 148.224 52.8799C148.707 52.8799 149.128 52.9368 149.488 53.0508C149.853 53.1647 150.154 53.3242 150.391 53.5293C150.628 53.7344 150.805 53.9759 150.924 54.2539C151.042 54.5319 151.102 54.835 151.102 55.1631C151.102 55.5869 151.004 55.9811 150.808 56.3457C150.612 56.7103 150.32 57.027 149.933 57.2959C149.545 57.5602 149.062 57.7676 148.483 57.918C147.909 58.0684 147.244 58.1436 146.487 58.1436C146.022 58.1436 145.574 58.1139 145.141 58.0547C144.708 58 144.295 57.9248 143.903 57.8291C143.511 57.7288 143.142 57.6126 142.796 57.4805C142.454 57.3483 142.142 57.207 141.859 57.0566L142.734 55.5254Z" fill="white"/>
<path d="M297.828 56.1406L301.595 53.5566C302.16 53.1693 302.622 52.832 302.982 52.5449C303.342 52.2578 303.625 52.0026 303.83 51.7793C304.035 51.5514 304.176 51.3464 304.254 51.1641C304.331 50.9818 304.37 50.7995 304.37 50.6172C304.37 50.4076 304.327 50.2116 304.24 50.0293C304.154 49.847 304.017 49.6875 303.83 49.5508C303.648 49.4141 303.411 49.307 303.119 49.2295C302.832 49.152 302.488 49.1133 302.087 49.1133C301.504 49.1133 300.923 49.1953 300.344 49.3594C299.765 49.5234 299.175 49.7855 298.573 50.1455L297.575 48.5049C298.245 48.0902 298.97 47.7666 299.749 47.5342C300.533 47.3018 301.355 47.1855 302.217 47.1855C302.969 47.1855 303.62 47.2767 304.172 47.459C304.728 47.6367 305.186 47.8805 305.546 48.1904C305.91 48.5003 306.182 48.8604 306.359 49.2705C306.537 49.6807 306.626 50.1159 306.626 50.5762C306.626 50.9316 306.567 51.2712 306.448 51.5947C306.33 51.9183 306.122 52.2533 305.826 52.5996C305.53 52.946 305.129 53.3197 304.623 53.7207C304.122 54.1172 303.488 54.5684 302.723 55.0742L301.164 56.0996H307.016V58H297.828V56.1406ZM309.825 55.457C310.085 55.5892 310.365 55.7031 310.666 55.7988C310.971 55.89 311.284 55.9674 311.603 56.0312C311.926 56.0951 312.25 56.1429 312.573 56.1748C312.901 56.2021 313.22 56.2158 313.53 56.2158C314.077 56.2158 314.549 56.1771 314.945 56.0996C315.346 56.0176 315.674 55.9036 315.93 55.7578C316.189 55.612 316.381 55.4388 316.504 55.2383C316.632 55.0332 316.695 54.8076 316.695 54.5615C316.695 54.3109 316.629 54.0807 316.497 53.8711C316.369 53.6615 316.176 53.4814 315.916 53.3311C315.661 53.1807 315.337 53.0645 314.945 52.9824C314.558 52.8958 314.104 52.8525 313.585 52.8525C313.353 52.8525 313.09 52.8639 312.799 52.8867C312.507 52.9049 312.197 52.9368 311.869 52.9824C311.541 53.028 311.199 53.0918 310.844 53.1738C310.488 53.2513 310.128 53.347 309.764 53.4609V47.3154H317.96V49.2363H311.767V51.3076C312.108 51.2301 312.466 51.1663 312.84 51.1162C313.214 51.0615 313.631 51.0342 314.091 51.0342C314.843 51.0342 315.515 51.1162 316.107 51.2803C316.7 51.4443 317.199 51.679 317.604 51.9844C318.015 52.2897 318.327 52.6589 318.541 53.0918C318.755 53.5202 318.862 54.001 318.862 54.5342C318.862 55.0856 318.746 55.5846 318.514 56.0312C318.286 56.4733 317.946 56.8516 317.495 57.166C317.049 57.4805 316.497 57.722 315.841 57.8906C315.189 58.0592 314.439 58.1436 313.592 58.1436C313.154 58.1436 312.719 58.1185 312.286 58.0684C311.858 58.0228 311.441 57.9567 311.035 57.8701C310.63 57.779 310.24 57.6696 309.866 57.542C309.497 57.4098 309.151 57.2617 308.827 57.0977L309.825 55.457ZM322.909 52.6338C322.508 52.6338 322.137 52.5677 321.795 52.4355C321.458 52.3034 321.166 52.1188 320.92 51.8818C320.674 51.6403 320.482 51.3509 320.346 51.0137C320.209 50.6719 320.141 50.2913 320.141 49.8721C320.141 49.4574 320.209 49.0791 320.346 48.7373C320.482 48.3955 320.674 48.1061 320.92 47.8691C321.166 47.6276 321.458 47.4408 321.795 47.3086C322.137 47.1764 322.508 47.1104 322.909 47.1104C323.31 47.1104 323.679 47.1764 324.017 47.3086C324.358 47.4408 324.652 47.6276 324.898 47.8691C325.145 48.1061 325.336 48.3955 325.473 48.7373C325.609 49.0791 325.678 49.4574 325.678 49.8721C325.678 50.2913 325.609 50.6719 325.473 51.0137C325.336 51.3509 325.145 51.6403 324.898 51.8818C324.652 52.1188 324.358 52.3034 324.017 52.4355C323.679 52.5677 323.31 52.6338 322.909 52.6338ZM329.964 47.2402H332.062L323.483 58H321.385L329.964 47.2402ZM322.909 51.2393C323.082 51.2393 323.244 51.2074 323.395 51.1436C323.549 51.0752 323.684 50.9818 323.798 50.8633C323.912 50.7402 324.001 50.5944 324.064 50.4258C324.133 50.2572 324.167 50.0726 324.167 49.8721C324.167 49.6715 324.133 49.487 324.064 49.3184C324.001 49.1497 323.912 49.0062 323.798 48.8877C323.684 48.7646 323.549 48.6712 323.395 48.6074C323.244 48.5391 323.082 48.5049 322.909 48.5049C322.736 48.5049 322.572 48.5391 322.417 48.6074C322.267 48.6712 322.134 48.7646 322.021 48.8877C321.907 49.0062 321.815 49.1497 321.747 49.3184C321.683 49.487 321.651 49.6715 321.651 49.8721C321.651 50.0726 321.683 50.2572 321.747 50.4258C321.815 50.5944 321.907 50.7402 322.021 50.8633C322.134 50.9818 322.267 51.0752 322.417 51.1436C322.572 51.2074 322.736 51.2393 322.909 51.2393ZM327.701 55.3818C327.701 54.9671 327.77 54.5889 327.906 54.2471C328.043 53.9053 328.234 53.6159 328.48 53.3789C328.727 53.1374 329.018 52.9505 329.355 52.8184C329.697 52.6862 330.069 52.6201 330.47 52.6201C330.871 52.6201 331.24 52.6862 331.577 52.8184C331.919 52.9505 332.213 53.1374 332.459 53.3789C332.705 53.6159 332.896 53.9053 333.033 54.2471C333.17 54.5889 333.238 54.9671 333.238 55.3818C333.238 55.8011 333.17 56.1816 333.033 56.5234C332.896 56.8607 332.705 57.1501 332.459 57.3916C332.213 57.6286 331.919 57.8132 331.577 57.9453C331.24 58.0775 330.871 58.1436 330.47 58.1436C330.069 58.1436 329.697 58.0775 329.355 57.9453C329.018 57.8132 328.727 57.6286 328.48 57.3916C328.234 57.1501 328.043 56.8607 327.906 56.5234C327.77 56.1816 327.701 55.8011 327.701 55.3818ZM329.212 55.3818C329.212 55.5824 329.244 55.7669 329.308 55.9355C329.376 56.1042 329.467 56.25 329.581 56.373C329.695 56.4915 329.827 56.585 329.978 56.6533C330.132 56.7171 330.297 56.749 330.47 56.749C330.643 56.749 330.805 56.7171 330.955 56.6533C331.11 56.585 331.244 56.4915 331.358 56.373C331.472 56.25 331.561 56.1042 331.625 55.9355C331.693 55.7669 331.728 55.5824 331.728 55.3818C331.728 55.1813 331.693 54.9967 331.625 54.8281C331.561 54.6595 331.472 54.516 331.358 54.3975C331.244 54.2744 331.11 54.181 330.955 54.1172C330.805 54.0488 330.643 54.0146 330.47 54.0146C330.297 54.0146 330.132 54.0488 329.978 54.1172C329.827 54.181 329.695 54.2744 329.581 54.3975C329.467 54.516 329.376 54.6595 329.308 54.8281C329.244 54.9967 329.212 55.1813 329.212 55.3818Z" fill="white"/>
<circle cx="15" cy="53" r="12.5" stroke="#A260F3" stroke-width="5"/>
<path d="M48.0029 85.3154H53.6357C54.4561 85.3154 55.167 85.4043 55.7686 85.582C56.3701 85.7598 56.8691 86.0173 57.2656 86.3545C57.6621 86.6872 57.9561 87.0951 58.1475 87.5781C58.3434 88.0612 58.4414 88.6058 58.4414 89.2119C58.4414 89.7816 58.3457 90.3079 58.1543 90.791C57.9629 91.2741 57.6689 91.6934 57.2725 92.0488C56.8805 92.3997 56.3838 92.6755 55.7822 92.876C55.1807 93.0719 54.4697 93.1699 53.6494 93.1699L50.1699 93.1631V96H48.0029V85.3154ZM53.6904 91.29C54.1006 91.29 54.4583 91.2422 54.7637 91.1465C55.0736 91.0462 55.3311 90.9072 55.5361 90.7295C55.7458 90.5472 55.9007 90.3285 56.001 90.0732C56.1058 89.8135 56.1582 89.5264 56.1582 89.2119C56.1582 88.5785 55.9508 88.0863 55.5361 87.7354C55.126 87.3799 54.5107 87.2021 53.6904 87.2021H50.1699V91.29H53.6904ZM60.1777 93.457C60.1777 93.0697 60.262 92.7165 60.4307 92.3975C60.5993 92.0785 60.8522 91.805 61.1895 91.5771C61.5267 91.3447 61.946 91.167 62.4473 91.0439C62.9531 90.9163 63.541 90.8525 64.2109 90.8525C64.7077 90.8525 65.2295 90.889 65.7764 90.9619C66.3278 91.0348 66.8952 91.1465 67.4785 91.2969C67.4557 91.0417 67.3783 90.807 67.2461 90.5928C67.1139 90.374 66.9294 90.1872 66.6924 90.0322C66.46 89.8727 66.1774 89.7497 65.8447 89.6631C65.5166 89.5765 65.1429 89.5332 64.7236 89.5332C64.4958 89.5332 64.2451 89.5469 63.9717 89.5742C63.6982 89.6016 63.4157 89.6426 63.124 89.6973C62.8324 89.752 62.543 89.8203 62.2559 89.9023C61.9733 89.9844 61.709 90.0824 61.4629 90.1963L60.8477 88.5352C61.153 88.4258 61.4788 88.3255 61.8252 88.2344C62.1761 88.1432 62.5339 88.0658 62.8984 88.002C63.263 87.9336 63.6276 87.8812 63.9922 87.8447C64.3568 87.8083 64.71 87.79 65.0518 87.79C66.5602 87.79 67.6813 88.1751 68.415 88.9453C69.1488 89.7155 69.5156 90.8958 69.5156 92.4863V96H67.4922V95.2412C67.2826 95.3643 67.0524 95.4805 66.8018 95.5898C66.5557 95.6992 66.2868 95.7949 65.9951 95.877C65.7035 95.959 65.389 96.0228 65.0518 96.0684C64.7191 96.1185 64.3659 96.1436 63.9922 96.1436C63.3633 96.1436 62.8096 96.0752 62.3311 95.9385C61.8571 95.8018 61.4606 95.6126 61.1416 95.3711C60.8226 95.1296 60.5811 94.847 60.417 94.5234C60.2575 94.1953 60.1777 93.8398 60.1777 93.457ZM62.3105 93.3887C62.3105 93.5208 62.3447 93.6484 62.4131 93.7715C62.4814 93.89 62.5908 93.9971 62.7412 94.0928C62.8916 94.1839 63.083 94.2591 63.3154 94.3184C63.5524 94.373 63.8372 94.4004 64.1699 94.4004C64.5254 94.4004 64.8695 94.3685 65.2021 94.3047C65.5348 94.2409 65.8447 94.1566 66.1318 94.0518C66.4189 93.9469 66.6787 93.8262 66.9111 93.6895C67.1436 93.5527 67.3372 93.4115 67.4922 93.2656V92.9102C67.1823 92.8236 66.8747 92.7507 66.5693 92.6914C66.2686 92.6322 65.9792 92.5866 65.7012 92.5547C65.4277 92.5182 65.168 92.4932 64.9219 92.4795C64.6803 92.4658 64.4684 92.459 64.2861 92.459C63.9079 92.459 63.5934 92.484 63.3428 92.5342C63.0921 92.5843 62.8893 92.6527 62.7344 92.7393C62.5794 92.8213 62.4701 92.9193 62.4062 93.0332C62.3424 93.1471 62.3105 93.2656 62.3105 93.3887ZM72.1953 87.9336H74.2188V89.0957C74.6654 88.763 75.137 88.4759 75.6338 88.2344C76.1305 87.9928 76.625 87.8083 77.1172 87.6807L77.7119 89.5332C76.9326 89.6107 76.2467 89.7861 75.6543 90.0596C75.0664 90.3285 74.5879 90.709 74.2188 91.2012V96H72.1953V87.9336ZM80.4395 89.4512H78.4912V87.9336H80.4395V85.4248H82.4629V87.9336H84.4111V89.4512H82.4629V96H80.4395V89.4512ZM86.209 87.9336H88.2324V88.6172C88.7702 88.3118 89.2829 88.0977 89.7705 87.9746C90.2627 87.8516 90.7435 87.79 91.2129 87.79C91.8281 87.79 92.3978 87.8812 92.9219 88.0635C93.446 88.2412 93.8994 88.5078 94.2822 88.8633C94.665 89.2188 94.9635 89.6631 95.1777 90.1963C95.3965 90.7249 95.5059 91.3379 95.5059 92.0352V96H93.4893V92.3633C93.4893 91.9212 93.4255 91.527 93.2979 91.1807C93.1748 90.8298 92.9948 90.5358 92.7578 90.2988C92.5254 90.0573 92.2406 89.875 91.9033 89.752C91.5706 89.6243 91.1969 89.5605 90.7822 89.5605C90.5635 89.5605 90.3379 89.5833 90.1055 89.6289C89.8776 89.6745 89.652 89.7406 89.4287 89.8271C89.21 89.9092 88.998 90.014 88.793 90.1416C88.5879 90.2646 88.401 90.4059 88.2324 90.5654V96H86.209V87.9336ZM97.6113 91.9395C97.6113 91.3926 97.723 90.8708 97.9463 90.374C98.1696 89.8727 98.4909 89.4307 98.9102 89.0479C99.3294 88.665 99.8421 88.3597 100.448 88.1318C101.059 87.904 101.752 87.79 102.526 87.79C103.297 87.79 103.989 87.9062 104.604 88.1387C105.224 88.3665 105.748 88.681 106.177 89.082C106.61 89.4831 106.94 89.9548 107.168 90.4971C107.4 91.0394 107.517 91.6204 107.517 92.2402C107.517 92.3177 107.514 92.402 107.51 92.4932C107.51 92.5798 107.505 92.6595 107.496 92.7324H99.8672C99.9538 92.974 100.093 93.195 100.284 93.3955C100.48 93.596 100.724 93.7692 101.016 93.915C101.307 94.0609 101.645 94.1748 102.027 94.2568C102.41 94.3343 102.834 94.373 103.299 94.373C103.764 94.373 104.226 94.3252 104.687 94.2295C105.147 94.1292 105.587 94.0039 106.006 93.8535L106.689 95.3984C106.425 95.5215 106.156 95.6309 105.883 95.7266C105.614 95.8177 105.331 95.8952 105.035 95.959C104.743 96.0182 104.436 96.0638 104.112 96.0957C103.793 96.1276 103.456 96.1436 103.101 96.1436C102.194 96.1436 101.398 96.0342 100.715 95.8154C100.031 95.5967 99.4593 95.2982 98.999 94.9199C98.5387 94.5417 98.1924 94.0973 97.96 93.5869C97.7275 93.0765 97.6113 92.5273 97.6113 91.9395ZM105.37 91.1533C105.297 90.93 105.183 90.7227 105.028 90.5312C104.878 90.3353 104.689 90.1667 104.461 90.0254C104.233 89.8796 103.969 89.7656 103.668 89.6836C103.367 89.6016 103.037 89.5605 102.677 89.5605C102.294 89.5605 101.945 89.6038 101.631 89.6904C101.316 89.777 101.041 89.8932 100.804 90.0391C100.567 90.1849 100.368 90.3535 100.209 90.5449C100.054 90.7363 99.9401 90.9391 99.8672 91.1533H105.37ZM109.697 87.9336H111.721V89.0957C112.167 88.763 112.639 88.4759 113.136 88.2344C113.632 87.9928 114.127 87.8083 114.619 87.6807L115.214 89.5332C114.435 89.6107 113.749 89.7861 113.156 90.0596C112.568 90.3285 112.09 90.709 111.721 91.2012V96H109.697V87.9336ZM117.046 93.5254C117.593 93.8535 118.194 94.0951 118.851 94.25C119.507 94.4049 120.179 94.4824 120.867 94.4824C121.332 94.4824 121.719 94.4505 122.029 94.3867C122.339 94.3229 122.588 94.2409 122.774 94.1406C122.961 94.0404 123.093 93.9264 123.171 93.7988C123.248 93.6712 123.287 93.5413 123.287 93.4092C123.287 93.2178 123.203 93.0537 123.034 92.917C122.87 92.7803 122.597 92.7119 122.214 92.7119C122.036 92.7119 121.845 92.7233 121.64 92.7461C121.435 92.7689 121.218 92.7939 120.99 92.8213C120.767 92.8441 120.532 92.8669 120.286 92.8896C120.045 92.9124 119.799 92.9238 119.548 92.9238C119.001 92.9238 118.534 92.8646 118.146 92.7461C117.764 92.6276 117.451 92.4658 117.21 92.2607C116.968 92.0557 116.793 91.8141 116.684 91.5361C116.574 91.2536 116.52 90.9505 116.52 90.627C116.52 90.2168 116.615 89.8385 116.807 89.4922C116.998 89.1458 117.271 88.8473 117.627 88.5967C117.982 88.3415 118.411 88.1432 118.912 88.002C119.418 87.8607 119.981 87.79 120.601 87.79C120.924 87.79 121.261 87.8105 121.612 87.8516C121.968 87.888 122.316 87.9382 122.658 88.002C123 88.0658 123.328 88.141 123.643 88.2275C123.957 88.3096 124.235 88.3984 124.477 88.4941L123.841 90.0664C123.326 89.875 122.811 89.7246 122.296 89.6152C121.785 89.5013 121.259 89.4443 120.717 89.4443C120.339 89.4443 120.017 89.474 119.753 89.5332C119.493 89.5879 119.281 89.6631 119.117 89.7588C118.953 89.8499 118.832 89.957 118.755 90.0801C118.682 90.1986 118.646 90.3239 118.646 90.4561C118.646 90.5518 118.664 90.6383 118.7 90.7158C118.741 90.7933 118.805 90.8617 118.892 90.9209C118.983 90.9756 119.099 91.0189 119.24 91.0508C119.386 91.0781 119.564 91.0918 119.773 91.0918C119.965 91.0918 120.168 91.0804 120.382 91.0576C120.596 91.0348 120.819 91.012 121.052 90.9893C121.284 90.9619 121.523 90.9368 121.77 90.9141C122.02 90.8913 122.275 90.8799 122.535 90.8799C123.018 90.8799 123.44 90.9368 123.8 91.0508C124.164 91.1647 124.465 91.3242 124.702 91.5293C124.939 91.7344 125.117 91.9759 125.235 92.2539C125.354 92.5319 125.413 92.835 125.413 93.1631C125.413 93.5869 125.315 93.9811 125.119 94.3457C124.923 94.7103 124.632 95.027 124.244 95.2959C123.857 95.5602 123.374 95.7676 122.795 95.918C122.221 96.0684 121.555 96.1436 120.799 96.1436C120.334 96.1436 119.885 96.1139 119.452 96.0547C119.019 96 118.607 95.9248 118.215 95.8291C117.823 95.7288 117.454 95.6126 117.107 95.4805C116.766 95.3483 116.453 95.207 116.171 95.0566L117.046 93.5254ZM127.238 84.666H129.262V88.5488C129.686 88.3164 130.157 88.1318 130.677 87.9951C131.201 87.8584 131.75 87.79 132.324 87.79C132.99 87.79 133.587 87.888 134.115 88.084C134.648 88.2799 135.1 88.5625 135.469 88.9316C135.838 89.2962 136.12 89.7406 136.316 90.2646C136.517 90.7887 136.617 91.3789 136.617 92.0352V96H134.601V92.1172C134.601 91.7344 134.539 91.3857 134.416 91.0713C134.293 90.7523 134.113 90.4788 133.876 90.251C133.639 90.0231 133.35 89.8477 133.008 89.7246C132.671 89.597 132.288 89.5332 131.859 89.5332C131.344 89.5332 130.866 89.6152 130.424 89.7793C129.982 89.9434 129.594 90.1507 129.262 90.4014V96H127.238V84.666ZM139.953 86.833C139.753 86.833 139.57 86.8057 139.406 86.751C139.247 86.6917 139.11 86.6143 138.996 86.5186C138.882 86.4183 138.793 86.3044 138.729 86.1768C138.67 86.0446 138.641 85.9056 138.641 85.7598C138.641 85.6094 138.67 85.4704 138.729 85.3428C138.793 85.2106 138.882 85.0967 138.996 85.001C139.11 84.9053 139.247 84.8301 139.406 84.7754C139.57 84.7161 139.753 84.6865 139.953 84.6865C140.158 84.6865 140.34 84.7161 140.5 84.7754C140.664 84.8301 140.803 84.9053 140.917 85.001C141.031 85.0967 141.118 85.2106 141.177 85.3428C141.241 85.4704 141.272 85.6094 141.272 85.7598C141.272 85.9056 141.241 86.0446 141.177 86.1768C141.118 86.3044 141.031 86.4183 140.917 86.5186C140.803 86.6143 140.664 86.6917 140.5 86.751C140.34 86.8057 140.158 86.833 139.953 86.833ZM138.941 87.9336H140.965V96H138.941V87.9336ZM145.531 99.2949H143.508V87.9336H145.531V88.6924C145.709 88.5693 145.919 88.4531 146.16 88.3438C146.402 88.2344 146.661 88.1387 146.939 88.0566C147.217 87.9746 147.505 87.9108 147.801 87.8652C148.097 87.8151 148.393 87.79 148.689 87.79C149.373 87.79 150 87.8903 150.569 88.0908C151.144 88.2913 151.636 88.5739 152.046 88.9385C152.456 89.3031 152.775 89.7406 153.003 90.251C153.235 90.7568 153.352 91.3174 153.352 91.9326C153.352 92.5752 153.231 93.1562 152.989 93.6758C152.748 94.1908 152.413 94.6328 151.984 95.002C151.561 95.3665 151.055 95.6491 150.467 95.8496C149.883 96.0456 149.25 96.1436 148.566 96.1436C148.275 96.1436 147.985 96.1253 147.698 96.0889C147.416 96.0524 147.142 96.0023 146.878 95.9385C146.618 95.8747 146.372 95.7995 146.14 95.7129C145.912 95.6217 145.709 95.5238 145.531 95.4189V99.2949ZM145.531 93.4639C145.736 93.6279 145.953 93.7669 146.181 93.8809C146.409 93.9948 146.641 94.0882 146.878 94.1611C147.115 94.234 147.354 94.2887 147.596 94.3252C147.837 94.3571 148.072 94.373 148.3 94.373C148.765 94.373 149.177 94.3115 149.537 94.1885C149.902 94.0609 150.207 93.8877 150.453 93.6689C150.704 93.4502 150.895 93.1927 151.027 92.8965C151.16 92.6003 151.226 92.279 151.226 91.9326C151.226 91.609 151.16 91.3037 151.027 91.0166C150.9 90.7295 150.713 90.4788 150.467 90.2646C150.225 90.0459 149.931 89.875 149.585 89.752C149.243 89.6243 148.858 89.5605 148.43 89.5605C148.156 89.5605 147.883 89.5879 147.609 89.6426C147.336 89.6927 147.072 89.7656 146.816 89.8613C146.566 89.957 146.329 90.0732 146.105 90.21C145.887 90.3467 145.695 90.4993 145.531 90.668V93.4639ZM155.587 93.5254C156.134 93.8535 156.735 94.0951 157.392 94.25C158.048 94.4049 158.72 94.4824 159.408 94.4824C159.873 94.4824 160.26 94.4505 160.57 94.3867C160.88 94.3229 161.129 94.2409 161.315 94.1406C161.502 94.0404 161.634 93.9264 161.712 93.7988C161.789 93.6712 161.828 93.5413 161.828 93.4092C161.828 93.2178 161.744 93.0537 161.575 92.917C161.411 92.7803 161.138 92.7119 160.755 92.7119C160.577 92.7119 160.386 92.7233 160.181 92.7461C159.976 92.7689 159.759 92.7939 159.531 92.8213C159.308 92.8441 159.073 92.8669 158.827 92.8896C158.586 92.9124 158.34 92.9238 158.089 92.9238C157.542 92.9238 157.075 92.8646 156.688 92.7461C156.305 92.6276 155.993 92.4658 155.751 92.2607C155.509 92.0557 155.334 91.8141 155.225 91.5361C155.115 91.2536 155.061 90.9505 155.061 90.627C155.061 90.2168 155.156 89.8385 155.348 89.4922C155.539 89.1458 155.812 88.8473 156.168 88.5967C156.523 88.3415 156.952 88.1432 157.453 88.002C157.959 87.8607 158.522 87.79 159.142 87.79C159.465 87.79 159.802 87.8105 160.153 87.8516C160.509 87.888 160.857 87.9382 161.199 88.002C161.541 88.0658 161.869 88.141 162.184 88.2275C162.498 88.3096 162.776 88.3984 163.018 88.4941L162.382 90.0664C161.867 89.875 161.352 89.7246 160.837 89.6152C160.326 89.5013 159.8 89.4443 159.258 89.4443C158.88 89.4443 158.558 89.474 158.294 89.5332C158.034 89.5879 157.822 89.6631 157.658 89.7588C157.494 89.8499 157.373 89.957 157.296 90.0801C157.223 90.1986 157.187 90.3239 157.187 90.4561C157.187 90.5518 157.205 90.6383 157.241 90.7158C157.282 90.7933 157.346 90.8617 157.433 90.9209C157.524 90.9756 157.64 91.0189 157.781 91.0508C157.927 91.0781 158.105 91.0918 158.314 91.0918C158.506 91.0918 158.709 91.0804 158.923 91.0576C159.137 91.0348 159.36 91.012 159.593 90.9893C159.825 90.9619 160.064 90.9368 160.311 90.9141C160.561 90.8913 160.816 90.8799 161.076 90.8799C161.559 90.8799 161.981 90.9368 162.341 91.0508C162.705 91.1647 163.006 91.3242 163.243 91.5293C163.48 91.7344 163.658 91.9759 163.776 92.2539C163.895 92.5319 163.954 92.835 163.954 93.1631C163.954 93.5869 163.856 93.9811 163.66 94.3457C163.464 94.7103 163.173 95.027 162.785 95.2959C162.398 95.5602 161.915 95.7676 161.336 95.918C160.762 96.0684 160.096 96.1436 159.34 96.1436C158.875 96.1436 158.426 96.1139 157.993 96.0547C157.56 96 157.148 95.9248 156.756 95.8291C156.364 95.7288 155.995 95.6126 155.648 95.4805C155.307 95.3483 154.994 95.207 154.712 95.0566L155.587 93.5254Z" fill="white"/>
<path d="M299.195 94.0996H301.622V87.4482C301.303 87.5212 300.995 87.6169 300.699 87.7354C300.408 87.8538 300.141 87.9974 299.899 88.166L298.833 86.6416C299.225 86.3955 299.624 86.1882 300.029 86.0195C300.439 85.8464 300.852 85.7096 301.267 85.6094C301.686 85.5046 302.105 85.4294 302.524 85.3838C302.948 85.3382 303.37 85.3154 303.789 85.3154L303.782 85.3291H303.789V94.0996H306.106V96H299.195V94.0996ZM308.068 93.457C308.328 93.5892 308.608 93.7031 308.909 93.7988C309.215 93.89 309.527 93.9674 309.846 94.0312C310.169 94.0951 310.493 94.1429 310.816 94.1748C311.145 94.2021 311.464 94.2158 311.773 94.2158C312.32 94.2158 312.792 94.1771 313.188 94.0996C313.59 94.0176 313.918 93.9036 314.173 93.7578C314.433 93.612 314.624 93.4388 314.747 93.2383C314.875 93.0332 314.938 92.8076 314.938 92.5615C314.938 92.3109 314.872 92.0807 314.74 91.8711C314.613 91.6615 314.419 91.4814 314.159 91.3311C313.904 91.1807 313.58 91.0645 313.188 90.9824C312.801 90.8958 312.348 90.8525 311.828 90.8525C311.596 90.8525 311.334 90.8639 311.042 90.8867C310.75 90.9049 310.44 90.9368 310.112 90.9824C309.784 91.028 309.442 91.0918 309.087 91.1738C308.731 91.2513 308.371 91.347 308.007 91.4609V85.3154H316.203V87.2363H310.01V89.3076C310.352 89.2301 310.709 89.1663 311.083 89.1162C311.457 89.0615 311.874 89.0342 312.334 89.0342C313.086 89.0342 313.758 89.1162 314.351 89.2803C314.943 89.4443 315.442 89.679 315.848 89.9844C316.258 90.2897 316.57 90.6589 316.784 91.0918C316.998 91.5202 317.105 92.001 317.105 92.5342C317.105 93.0856 316.989 93.5846 316.757 94.0312C316.529 94.4733 316.189 94.8516 315.738 95.166C315.292 95.4805 314.74 95.722 314.084 95.8906C313.432 96.0592 312.683 96.1436 311.835 96.1436C311.397 96.1436 310.962 96.1185 310.529 96.0684C310.101 96.0228 309.684 95.9567 309.278 95.8701C308.873 95.779 308.483 95.6696 308.109 95.542C307.74 95.4098 307.394 95.2617 307.07 95.0977L308.068 93.457ZM321.152 90.6338C320.751 90.6338 320.38 90.5677 320.038 90.4355C319.701 90.3034 319.409 90.1188 319.163 89.8818C318.917 89.6403 318.726 89.3509 318.589 89.0137C318.452 88.6719 318.384 88.2913 318.384 87.8721C318.384 87.4574 318.452 87.0791 318.589 86.7373C318.726 86.3955 318.917 86.1061 319.163 85.8691C319.409 85.6276 319.701 85.4408 320.038 85.3086C320.38 85.1764 320.751 85.1104 321.152 85.1104C321.553 85.1104 321.923 85.1764 322.26 85.3086C322.602 85.4408 322.896 85.6276 323.142 85.8691C323.388 86.1061 323.579 86.3955 323.716 86.7373C323.853 87.0791 323.921 87.4574 323.921 87.8721C323.921 88.2913 323.853 88.6719 323.716 89.0137C323.579 89.3509 323.388 89.6403 323.142 89.8818C322.896 90.1188 322.602 90.3034 322.26 90.4355C321.923 90.5677 321.553 90.6338 321.152 90.6338ZM328.207 85.2402H330.306L321.727 96H319.628L328.207 85.2402ZM321.152 89.2393C321.326 89.2393 321.487 89.2074 321.638 89.1436C321.793 89.0752 321.927 88.9818 322.041 88.8633C322.155 88.7402 322.244 88.5944 322.308 88.4258C322.376 88.2572 322.41 88.0726 322.41 87.8721C322.41 87.6715 322.376 87.487 322.308 87.3184C322.244 87.1497 322.155 87.0062 322.041 86.8877C321.927 86.7646 321.793 86.6712 321.638 86.6074C321.487 86.5391 321.326 86.5049 321.152 86.5049C320.979 86.5049 320.815 86.5391 320.66 86.6074C320.51 86.6712 320.378 86.7646 320.264 86.8877C320.15 87.0062 320.059 87.1497 319.99 87.3184C319.926 87.487 319.895 87.6715 319.895 87.8721C319.895 88.0726 319.926 88.2572 319.99 88.4258C320.059 88.5944 320.15 88.7402 320.264 88.8633C320.378 88.9818 320.51 89.0752 320.66 89.1436C320.815 89.2074 320.979 89.2393 321.152 89.2393ZM325.944 93.3818C325.944 92.9671 326.013 92.5889 326.149 92.2471C326.286 91.9053 326.478 91.6159 326.724 91.3789C326.97 91.1374 327.261 90.9505 327.599 90.8184C327.94 90.6862 328.312 90.6201 328.713 90.6201C329.114 90.6201 329.483 90.6862 329.82 90.8184C330.162 90.9505 330.456 91.1374 330.702 91.3789C330.948 91.6159 331.14 91.9053 331.276 92.2471C331.413 92.5889 331.481 92.9671 331.481 93.3818C331.481 93.8011 331.413 94.1816 331.276 94.5234C331.14 94.8607 330.948 95.1501 330.702 95.3916C330.456 95.6286 330.162 95.8132 329.82 95.9453C329.483 96.0775 329.114 96.1436 328.713 96.1436C328.312 96.1436 327.94 96.0775 327.599 95.9453C327.261 95.8132 326.97 95.6286 326.724 95.3916C326.478 95.1501 326.286 94.8607 326.149 94.5234C326.013 94.1816 325.944 93.8011 325.944 93.3818ZM327.455 93.3818C327.455 93.5824 327.487 93.7669 327.551 93.9355C327.619 94.1042 327.71 94.25 327.824 94.373C327.938 94.4915 328.07 94.585 328.221 94.6533C328.376 94.7171 328.54 94.749 328.713 94.749C328.886 94.749 329.048 94.7171 329.198 94.6533C329.353 94.585 329.488 94.4915 329.602 94.373C329.715 94.25 329.804 94.1042 329.868 93.9355C329.937 93.7669 329.971 93.5824 329.971 93.3818C329.971 93.1813 329.937 92.9967 329.868 92.8281C329.804 92.6595 329.715 92.516 329.602 92.3975C329.488 92.2744 329.353 92.181 329.198 92.1172C329.048 92.0488 328.886 92.0146 328.713 92.0146C328.54 92.0146 328.376 92.0488 328.221 92.1172C328.07 92.181 327.938 92.2744 327.824 92.3975C327.71 92.516 327.619 92.6595 327.551 92.8281C327.487 92.9967 327.455 93.1813 327.455 93.3818Z" fill="white"/>
<circle cx="15" cy="91" r="12.5" stroke="#3BACE2" stroke-width="5"/>
<path d="M55.9609 125.216H52.0166V123.315H62.0723V125.216H58.1279V134H55.9609V125.216ZM63.7539 129.939C63.7539 129.393 63.8656 128.871 64.0889 128.374C64.3122 127.873 64.6335 127.431 65.0527 127.048C65.472 126.665 65.9847 126.36 66.5908 126.132C67.2015 125.904 67.8942 125.79 68.6689 125.79C69.4391 125.79 70.1318 125.906 70.7471 126.139C71.3669 126.367 71.891 126.681 72.3193 127.082C72.7523 127.483 73.0827 127.955 73.3105 128.497C73.543 129.039 73.6592 129.62 73.6592 130.24C73.6592 130.318 73.6569 130.402 73.6523 130.493C73.6523 130.58 73.6478 130.66 73.6387 130.732H66.0098C66.0964 130.974 66.2354 131.195 66.4268 131.396C66.6227 131.596 66.8665 131.769 67.1582 131.915C67.4499 132.061 67.7871 132.175 68.1699 132.257C68.5527 132.334 68.9766 132.373 69.4414 132.373C69.9062 132.373 70.3688 132.325 70.8291 132.229C71.2894 132.129 71.7292 132.004 72.1484 131.854L72.832 133.398C72.5677 133.521 72.2988 133.631 72.0254 133.727C71.7565 133.818 71.474 133.895 71.1777 133.959C70.8861 134.018 70.5785 134.064 70.2549 134.096C69.9359 134.128 69.5986 134.144 69.2432 134.144C68.3363 134.144 67.541 134.034 66.8574 133.815C66.1738 133.597 65.6019 133.298 65.1416 132.92C64.6813 132.542 64.335 132.097 64.1025 131.587C63.8701 131.076 63.7539 130.527 63.7539 129.939ZM71.5127 129.153C71.4398 128.93 71.3258 128.723 71.1709 128.531C71.0205 128.335 70.8314 128.167 70.6035 128.025C70.3757 127.88 70.1113 127.766 69.8105 127.684C69.5098 127.602 69.1794 127.561 68.8193 127.561C68.4365 127.561 68.0879 127.604 67.7734 127.69C67.459 127.777 67.1833 127.893 66.9463 128.039C66.7093 128.185 66.5111 128.354 66.3516 128.545C66.1966 128.736 66.0827 128.939 66.0098 129.153H71.5127ZM75.457 131.457C75.457 131.07 75.5413 130.716 75.71 130.397C75.8786 130.078 76.1315 129.805 76.4688 129.577C76.806 129.345 77.2253 129.167 77.7266 129.044C78.2324 128.916 78.8203 128.853 79.4902 128.853C79.987 128.853 80.5088 128.889 81.0557 128.962C81.6071 129.035 82.1745 129.146 82.7578 129.297C82.735 129.042 82.6576 128.807 82.5254 128.593C82.3932 128.374 82.2087 128.187 81.9717 128.032C81.7393 127.873 81.4567 127.75 81.124 127.663C80.7959 127.576 80.4222 127.533 80.0029 127.533C79.7751 127.533 79.5244 127.547 79.251 127.574C78.9775 127.602 78.695 127.643 78.4033 127.697C78.1117 127.752 77.8223 127.82 77.5352 127.902C77.2526 127.984 76.9883 128.082 76.7422 128.196L76.127 126.535C76.4323 126.426 76.7581 126.326 77.1045 126.234C77.4554 126.143 77.8132 126.066 78.1777 126.002C78.5423 125.934 78.9069 125.881 79.2715 125.845C79.6361 125.808 79.9893 125.79 80.3311 125.79C81.8395 125.79 82.9606 126.175 83.6943 126.945C84.4281 127.715 84.7949 128.896 84.7949 130.486V134H82.7715V133.241C82.5618 133.364 82.3317 133.48 82.0811 133.59C81.835 133.699 81.5661 133.795 81.2744 133.877C80.9827 133.959 80.6683 134.023 80.3311 134.068C79.9984 134.118 79.6452 134.144 79.2715 134.144C78.6426 134.144 78.0889 134.075 77.6104 133.938C77.1364 133.802 76.7399 133.613 76.4209 133.371C76.1019 133.13 75.8604 132.847 75.6963 132.523C75.5368 132.195 75.457 131.84 75.457 131.457ZM77.5898 131.389C77.5898 131.521 77.624 131.648 77.6924 131.771C77.7607 131.89 77.8701 131.997 78.0205 132.093C78.1709 132.184 78.3623 132.259 78.5947 132.318C78.8317 132.373 79.1165 132.4 79.4492 132.4C79.8047 132.4 80.1488 132.368 80.4814 132.305C80.8141 132.241 81.124 132.157 81.4111 132.052C81.6982 131.947 81.958 131.826 82.1904 131.689C82.4229 131.553 82.6165 131.411 82.7715 131.266V130.91C82.4616 130.824 82.154 130.751 81.8486 130.691C81.5479 130.632 81.2585 130.587 80.9805 130.555C80.707 130.518 80.4473 130.493 80.2012 130.479C79.9596 130.466 79.7477 130.459 79.5654 130.459C79.1872 130.459 78.8727 130.484 78.6221 130.534C78.3714 130.584 78.1686 130.653 78.0137 130.739C77.8587 130.821 77.7493 130.919 77.6855 131.033C77.6217 131.147 77.5898 131.266 77.5898 131.389ZM87.5293 125.934H89.5527V126.617C90.0586 126.307 90.5508 126.093 91.0293 125.975C91.5124 125.852 91.984 125.79 92.4443 125.79C93.0869 125.79 93.6771 125.893 94.2148 126.098C94.7526 126.303 95.2129 126.613 95.5957 127.027C95.8919 126.799 96.1836 126.608 96.4707 126.453C96.7578 126.294 97.0449 126.166 97.332 126.07C97.6191 125.97 97.9108 125.899 98.207 125.858C98.5033 125.813 98.8086 125.79 99.123 125.79C99.7839 125.79 100.383 125.881 100.921 126.063C101.459 126.241 101.917 126.508 102.295 126.863C102.678 127.219 102.972 127.663 103.177 128.196C103.386 128.725 103.491 129.338 103.491 130.035V134H101.475V130.363C101.475 129.921 101.411 129.527 101.283 129.181C101.16 128.83 100.985 128.536 100.757 128.299C100.534 128.057 100.265 127.875 99.9502 127.752C99.6403 127.624 99.2985 127.561 98.9248 127.561C98.7197 127.561 98.5101 127.581 98.2959 127.622C98.0817 127.659 97.8721 127.718 97.667 127.8C97.4665 127.882 97.2773 127.987 97.0996 128.114C96.9219 128.237 96.7669 128.383 96.6348 128.552V134H94.6182V130.363C94.6182 129.921 94.5544 129.527 94.4268 129.181C94.3037 128.83 94.1283 128.536 93.9004 128.299C93.6771 128.057 93.4059 127.875 93.0869 127.752C92.7725 127.624 92.4261 127.561 92.0479 127.561C91.8154 127.561 91.5807 127.586 91.3438 127.636C91.1113 127.681 90.8857 127.747 90.667 127.834C90.4528 127.921 90.25 128.025 90.0586 128.148C89.8717 128.271 89.7031 128.41 89.5527 128.565V134H87.5293V125.934Z" fill="white"/>
<path d="M299.114 132.1H301.541V125.448C301.222 125.521 300.914 125.617 300.618 125.735C300.326 125.854 300.06 125.997 299.818 126.166L298.752 124.642C299.144 124.396 299.543 124.188 299.948 124.02C300.358 123.846 300.771 123.71 301.186 123.609C301.605 123.505 302.024 123.429 302.443 123.384C302.867 123.338 303.289 123.315 303.708 123.315L303.701 123.329H303.708V132.1H306.025V134H299.114V132.1ZM307.058 128.634C307.058 127.772 307.188 127 307.447 126.316C307.707 125.633 308.076 125.054 308.555 124.58C309.033 124.102 309.614 123.737 310.298 123.486C310.981 123.236 311.747 123.11 312.595 123.11C313.442 123.11 314.208 123.236 314.892 123.486C315.575 123.737 316.156 124.102 316.635 124.58C317.113 125.054 317.482 125.633 317.742 126.316C318.002 127 318.132 127.772 318.132 128.634C318.132 129.495 318.002 130.268 317.742 130.951C317.482 131.635 317.113 132.214 316.635 132.688C316.156 133.161 315.575 133.524 314.892 133.774C314.208 134.025 313.442 134.15 312.595 134.15C311.747 134.15 310.981 134.025 310.298 133.774C309.614 133.524 309.033 133.161 308.555 132.688C308.076 132.214 307.707 131.635 307.447 130.951C307.188 130.268 307.058 129.495 307.058 128.634ZM309.225 128.627C309.225 129.21 309.302 129.725 309.457 130.172C309.617 130.618 309.842 130.994 310.134 131.3C310.425 131.601 310.779 131.831 311.193 131.99C311.608 132.145 312.075 132.223 312.595 132.223C313.114 132.223 313.581 132.145 313.996 131.99C314.411 131.831 314.764 131.601 315.056 131.3C315.347 130.994 315.571 130.618 315.726 130.172C315.885 129.725 315.965 129.21 315.965 128.627C315.965 128.048 315.885 127.538 315.726 127.096C315.571 126.649 315.347 126.273 315.056 125.968C314.764 125.662 314.411 125.432 313.996 125.277C313.581 125.118 313.114 125.038 312.595 125.038C312.075 125.038 311.608 125.118 311.193 125.277C310.779 125.432 310.425 125.662 310.134 125.968C309.842 126.273 309.617 126.649 309.457 127.096C309.302 127.538 309.225 128.048 309.225 128.627ZM322.233 128.634C321.832 128.634 321.461 128.568 321.119 128.436C320.782 128.303 320.49 128.119 320.244 127.882C319.998 127.64 319.807 127.351 319.67 127.014C319.533 126.672 319.465 126.291 319.465 125.872C319.465 125.457 319.533 125.079 319.67 124.737C319.807 124.396 319.998 124.106 320.244 123.869C320.49 123.628 320.782 123.441 321.119 123.309C321.461 123.176 321.832 123.11 322.233 123.11C322.634 123.11 323.004 123.176 323.341 123.309C323.683 123.441 323.977 123.628 324.223 123.869C324.469 124.106 324.66 124.396 324.797 124.737C324.934 125.079 325.002 125.457 325.002 125.872C325.002 126.291 324.934 126.672 324.797 127.014C324.66 127.351 324.469 127.64 324.223 127.882C323.977 128.119 323.683 128.303 323.341 128.436C323.004 128.568 322.634 128.634 322.233 128.634ZM329.288 123.24H331.387L322.808 134H320.709L329.288 123.24ZM322.233 127.239C322.407 127.239 322.568 127.207 322.719 127.144C322.874 127.075 323.008 126.982 323.122 126.863C323.236 126.74 323.325 126.594 323.389 126.426C323.457 126.257 323.491 126.073 323.491 125.872C323.491 125.672 323.457 125.487 323.389 125.318C323.325 125.15 323.236 125.006 323.122 124.888C323.008 124.765 322.874 124.671 322.719 124.607C322.568 124.539 322.407 124.505 322.233 124.505C322.06 124.505 321.896 124.539 321.741 124.607C321.591 124.671 321.459 124.765 321.345 124.888C321.231 125.006 321.14 125.15 321.071 125.318C321.007 125.487 320.976 125.672 320.976 125.872C320.976 126.073 321.007 126.257 321.071 126.426C321.14 126.594 321.231 126.74 321.345 126.863C321.459 126.982 321.591 127.075 321.741 127.144C321.896 127.207 322.06 127.239 322.233 127.239ZM327.025 131.382C327.025 130.967 327.094 130.589 327.23 130.247C327.367 129.905 327.559 129.616 327.805 129.379C328.051 129.137 328.342 128.951 328.68 128.818C329.021 128.686 329.393 128.62 329.794 128.62C330.195 128.62 330.564 128.686 330.901 128.818C331.243 128.951 331.537 129.137 331.783 129.379C332.029 129.616 332.221 129.905 332.357 130.247C332.494 130.589 332.562 130.967 332.562 131.382C332.562 131.801 332.494 132.182 332.357 132.523C332.221 132.861 332.029 133.15 331.783 133.392C331.537 133.629 331.243 133.813 330.901 133.945C330.564 134.077 330.195 134.144 329.794 134.144C329.393 134.144 329.021 134.077 328.68 133.945C328.342 133.813 328.051 133.629 327.805 133.392C327.559 133.15 327.367 132.861 327.23 132.523C327.094 132.182 327.025 131.801 327.025 131.382ZM328.536 131.382C328.536 131.582 328.568 131.767 328.632 131.936C328.7 132.104 328.791 132.25 328.905 132.373C329.019 132.492 329.151 132.585 329.302 132.653C329.457 132.717 329.621 132.749 329.794 132.749C329.967 132.749 330.129 132.717 330.279 132.653C330.434 132.585 330.569 132.492 330.683 132.373C330.797 132.25 330.885 132.104 330.949 131.936C331.018 131.767 331.052 131.582 331.052 131.382C331.052 131.181 331.018 130.997 330.949 130.828C330.885 130.66 330.797 130.516 330.683 130.397C330.569 130.274 330.434 130.181 330.279 130.117C330.129 130.049 329.967 130.015 329.794 130.015C329.621 130.015 329.457 130.049 329.302 130.117C329.151 130.181 329.019 130.274 328.905 130.397C328.791 130.516 328.7 130.66 328.632 130.828C328.568 130.997 328.536 131.181 328.536 131.382Z" fill="white"/>
<circle cx="15" cy="129" r="12.5" stroke="#406AFF" stroke-width="5"/>
<path d="M52.9629 161.315H55.1299L59.0127 165.212L62.8955 161.315H65.0625V172H62.8955V164.316L59.0127 168.056L55.1299 164.316V172H52.9629V161.315ZM67.4688 169.457C67.4688 169.07 67.5531 168.716 67.7217 168.397C67.8903 168.078 68.1432 167.805 68.4805 167.577C68.8177 167.345 69.237 167.167 69.7383 167.044C70.2441 166.916 70.832 166.853 71.502 166.853C71.9987 166.853 72.5205 166.889 73.0674 166.962C73.6188 167.035 74.1862 167.146 74.7695 167.297C74.7467 167.042 74.6693 166.807 74.5371 166.593C74.4049 166.374 74.2204 166.187 73.9834 166.032C73.751 165.873 73.4684 165.75 73.1357 165.663C72.8076 165.576 72.4339 165.533 72.0146 165.533C71.7868 165.533 71.5361 165.547 71.2627 165.574C70.9893 165.602 70.7067 165.643 70.415 165.697C70.1234 165.752 69.834 165.82 69.5469 165.902C69.2643 165.984 69 166.082 68.7539 166.196L68.1387 164.535C68.444 164.426 68.7699 164.326 69.1162 164.234C69.4671 164.143 69.8249 164.066 70.1895 164.002C70.554 163.934 70.9186 163.881 71.2832 163.845C71.6478 163.808 72.001 163.79 72.3428 163.79C73.8512 163.79 74.9723 164.175 75.7061 164.945C76.4398 165.715 76.8066 166.896 76.8066 168.486V172H74.7832V171.241C74.5736 171.364 74.3434 171.48 74.0928 171.59C73.8467 171.699 73.5778 171.795 73.2861 171.877C72.9945 171.959 72.68 172.023 72.3428 172.068C72.0101 172.118 71.6569 172.144 71.2832 172.144C70.6543 172.144 70.1006 172.075 69.6221 171.938C69.1481 171.802 68.7516 171.613 68.4326 171.371C68.1136 171.13 67.8721 170.847 67.708 170.523C67.5485 170.195 67.4688 169.84 67.4688 169.457ZM69.6016 169.389C69.6016 169.521 69.6357 169.648 69.7041 169.771C69.7725 169.89 69.8818 169.997 70.0322 170.093C70.1826 170.184 70.374 170.259 70.6064 170.318C70.8434 170.373 71.1283 170.4 71.4609 170.4C71.8164 170.4 72.1605 170.368 72.4932 170.305C72.8258 170.241 73.1357 170.157 73.4229 170.052C73.71 169.947 73.9697 169.826 74.2021 169.689C74.4346 169.553 74.6283 169.411 74.7832 169.266V168.91C74.4733 168.824 74.1657 168.751 73.8604 168.691C73.5596 168.632 73.2702 168.587 72.9922 168.555C72.7188 168.518 72.459 168.493 72.2129 168.479C71.9714 168.466 71.7594 168.459 71.5771 168.459C71.1989 168.459 70.8844 168.484 70.6338 168.534C70.3831 168.584 70.1803 168.653 70.0254 168.739C69.8704 168.821 69.7611 168.919 69.6973 169.033C69.6335 169.147 69.6016 169.266 69.6016 169.389ZM79.4863 163.934H81.5098V165.096C81.9564 164.763 82.4281 164.476 82.9248 164.234C83.4215 163.993 83.916 163.808 84.4082 163.681L85.0029 165.533C84.2236 165.611 83.5378 165.786 82.9453 166.06C82.3574 166.328 81.8789 166.709 81.5098 167.201V172H79.4863V163.934ZM86.5205 160.659H88.5439V167.358L92.3174 163.934H95.4141L91.1963 167.707L95.6807 172H92.6455L89.6445 169.095L88.5439 170.079V172H86.5205V160.659ZM96.6309 167.939C96.6309 167.393 96.7425 166.871 96.9658 166.374C97.1891 165.873 97.5104 165.431 97.9297 165.048C98.349 164.665 98.8617 164.36 99.4678 164.132C100.078 163.904 100.771 163.79 101.546 163.79C102.316 163.79 103.009 163.906 103.624 164.139C104.244 164.367 104.768 164.681 105.196 165.082C105.629 165.483 105.96 165.955 106.188 166.497C106.42 167.039 106.536 167.62 106.536 168.24C106.536 168.318 106.534 168.402 106.529 168.493C106.529 168.58 106.525 168.66 106.516 168.732H98.8867C98.9733 168.974 99.1123 169.195 99.3037 169.396C99.4997 169.596 99.7435 169.769 100.035 169.915C100.327 170.061 100.664 170.175 101.047 170.257C101.43 170.334 101.854 170.373 102.318 170.373C102.783 170.373 103.246 170.325 103.706 170.229C104.166 170.129 104.606 170.004 105.025 169.854L105.709 171.398C105.445 171.521 105.176 171.631 104.902 171.727C104.633 171.818 104.351 171.895 104.055 171.959C103.763 172.018 103.455 172.064 103.132 172.096C102.813 172.128 102.476 172.144 102.12 172.144C101.213 172.144 100.418 172.034 99.7344 171.815C99.0508 171.597 98.4788 171.298 98.0186 170.92C97.5583 170.542 97.2119 170.097 96.9795 169.587C96.7471 169.076 96.6309 168.527 96.6309 167.939ZM104.39 167.153C104.317 166.93 104.203 166.723 104.048 166.531C103.897 166.335 103.708 166.167 103.48 166.025C103.253 165.88 102.988 165.766 102.688 165.684C102.387 165.602 102.056 165.561 101.696 165.561C101.313 165.561 100.965 165.604 100.65 165.69C100.336 165.777 100.06 165.893 99.8232 166.039C99.5863 166.185 99.388 166.354 99.2285 166.545C99.0736 166.736 98.9596 166.939 98.8867 167.153H104.39ZM109.934 165.451H107.985V163.934H109.934V161.425H111.957V163.934H113.905V165.451H111.957V172H109.934V165.451ZM116.77 162.833C116.569 162.833 116.387 162.806 116.223 162.751C116.063 162.692 115.926 162.614 115.812 162.519C115.699 162.418 115.61 162.304 115.546 162.177C115.487 162.045 115.457 161.906 115.457 161.76C115.457 161.609 115.487 161.47 115.546 161.343C115.61 161.211 115.699 161.097 115.812 161.001C115.926 160.905 116.063 160.83 116.223 160.775C116.387 160.716 116.569 160.687 116.77 160.687C116.975 160.687 117.157 160.716 117.316 160.775C117.48 160.83 117.619 160.905 117.733 161.001C117.847 161.097 117.934 161.211 117.993 161.343C118.057 161.47 118.089 161.609 118.089 161.76C118.089 161.906 118.057 162.045 117.993 162.177C117.934 162.304 117.847 162.418 117.733 162.519C117.619 162.614 117.48 162.692 117.316 162.751C117.157 162.806 116.975 162.833 116.77 162.833ZM115.758 163.934H117.781V172H115.758V163.934ZM120.379 163.934H122.402V164.617C122.94 164.312 123.453 164.098 123.94 163.975C124.433 163.852 124.913 163.79 125.383 163.79C125.998 163.79 126.568 163.881 127.092 164.063C127.616 164.241 128.069 164.508 128.452 164.863C128.835 165.219 129.133 165.663 129.348 166.196C129.566 166.725 129.676 167.338 129.676 168.035V172H127.659V168.363C127.659 167.921 127.595 167.527 127.468 167.181C127.345 166.83 127.165 166.536 126.928 166.299C126.695 166.057 126.41 165.875 126.073 165.752C125.741 165.624 125.367 165.561 124.952 165.561C124.733 165.561 124.508 165.583 124.275 165.629C124.048 165.674 123.822 165.741 123.599 165.827C123.38 165.909 123.168 166.014 122.963 166.142C122.758 166.265 122.571 166.406 122.402 166.565V172H120.379V163.934ZM133.429 173.367C133.684 173.458 133.944 173.534 134.208 173.593C134.472 173.657 134.728 173.707 134.974 173.743C135.224 173.784 135.464 173.812 135.691 173.825C135.919 173.843 136.122 173.853 136.3 173.853C136.838 173.853 137.305 173.786 137.701 173.654C138.102 173.527 138.435 173.354 138.699 173.135C138.968 172.916 139.169 172.661 139.301 172.369C139.433 172.082 139.499 171.777 139.499 171.453V171.104C139.326 171.223 139.123 171.337 138.891 171.446C138.658 171.556 138.403 171.651 138.125 171.733C137.847 171.815 137.551 171.882 137.236 171.932C136.926 171.982 136.605 172.007 136.272 172.007C135.612 172.007 135.001 171.909 134.44 171.713C133.88 171.512 133.395 171.234 132.984 170.879C132.574 170.519 132.253 170.088 132.021 169.587C131.793 169.086 131.679 168.53 131.679 167.919C131.679 167.295 131.799 166.729 132.041 166.224C132.283 165.713 132.615 165.278 133.039 164.918C133.467 164.558 133.973 164.28 134.557 164.084C135.14 163.888 135.773 163.79 136.457 163.79C136.749 163.79 137.038 163.808 137.325 163.845C137.612 163.881 137.886 163.931 138.146 163.995C138.41 164.059 138.656 164.136 138.884 164.228C139.116 164.314 139.321 164.41 139.499 164.515V163.934H141.522V171.077C141.522 171.811 141.411 172.46 141.188 173.025C140.964 173.59 140.636 174.064 140.203 174.447C139.775 174.835 139.242 175.126 138.604 175.322C137.965 175.523 137.234 175.623 136.409 175.623C136.113 175.623 135.805 175.609 135.486 175.582C135.167 175.559 134.846 175.523 134.522 175.473C134.203 175.427 133.887 175.37 133.572 175.302C133.262 175.238 132.964 175.163 132.677 175.076L133.429 173.367ZM133.805 167.898C133.805 168.222 133.868 168.527 133.996 168.814C134.128 169.097 134.315 169.345 134.557 169.56C134.798 169.769 135.09 169.936 135.432 170.059C135.773 170.177 136.159 170.236 136.587 170.236C136.865 170.236 137.141 170.211 137.414 170.161C137.692 170.106 137.956 170.031 138.207 169.936C138.462 169.84 138.699 169.724 138.918 169.587C139.141 169.45 139.335 169.298 139.499 169.129V166.47C139.294 166.306 139.077 166.167 138.85 166.053C138.622 165.939 138.389 165.845 138.152 165.772C137.915 165.7 137.676 165.647 137.435 165.615C137.193 165.579 136.958 165.561 136.73 165.561C136.266 165.561 135.851 165.622 135.486 165.745C135.126 165.868 134.821 166.037 134.57 166.251C134.324 166.461 134.135 166.707 134.003 166.989C133.871 167.272 133.805 167.575 133.805 167.898Z" fill="white"/>
<path d="M299.114 170.1H301.541V163.448C301.222 163.521 300.914 163.617 300.618 163.735C300.326 163.854 300.06 163.997 299.818 164.166L298.752 162.642C299.144 162.396 299.543 162.188 299.948 162.02C300.358 161.846 300.771 161.71 301.186 161.609C301.605 161.505 302.024 161.429 302.443 161.384C302.867 161.338 303.289 161.315 303.708 161.315L303.701 161.329H303.708V170.1H306.025V172H299.114V170.1ZM307.058 166.634C307.058 165.772 307.188 165 307.447 164.316C307.707 163.633 308.076 163.054 308.555 162.58C309.033 162.102 309.614 161.737 310.298 161.486C310.981 161.236 311.747 161.11 312.595 161.11C313.442 161.11 314.208 161.236 314.892 161.486C315.575 161.737 316.156 162.102 316.635 162.58C317.113 163.054 317.482 163.633 317.742 164.316C318.002 165 318.132 165.772 318.132 166.634C318.132 167.495 318.002 168.268 317.742 168.951C317.482 169.635 317.113 170.214 316.635 170.688C316.156 171.161 315.575 171.524 314.892 171.774C314.208 172.025 313.442 172.15 312.595 172.15C311.747 172.15 310.981 172.025 310.298 171.774C309.614 171.524 309.033 171.161 308.555 170.688C308.076 170.214 307.707 169.635 307.447 168.951C307.188 168.268 307.058 167.495 307.058 166.634ZM309.225 166.627C309.225 167.21 309.302 167.725 309.457 168.172C309.617 168.618 309.842 168.994 310.134 169.3C310.425 169.601 310.779 169.831 311.193 169.99C311.608 170.145 312.075 170.223 312.595 170.223C313.114 170.223 313.581 170.145 313.996 169.99C314.411 169.831 314.764 169.601 315.056 169.3C315.347 168.994 315.571 168.618 315.726 168.172C315.885 167.725 315.965 167.21 315.965 166.627C315.965 166.048 315.885 165.538 315.726 165.096C315.571 164.649 315.347 164.273 315.056 163.968C314.764 163.662 314.411 163.432 313.996 163.277C313.581 163.118 313.114 163.038 312.595 163.038C312.075 163.038 311.608 163.118 311.193 163.277C310.779 163.432 310.425 163.662 310.134 163.968C309.842 164.273 309.617 164.649 309.457 165.096C309.302 165.538 309.225 166.048 309.225 166.627ZM322.233 166.634C321.832 166.634 321.461 166.568 321.119 166.436C320.782 166.303 320.49 166.119 320.244 165.882C319.998 165.64 319.807 165.351 319.67 165.014C319.533 164.672 319.465 164.291 319.465 163.872C319.465 163.457 319.533 163.079 319.67 162.737C319.807 162.396 319.998 162.106 320.244 161.869C320.49 161.628 320.782 161.441 321.119 161.309C321.461 161.176 321.832 161.11 322.233 161.11C322.634 161.11 323.004 161.176 323.341 161.309C323.683 161.441 323.977 161.628 324.223 161.869C324.469 162.106 324.66 162.396 324.797 162.737C324.934 163.079 325.002 163.457 325.002 163.872C325.002 164.291 324.934 164.672 324.797 165.014C324.66 165.351 324.469 165.64 324.223 165.882C323.977 166.119 323.683 166.303 323.341 166.436C323.004 166.568 322.634 166.634 322.233 166.634ZM329.288 161.24H331.387L322.808 172H320.709L329.288 161.24ZM322.233 165.239C322.407 165.239 322.568 165.207 322.719 165.144C322.874 165.075 323.008 164.982 323.122 164.863C323.236 164.74 323.325 164.594 323.389 164.426C323.457 164.257 323.491 164.073 323.491 163.872C323.491 163.672 323.457 163.487 323.389 163.318C323.325 163.15 323.236 163.006 323.122 162.888C323.008 162.765 322.874 162.671 322.719 162.607C322.568 162.539 322.407 162.505 322.233 162.505C322.06 162.505 321.896 162.539 321.741 162.607C321.591 162.671 321.459 162.765 321.345 162.888C321.231 163.006 321.14 163.15 321.071 163.318C321.007 163.487 320.976 163.672 320.976 163.872C320.976 164.073 321.007 164.257 321.071 164.426C321.14 164.594 321.231 164.74 321.345 164.863C321.459 164.982 321.591 165.075 321.741 165.144C321.896 165.207 322.06 165.239 322.233 165.239ZM327.025 169.382C327.025 168.967 327.094 168.589 327.23 168.247C327.367 167.905 327.559 167.616 327.805 167.379C328.051 167.137 328.342 166.951 328.68 166.818C329.021 166.686 329.393 166.62 329.794 166.62C330.195 166.62 330.564 166.686 330.901 166.818C331.243 166.951 331.537 167.137 331.783 167.379C332.029 167.616 332.221 167.905 332.357 168.247C332.494 168.589 332.562 168.967 332.562 169.382C332.562 169.801 332.494 170.182 332.357 170.523C332.221 170.861 332.029 171.15 331.783 171.392C331.537 171.629 331.243 171.813 330.901 171.945C330.564 172.077 330.195 172.144 329.794 172.144C329.393 172.144 329.021 172.077 328.68 171.945C328.342 171.813 328.051 171.629 327.805 171.392C327.559 171.15 327.367 170.861 327.23 170.523C327.094 170.182 327.025 169.801 327.025 169.382ZM328.536 169.382C328.536 169.582 328.568 169.767 328.632 169.936C328.7 170.104 328.791 170.25 328.905 170.373C329.019 170.492 329.151 170.585 329.302 170.653C329.457 170.717 329.621 170.749 329.794 170.749C329.967 170.749 330.129 170.717 330.279 170.653C330.434 170.585 330.569 170.492 330.683 170.373C330.797 170.25 330.885 170.104 330.949 169.936C331.018 169.767 331.052 169.582 331.052 169.382C331.052 169.181 331.018 168.997 330.949 168.828C330.885 168.66 330.797 168.516 330.683 168.397C330.569 168.274 330.434 168.181 330.279 168.117C330.129 168.049 329.967 168.015 329.794 168.015C329.621 168.015 329.457 168.049 329.302 168.117C329.151 168.181 329.019 168.274 328.905 168.397C328.791 168.516 328.7 168.66 328.632 168.828C328.568 168.997 328.536 169.181 328.536 169.382Z" fill="white"/>
<circle cx="15" cy="167" r="12.5" stroke="#C99EC0" stroke-width="5"/>
<path d="M56.6221 199.315H58.9189L64.0869 210H61.8105L60.9561 208.202H54.7148L53.8877 210H51.6045L56.6221 199.315ZM60.1016 206.418L57.791 201.564L55.542 206.418H60.1016ZM64.873 206.001C64.873 205.358 64.9938 204.78 65.2354 204.265C65.4769 203.745 65.8096 203.303 66.2334 202.938C66.6618 202.569 67.1676 202.287 67.751 202.091C68.3389 201.89 68.9746 201.79 69.6582 201.79C69.9499 201.79 70.237 201.808 70.5195 201.845C70.8066 201.881 71.0801 201.931 71.3398 201.995C71.6042 202.059 71.8503 202.136 72.0781 202.228C72.3105 202.314 72.5156 202.41 72.6934 202.515V198.659H74.7168V210H72.6934V209.241C72.5156 209.364 72.306 209.48 72.0645 209.59C71.8229 209.699 71.5632 209.795 71.2852 209.877C71.0072 209.959 70.7178 210.023 70.417 210.068C70.1208 210.118 69.8268 210.144 69.5352 210.144C68.8516 210.144 68.2227 210.043 67.6484 209.843C67.0788 209.642 66.5889 209.36 66.1787 208.995C65.7686 208.631 65.4473 208.195 65.2148 207.689C64.987 207.179 64.873 206.616 64.873 206.001ZM66.999 206.001C66.999 206.325 67.0628 206.63 67.1904 206.917C67.3226 207.204 67.5094 207.457 67.751 207.676C67.9971 207.89 68.291 208.061 68.6328 208.188C68.9792 208.312 69.3665 208.373 69.7949 208.373C70.0684 208.373 70.3418 208.348 70.6152 208.298C70.8887 208.243 71.1507 208.168 71.4014 208.072C71.6566 207.977 71.8936 207.86 72.1123 207.724C72.3356 207.587 72.5293 207.434 72.6934 207.266V204.47C72.4883 204.306 72.2718 204.167 72.0439 204.053C71.8161 203.939 71.5837 203.845 71.3467 203.772C71.1097 203.7 70.8704 203.647 70.6289 203.615C70.3874 203.579 70.1527 203.561 69.9248 203.561C69.46 203.561 69.0452 203.624 68.6807 203.752C68.3206 203.875 68.0153 204.046 67.7646 204.265C67.5186 204.483 67.3294 204.741 67.1973 205.037C67.0651 205.333 66.999 205.655 66.999 206.001ZM76.084 201.927H78.4287L80.5273 206.78L81.0742 208.141L81.6211 206.78L83.7197 201.927H86.0645L82.2432 210H79.9053L76.084 201.927ZM88.5459 200.833C88.3454 200.833 88.1631 200.806 87.999 200.751C87.8395 200.692 87.7028 200.614 87.5889 200.519C87.4749 200.418 87.3861 200.304 87.3223 200.177C87.263 200.045 87.2334 199.906 87.2334 199.76C87.2334 199.609 87.263 199.47 87.3223 199.343C87.3861 199.211 87.4749 199.097 87.5889 199.001C87.7028 198.905 87.8395 198.83 87.999 198.775C88.1631 198.716 88.3454 198.687 88.5459 198.687C88.751 198.687 88.9333 198.716 89.0928 198.775C89.2568 198.83 89.3958 198.905 89.5098 199.001C89.6237 199.097 89.7103 199.211 89.7695 199.343C89.8333 199.47 89.8652 199.609 89.8652 199.76C89.8652 199.906 89.8333 200.045 89.7695 200.177C89.7103 200.304 89.6237 200.418 89.5098 200.519C89.3958 200.614 89.2568 200.692 89.0928 200.751C88.9333 200.806 88.751 200.833 88.5459 200.833ZM87.5342 201.934H89.5576V210H87.5342V201.934ZM92.4766 207.525C93.0234 207.854 93.625 208.095 94.2812 208.25C94.9375 208.405 95.6097 208.482 96.2979 208.482C96.7627 208.482 97.1501 208.451 97.46 208.387C97.7699 208.323 98.0182 208.241 98.2051 208.141C98.3919 208.04 98.5241 207.926 98.6016 207.799C98.679 207.671 98.7178 207.541 98.7178 207.409C98.7178 207.218 98.6335 207.054 98.4648 206.917C98.3008 206.78 98.0273 206.712 97.6445 206.712C97.4668 206.712 97.2754 206.723 97.0703 206.746C96.8652 206.769 96.6488 206.794 96.4209 206.821C96.1976 206.844 95.9629 206.867 95.7168 206.89C95.4753 206.912 95.2292 206.924 94.9785 206.924C94.4316 206.924 93.9645 206.865 93.5771 206.746C93.1943 206.628 92.8822 206.466 92.6406 206.261C92.3991 206.056 92.2236 205.814 92.1143 205.536C92.0049 205.254 91.9502 204.951 91.9502 204.627C91.9502 204.217 92.0459 203.839 92.2373 203.492C92.4287 203.146 92.7021 202.847 93.0576 202.597C93.4131 202.341 93.8415 202.143 94.3428 202.002C94.8486 201.861 95.4115 201.79 96.0312 201.79C96.3548 201.79 96.6921 201.811 97.043 201.852C97.3984 201.888 97.7471 201.938 98.0889 202.002C98.4307 202.066 98.7588 202.141 99.0732 202.228C99.3877 202.31 99.6657 202.398 99.9072 202.494L99.2715 204.066C98.7565 203.875 98.2415 203.725 97.7266 203.615C97.2161 203.501 96.6898 203.444 96.1475 203.444C95.7692 203.444 95.4479 203.474 95.1836 203.533C94.9238 203.588 94.7119 203.663 94.5479 203.759C94.3838 203.85 94.263 203.957 94.1855 204.08C94.1126 204.199 94.0762 204.324 94.0762 204.456C94.0762 204.552 94.0944 204.638 94.1309 204.716C94.1719 204.793 94.2357 204.862 94.3223 204.921C94.4134 204.976 94.5296 205.019 94.6709 205.051C94.8167 205.078 94.9945 205.092 95.2041 205.092C95.3955 205.092 95.5983 205.08 95.8125 205.058C96.0267 205.035 96.25 205.012 96.4824 204.989C96.7148 204.962 96.9541 204.937 97.2002 204.914C97.4508 204.891 97.7061 204.88 97.9658 204.88C98.4489 204.88 98.8704 204.937 99.2305 205.051C99.5951 205.165 99.8958 205.324 100.133 205.529C100.37 205.734 100.548 205.976 100.666 206.254C100.785 206.532 100.844 206.835 100.844 207.163C100.844 207.587 100.746 207.981 100.55 208.346C100.354 208.71 100.062 209.027 99.6748 209.296C99.2874 209.56 98.8044 209.768 98.2256 209.918C97.6514 210.068 96.986 210.144 96.2295 210.144C95.7646 210.144 95.3158 210.114 94.8828 210.055C94.4499 210 94.0374 209.925 93.6455 209.829C93.2536 209.729 92.8844 209.613 92.5381 209.48C92.1963 209.348 91.8841 209.207 91.6016 209.057L92.4766 207.525ZM102.184 205.967C102.184 205.388 102.3 204.846 102.532 204.34C102.769 203.834 103.104 203.392 103.537 203.014C103.975 202.635 104.501 202.337 105.116 202.118C105.736 201.899 106.431 201.79 107.201 201.79C107.971 201.79 108.664 201.899 109.279 202.118C109.899 202.337 110.425 202.635 110.858 203.014C111.296 203.392 111.631 203.834 111.863 204.34C112.1 204.846 112.219 205.388 112.219 205.967C112.219 206.546 112.1 207.088 111.863 207.594C111.631 208.1 111.296 208.542 110.858 208.92C110.425 209.298 109.899 209.597 109.279 209.815C108.664 210.034 107.971 210.144 107.201 210.144C106.431 210.144 105.736 210.034 105.116 209.815C104.501 209.597 103.975 209.298 103.537 208.92C103.104 208.542 102.769 208.1 102.532 207.594C102.3 207.088 102.184 206.546 102.184 205.967ZM104.31 205.967C104.31 206.29 104.373 206.598 104.501 206.89C104.633 207.177 104.822 207.432 105.068 207.655C105.319 207.874 105.622 208.049 105.978 208.182C106.338 208.309 106.745 208.373 107.201 208.373C107.657 208.373 108.062 208.309 108.418 208.182C108.778 208.049 109.081 207.874 109.327 207.655C109.578 207.432 109.767 207.177 109.895 206.89C110.027 206.598 110.093 206.29 110.093 205.967C110.093 205.643 110.027 205.336 109.895 205.044C109.767 204.752 109.578 204.497 109.327 204.278C109.081 204.055 108.778 203.88 108.418 203.752C108.062 203.62 107.657 203.554 107.201 203.554C106.745 203.554 106.338 203.62 105.978 203.752C105.622 203.88 105.319 204.055 105.068 204.278C104.822 204.497 104.633 204.752 104.501 205.044C104.373 205.336 104.31 205.643 104.31 205.967ZM114.263 201.934H116.286V203.096C116.733 202.763 117.204 202.476 117.701 202.234C118.198 201.993 118.692 201.808 119.185 201.681L119.779 203.533C119 203.611 118.314 203.786 117.722 204.06C117.134 204.328 116.655 204.709 116.286 205.201V210H114.263V201.934ZM121.611 207.525C122.158 207.854 122.76 208.095 123.416 208.25C124.072 208.405 124.744 208.482 125.433 208.482C125.897 208.482 126.285 208.451 126.595 208.387C126.905 208.323 127.153 208.241 127.34 208.141C127.527 208.04 127.659 207.926 127.736 207.799C127.814 207.671 127.853 207.541 127.853 207.409C127.853 207.218 127.768 207.054 127.6 206.917C127.436 206.78 127.162 206.712 126.779 206.712C126.602 206.712 126.41 206.723 126.205 206.746C126 206.769 125.784 206.794 125.556 206.821C125.332 206.844 125.098 206.867 124.852 206.89C124.61 206.912 124.364 206.924 124.113 206.924C123.566 206.924 123.099 206.865 122.712 206.746C122.329 206.628 122.017 206.466 121.775 206.261C121.534 206.056 121.358 205.814 121.249 205.536C121.14 205.254 121.085 204.951 121.085 204.627C121.085 204.217 121.181 203.839 121.372 203.492C121.563 203.146 121.837 202.847 122.192 202.597C122.548 202.341 122.976 202.143 123.478 202.002C123.983 201.861 124.546 201.79 125.166 201.79C125.49 201.79 125.827 201.811 126.178 201.852C126.533 201.888 126.882 201.938 127.224 202.002C127.565 202.066 127.894 202.141 128.208 202.228C128.522 202.31 128.8 202.398 129.042 202.494L128.406 204.066C127.891 203.875 127.376 203.725 126.861 203.615C126.351 203.501 125.825 203.444 125.282 203.444C124.904 203.444 124.583 203.474 124.318 203.533C124.059 203.588 123.847 203.663 123.683 203.759C123.519 203.85 123.398 203.957 123.32 204.08C123.247 204.199 123.211 204.324 123.211 204.456C123.211 204.552 123.229 204.638 123.266 204.716C123.307 204.793 123.37 204.862 123.457 204.921C123.548 204.976 123.664 205.019 123.806 205.051C123.951 205.078 124.129 205.092 124.339 205.092C124.53 205.092 124.733 205.08 124.947 205.058C125.161 205.035 125.385 205.012 125.617 204.989C125.85 204.962 126.089 204.937 126.335 204.914C126.586 204.891 126.841 204.88 127.101 204.88C127.584 204.88 128.005 204.937 128.365 205.051C128.73 205.165 129.031 205.324 129.268 205.529C129.505 205.734 129.682 205.976 129.801 206.254C129.919 206.532 129.979 206.835 129.979 207.163C129.979 207.587 129.881 207.981 129.685 208.346C129.489 208.71 129.197 209.027 128.81 209.296C128.422 209.56 127.939 209.768 127.36 209.918C126.786 210.068 126.121 210.144 125.364 210.144C124.899 210.144 124.451 210.114 124.018 210.055C123.585 210 123.172 209.925 122.78 209.829C122.388 209.729 122.019 209.613 121.673 209.48C121.331 209.348 121.019 209.207 120.736 209.057L121.611 207.525Z" fill="white"/>
<path d="M303.98 207.457C304.24 207.589 304.521 207.703 304.821 207.799C305.127 207.89 305.439 207.967 305.758 208.031C306.081 208.095 306.405 208.143 306.729 208.175C307.057 208.202 307.376 208.216 307.686 208.216C308.232 208.216 308.704 208.177 309.101 208.1C309.502 208.018 309.83 207.904 310.085 207.758C310.345 207.612 310.536 207.439 310.659 207.238C310.787 207.033 310.851 206.808 310.851 206.562C310.851 206.311 310.785 206.081 310.652 205.871C310.525 205.661 310.331 205.481 310.071 205.331C309.816 205.181 309.493 205.064 309.101 204.982C308.713 204.896 308.26 204.853 307.74 204.853C307.508 204.853 307.246 204.864 306.954 204.887C306.662 204.905 306.353 204.937 306.024 204.982C305.696 205.028 305.354 205.092 304.999 205.174C304.644 205.251 304.284 205.347 303.919 205.461V199.315H312.115V201.236H305.922V203.308C306.264 203.23 306.621 203.166 306.995 203.116C307.369 203.062 307.786 203.034 308.246 203.034C308.998 203.034 309.67 203.116 310.263 203.28C310.855 203.444 311.354 203.679 311.76 203.984C312.17 204.29 312.482 204.659 312.696 205.092C312.91 205.52 313.018 206.001 313.018 206.534C313.018 207.086 312.901 207.585 312.669 208.031C312.441 208.473 312.102 208.852 311.65 209.166C311.204 209.48 310.652 209.722 309.996 209.891C309.344 210.059 308.595 210.144 307.747 210.144C307.31 210.144 306.874 210.118 306.441 210.068C306.013 210.023 305.596 209.957 305.19 209.87C304.785 209.779 304.395 209.67 304.021 209.542C303.652 209.41 303.306 209.262 302.982 209.098L303.98 207.457ZM317.064 204.634C316.663 204.634 316.292 204.568 315.95 204.436C315.613 204.303 315.321 204.119 315.075 203.882C314.829 203.64 314.638 203.351 314.501 203.014C314.364 202.672 314.296 202.291 314.296 201.872C314.296 201.457 314.364 201.079 314.501 200.737C314.638 200.396 314.829 200.106 315.075 199.869C315.321 199.628 315.613 199.441 315.95 199.309C316.292 199.176 316.663 199.11 317.064 199.11C317.465 199.11 317.835 199.176 318.172 199.309C318.514 199.441 318.808 199.628 319.054 199.869C319.3 200.106 319.491 200.396 319.628 200.737C319.765 201.079 319.833 201.457 319.833 201.872C319.833 202.291 319.765 202.672 319.628 203.014C319.491 203.351 319.3 203.64 319.054 203.882C318.808 204.119 318.514 204.303 318.172 204.436C317.835 204.568 317.465 204.634 317.064 204.634ZM324.119 199.24H326.218L317.639 210H315.54L324.119 199.24ZM317.064 203.239C317.238 203.239 317.399 203.207 317.55 203.144C317.705 203.075 317.839 202.982 317.953 202.863C318.067 202.74 318.156 202.594 318.22 202.426C318.288 202.257 318.322 202.073 318.322 201.872C318.322 201.672 318.288 201.487 318.22 201.318C318.156 201.15 318.067 201.006 317.953 200.888C317.839 200.765 317.705 200.671 317.55 200.607C317.399 200.539 317.238 200.505 317.064 200.505C316.891 200.505 316.727 200.539 316.572 200.607C316.422 200.671 316.29 200.765 316.176 200.888C316.062 201.006 315.971 201.15 315.902 201.318C315.839 201.487 315.807 201.672 315.807 201.872C315.807 202.073 315.839 202.257 315.902 202.426C315.971 202.594 316.062 202.74 316.176 202.863C316.29 202.982 316.422 203.075 316.572 203.144C316.727 203.207 316.891 203.239 317.064 203.239ZM321.856 207.382C321.856 206.967 321.925 206.589 322.062 206.247C322.198 205.905 322.39 205.616 322.636 205.379C322.882 205.137 323.174 204.951 323.511 204.818C323.853 204.686 324.224 204.62 324.625 204.62C325.026 204.62 325.395 204.686 325.732 204.818C326.074 204.951 326.368 205.137 326.614 205.379C326.86 205.616 327.052 205.905 327.188 206.247C327.325 206.589 327.394 206.967 327.394 207.382C327.394 207.801 327.325 208.182 327.188 208.523C327.052 208.861 326.86 209.15 326.614 209.392C326.368 209.629 326.074 209.813 325.732 209.945C325.395 210.077 325.026 210.144 324.625 210.144C324.224 210.144 323.853 210.077 323.511 209.945C323.174 209.813 322.882 209.629 322.636 209.392C322.39 209.15 322.198 208.861 322.062 208.523C321.925 208.182 321.856 207.801 321.856 207.382ZM323.367 207.382C323.367 207.582 323.399 207.767 323.463 207.936C323.531 208.104 323.622 208.25 323.736 208.373C323.85 208.492 323.982 208.585 324.133 208.653C324.288 208.717 324.452 208.749 324.625 208.749C324.798 208.749 324.96 208.717 325.11 208.653C325.265 208.585 325.4 208.492 325.514 208.373C325.628 208.25 325.716 208.104 325.78 207.936C325.849 207.767 325.883 207.582 325.883 207.382C325.883 207.181 325.849 206.997 325.78 206.828C325.716 206.66 325.628 206.516 325.514 206.397C325.4 206.274 325.265 206.181 325.11 206.117C324.96 206.049 324.798 206.015 324.625 206.015C324.452 206.015 324.288 206.049 324.133 206.117C323.982 206.181 323.85 206.274 323.736 206.397C323.622 206.516 323.531 206.66 323.463 206.828C323.399 206.997 323.367 207.181 323.367 207.382Z" fill="white"/>
<circle cx="15" cy="205" r="12.5" stroke="#A6369F" stroke-width="5"/>
</svg>
