<svg width="40" height="40" viewBox="0 0 40 40" fill="none" xmlns="http://www.w3.org/2000/svg">
<rect width="40" height="40" rx="5" fill="url(#paint0_linear_2_1285)"/>
<g clip-path="url(#clip0_2_1285)">
<path d="M29.8204 15.5174C29.8362 15.7395 29.8362 15.9616 29.8362 16.1837C29.8362 22.9571 24.6808 30.7617 15.2582 30.7617C12.3553 30.7617 9.6586 29.9209 7.3902 28.4616C7.80265 28.5092 8.19918 28.525 8.6275 28.525C11.0228 28.525 13.2277 27.716 14.9885 26.336C12.736 26.2884 10.8483 24.8131 10.1979 22.7826C10.5152 22.8302 10.8324 22.8619 11.1656 22.8619C11.6256 22.8619 12.0857 22.7985 12.5139 22.6875C10.1662 22.2115 8.40538 20.1494 8.40538 17.6589V17.5955C9.08746 17.9762 9.88067 18.2141 10.7213 18.2458C9.34127 17.3258 8.43712 15.7553 8.43712 13.9787C8.43712 13.0269 8.69088 12.1545 9.13507 11.393C11.6573 14.5022 15.4485 16.5326 19.6998 16.7547C19.6205 16.374 19.5729 15.9775 19.5729 15.5809C19.5729 12.7573 21.8571 10.4572 24.6966 10.4572C26.1718 10.4572 27.5043 11.0758 28.4402 12.0752C29.5982 11.8531 30.7086 11.4248 31.6922 10.8379C31.3114 12.0276 30.5024 13.027 29.4396 13.6615C30.4707 13.5505 31.4701 13.2649 32.3901 12.8683C31.6922 13.8835 30.8197 14.7877 29.8204 15.5174Z" fill="black"/>
</g>
<defs>
<linearGradient id="paint0_linear_2_1285" x1="3.91155e-07" y1="-0.0791021" x2="40" y2="39.9209" gradientUnits="userSpaceOnUse">
<stop stop-color="#FF56F6"/>
<stop offset="0.416667" stop-color="#3BACE2"/>
<stop offset="0.869792" stop-color="#B936EE"/>
</linearGradient>
<clipPath id="clip0_2_1285">
<rect x="7.00012" y="8.10938" width="25" height="25" rx="5" fill="white"/>
</clipPath>
</defs>
</svg>
